<svg width="1275" height="323" viewBox="0 0 1275 323" fill="none" xmlns="http://www.w3.org/2000/svg">
<g clip-path="url(#clip0_88_5946)">
<rect width="1275" height="322.226" fill="white"/>
<path d="M612.842 33.9016L611.702 25.5882L637.651 18.0425L647.159 41.7562L639.063 45.0021L632.666 29.0468L621.743 32.3692C622.31 32.7421 623.01 33.349 623.843 34.1896C624.685 35.0528 625.358 36.114 625.863 37.3733C626.675 39.3973 627.025 41.3451 626.914 43.2168C626.803 45.0885 626.256 46.8481 625.272 48.4955C624.288 50.143 622.885 51.6581 621.064 53.0408C619.243 54.4235 617.04 55.6332 614.454 56.6701C612.272 57.5447 610.07 58.0751 607.848 58.2614C605.635 58.4701 603.524 58.2851 601.517 57.7064C599.51 57.1276 597.696 56.119 596.075 54.6806C594.477 53.2332 593.196 51.3064 592.231 48.9002C591.5 47.0786 591.108 45.1871 591.052 43.2255C591.005 41.2865 591.33 39.3944 592.026 37.5492C592.744 35.695 593.818 34.0114 595.248 32.4986C596.7 30.9767 598.561 29.7605 600.833 28.8498L604.579 38.1936C603.288 38.8155 602.234 39.5385 601.416 40.3625C600.629 41.2 600.112 42.0597 599.865 42.9417C599.628 43.8462 599.694 44.7595 600.063 45.6815C600.424 46.581 600.96 47.2667 601.671 47.7385C602.405 48.2013 603.264 48.4571 604.25 48.5058C605.235 48.5545 606.315 48.4479 607.489 48.186C608.685 47.9151 609.925 47.5227 611.206 47.0087C612.511 46.4858 613.642 45.8887 614.599 45.2176C615.566 44.5689 616.322 43.8485 616.865 43.0562C617.441 42.2774 617.782 41.4358 617.889 40.5314C618.019 39.618 617.881 38.6553 617.475 37.6433C616.925 36.2715 616.218 35.3543 615.354 34.8916C614.521 34.4424 613.684 34.1123 612.842 33.9016ZM638.268 54.4441L640.865 53.4027C642.732 52.6543 644.565 52.3109 646.364 52.3724C648.173 52.4564 649.809 52.9883 651.272 53.9679C652.744 54.97 653.886 56.483 654.697 58.5069C655.518 60.5534 655.742 62.4473 655.37 64.1887C654.998 65.9302 654.178 67.4335 652.91 68.6988C651.651 69.9866 650.089 71.0046 648.222 71.753L645.625 72.7944C643.803 73.5247 641.993 73.8591 640.193 73.7976C638.393 73.736 636.758 73.2042 635.286 72.2021C633.823 71.2225 632.685 69.7207 631.874 67.6968C631.062 65.6728 630.843 63.7902 631.215 62.0487C631.587 60.3073 632.398 58.7814 633.647 57.4712C634.906 56.1834 636.446 55.1744 638.268 54.4441ZM643.34 59.5757L640.743 60.617C639.978 60.9236 639.292 61.3291 638.685 61.8335C638.101 62.3288 637.685 62.8871 637.438 63.5081C637.214 64.1202 637.237 64.7635 637.507 65.4382C637.778 66.1128 638.201 66.5826 638.777 66.8476C639.376 67.1036 640.053 67.1975 640.809 67.1294C641.596 67.0748 642.372 66.8942 643.136 66.5876L645.734 65.5463C646.543 65.2217 647.24 64.8117 647.825 64.3163C648.441 63.8344 648.861 63.2874 649.086 62.6754C649.333 62.0543 649.321 61.4064 649.05 60.7318C648.78 60.0572 648.341 59.5806 647.733 59.3022C647.157 59.0372 646.475 58.932 645.688 58.9866C644.932 59.0547 644.15 59.2511 643.34 59.5757ZM618.384 84.9302L621.015 83.8753C622.859 83.1359 624.685 82.8083 626.494 82.8923C628.303 82.9763 629.939 83.5081 631.402 84.4877C632.874 85.4898 634.011 86.9916 634.813 88.9931C635.643 91.062 635.867 92.9559 635.486 94.6748C635.105 96.3938 634.285 97.8972 633.026 99.1849C631.777 100.495 630.23 101.52 628.386 102.259L625.755 103.314C623.911 104.054 622.089 104.392 620.289 104.331C618.512 104.26 616.887 103.724 615.415 102.722C613.952 101.742 612.815 100.241 612.004 98.2166C611.192 96.1927 610.968 94.2988 611.331 92.5348C611.703 90.7934 612.514 89.2675 613.763 87.9573C615.022 86.6695 616.562 85.6605 618.384 84.9302ZM623.49 90.0482L620.893 91.0896C620.105 91.4052 619.417 91.8377 618.829 92.387C618.262 92.9274 617.855 93.5081 617.608 94.1292C617.393 94.7637 617.403 95.3733 617.637 95.958C617.962 96.7676 618.412 97.3049 618.988 97.5699C619.587 97.8258 620.25 97.886 620.979 97.7505C621.739 97.6284 622.513 97.4095 623.3 97.094L625.864 96.0661C626.673 95.7415 627.37 95.3315 627.955 94.8362C628.571 94.3543 628.991 93.8073 629.215 93.1952C629.471 92.5966 629.464 91.96 629.194 91.2854C628.914 90.5883 628.47 90.1005 627.863 89.822C627.278 89.5345 626.592 89.4181 625.804 89.4727C625.048 89.5408 624.277 89.7327 623.49 90.0482ZM655.716 83.5098L609.255 78.7626L610.006 73.2146L656.467 77.9618L655.716 83.5098Z" fill="#DA4F30"/>
<path d="M984.87 289.662L978.725 295.376L957.629 278.486L971.562 257.071L978.873 261.827L969.498 276.236L978.498 283.262C978.477 282.584 978.571 281.662 978.78 280.497C979.002 279.312 979.482 278.15 980.222 277.013C981.412 275.185 982.804 273.779 984.399 272.793C985.994 271.807 987.748 271.243 989.662 271.101C991.575 270.959 993.621 271.235 995.8 271.929C997.978 272.624 1000.24 273.731 1002.57 275.25C1004.54 276.532 1006.24 278.028 1007.67 279.739C1009.11 281.43 1010.18 283.263 1010.86 285.238C1011.54 287.212 1011.76 289.276 1011.51 291.43C1011.25 293.57 1010.41 295.726 1008.99 297.899C1007.92 299.544 1006.6 300.953 1005.03 302.127C1003.47 303.28 1001.74 304.103 999.825 304.594C997.895 305.073 995.9 305.163 993.841 304.863C991.761 304.55 989.695 303.727 987.644 302.392L993.134 293.954C994.385 294.653 995.583 295.099 996.727 295.295C997.865 295.457 998.865 295.385 999.729 295.08C1000.61 294.754 1001.31 294.175 1001.86 293.342C1002.38 292.53 1002.64 291.697 1002.61 290.844C1002.57 289.978 1002.29 289.127 1001.76 288.293C1001.23 287.459 1000.52 286.637 999.635 285.827C998.725 285.004 997.692 284.216 996.534 283.463C995.356 282.697 994.217 282.115 993.117 281.717C992.031 281.299 991.007 281.096 990.046 281.106C989.078 281.084 988.193 281.288 987.392 281.721C986.57 282.14 985.862 282.806 985.267 283.72C984.461 284.959 984.117 286.065 984.236 287.038C984.347 287.978 984.559 288.852 984.87 289.662ZM987.055 257.048L984.709 255.522C983.023 254.426 981.688 253.123 980.704 251.616C979.732 250.088 979.227 248.444 979.187 246.683C979.16 244.903 979.741 243.099 980.93 241.271C982.133 239.423 983.553 238.15 985.192 237.453C986.83 236.756 988.532 236.562 990.296 236.872C992.073 237.161 993.805 237.854 995.49 238.95L997.836 240.476C999.481 241.547 1000.8 242.836 1001.78 244.343C1002.76 245.851 1003.27 247.495 1003.3 249.276C1003.34 251.036 1002.76 252.83 1001.57 254.658C1000.38 256.485 998.97 257.748 997.332 258.445C995.693 259.142 993.979 259.356 992.188 259.087C990.411 258.798 988.7 258.118 987.055 257.048ZM988.336 249.947L990.681 251.473C991.372 251.923 992.098 252.251 992.86 252.457C993.601 252.65 994.297 252.669 994.947 252.514C995.577 252.346 996.09 251.957 996.486 251.348C996.883 250.739 997.023 250.122 996.909 249.498C996.774 248.862 996.462 248.254 995.971 247.674C995.474 247.062 994.88 246.531 994.189 246.082L991.844 244.555C991.113 244.08 990.376 243.745 989.635 243.552C988.886 243.325 988.197 243.296 987.567 243.464C986.917 243.62 986.394 244.002 985.998 244.611C985.601 245.22 985.464 245.853 985.586 246.511C985.7 247.134 986.006 247.753 986.504 248.365C986.994 248.944 987.605 249.472 988.336 249.947ZM1023.43 255.783L1021.05 254.237C1019.39 253.154 1018.07 251.848 1017.1 250.32C1016.13 248.792 1015.62 247.148 1015.58 245.388C1015.56 243.607 1016.13 241.813 1017.31 240.006C1018.52 238.138 1019.94 236.865 1021.57 236.188C1023.19 235.511 1024.89 235.317 1026.67 235.607C1028.46 235.876 1030.19 236.552 1031.86 237.635L1034.23 239.181C1035.9 240.264 1037.22 241.56 1038.21 243.068C1039.17 244.562 1039.67 246.2 1039.69 247.98C1039.73 249.74 1039.16 251.534 1037.97 253.362C1036.78 255.19 1035.36 256.463 1033.71 257.18C1032.07 257.877 1030.35 258.091 1028.56 257.822C1026.79 257.533 1025.07 256.854 1023.43 255.783ZM1024.68 248.663L1027.03 250.189C1027.74 250.651 1028.49 250.965 1029.27 251.131C1030.04 251.284 1030.75 251.283 1031.4 251.128C1032.04 250.939 1032.54 250.581 1032.88 250.053C1033.36 249.321 1033.54 248.644 1033.42 248.02C1033.29 247.383 1032.96 246.806 1032.43 246.288C1031.89 245.736 1031.26 245.229 1030.55 244.766L1028.24 243.26C1027.51 242.784 1026.77 242.45 1026.03 242.257C1025.28 242.03 1024.59 242.001 1023.96 242.169C1023.33 242.304 1022.81 242.676 1022.41 243.285C1022 243.915 1021.86 244.558 1021.98 245.215C1022.08 245.859 1022.38 246.488 1022.88 247.1C1023.37 247.679 1023.97 248.2 1024.68 248.663ZM1000.8 226.059L1023.63 266.799L1018.66 269.375L995.828 228.634L1000.8 226.059Z" fill="#DA4F30"/>
<path d="M621.28 265.665L607.062 268.316L591.923 224.265L631.963 205.933L638.222 219.603L611.281 231.937L617.905 250.469C618.5 249.461 619.487 248.206 620.866 246.702C622.282 245.181 624.053 243.933 626.18 242.96C629.597 241.395 632.922 240.631 636.153 240.667C639.385 240.703 642.46 241.5 645.378 243.058C648.295 244.616 651.02 246.905 653.551 249.926C656.082 252.947 658.348 256.64 660.347 261.007C662.033 264.69 663.128 268.437 663.633 272.248C664.176 276.042 664.032 279.69 663.201 283.193C662.371 286.697 660.785 289.903 658.442 292.813C656.083 295.684 652.871 298.05 648.808 299.91C645.733 301.318 642.509 302.152 639.136 302.41C635.802 302.65 632.517 302.248 629.283 301.202C626.031 300.119 623.044 298.409 620.321 296.074C617.58 293.7 615.332 290.595 613.576 286.76L629.353 279.537C630.531 281.708 631.863 283.463 633.349 284.804C634.856 286.089 636.379 286.907 637.918 287.259C639.495 287.594 641.062 287.404 642.619 286.692C644.138 285.996 645.274 285.017 646.027 283.753C646.763 282.452 647.133 280.951 647.135 279.25C647.137 277.55 646.864 275.7 646.316 273.7C645.751 271.662 644.973 269.561 643.982 267.397C642.973 265.195 641.852 263.297 640.617 261.703C639.42 260.093 638.117 258.852 636.708 257.981C635.32 257.055 633.843 256.538 632.277 256.428C630.693 256.28 629.047 256.597 627.339 257.38C625.023 258.44 623.502 259.733 622.777 261.259C622.072 262.73 621.573 264.199 621.28 265.665ZM654.544 220.191L652.536 215.806C651.093 212.654 650.35 209.526 650.307 206.423C650.302 203.302 651.082 200.441 652.648 197.842C654.251 195.224 656.762 193.133 660.179 191.569C663.634 189.987 666.876 189.444 669.905 189.94C672.934 190.437 675.591 191.724 677.874 193.802C680.195 195.862 682.077 198.468 683.52 201.62L685.528 206.006C686.936 209.081 687.662 212.171 687.705 215.275C687.748 218.378 686.967 221.238 685.364 223.856C683.798 226.456 681.307 228.538 677.889 230.102C674.472 231.667 671.249 232.201 668.22 231.705C665.191 231.208 662.497 229.939 660.138 227.895C657.816 225.835 655.952 223.267 654.544 220.191ZM662.959 211.034L664.967 215.419C665.558 216.71 666.312 217.857 667.231 218.861C668.132 219.826 669.128 220.495 670.218 220.869C671.29 221.205 672.396 221.112 673.535 220.591C674.674 220.069 675.448 219.301 675.856 218.288C676.247 217.236 676.353 216.062 676.173 214.767C676.014 213.416 675.639 212.095 675.048 210.804L673.04 206.418C672.414 205.051 671.651 203.885 670.749 202.92C669.869 201.899 668.892 201.221 667.82 200.885C666.73 200.511 665.616 200.585 664.477 201.107C663.338 201.628 662.553 202.424 662.124 203.493C661.716 204.506 661.591 205.689 661.75 207.04C661.93 208.335 662.333 209.667 662.959 211.034ZM708.676 251.902L706.642 247.459C705.217 244.346 704.501 241.228 704.496 238.107C704.491 234.986 705.272 232.126 706.837 229.526C708.441 226.909 710.932 224.827 714.311 223.279C717.805 221.68 721.047 221.137 724.038 221.651C727.029 222.165 729.685 223.452 732.006 225.512C734.366 227.556 736.258 230.134 737.684 233.248L739.717 237.69C741.143 240.804 741.877 243.912 741.92 247.016C741.946 250.082 741.157 252.923 739.553 255.54C737.988 258.14 735.496 260.222 732.079 261.787C728.662 263.351 725.419 263.894 722.352 263.415C719.324 262.919 716.629 261.649 714.27 259.606C711.949 257.545 710.084 254.977 708.676 251.902ZM717.065 242.687L719.073 247.073C719.682 248.402 720.483 249.551 721.478 250.519C722.455 251.45 723.488 252.102 724.578 252.475C725.688 252.794 726.737 252.727 727.724 252.275C729.091 251.649 729.979 250.829 730.388 249.816C730.779 248.764 730.827 247.616 730.534 246.373C730.261 245.074 729.82 243.76 729.211 242.431L727.23 238.103C726.604 236.736 725.84 235.569 724.939 234.604C724.058 233.584 723.082 232.905 722.009 232.57C720.958 232.178 719.862 232.244 718.723 232.765C717.546 233.304 716.743 234.108 716.314 235.177C715.867 236.208 715.724 237.399 715.883 238.75C716.063 240.046 716.457 241.358 717.065 242.687ZM703.141 187.745L698.813 268.13L689.199 267.295L693.527 186.911L703.141 187.745Z" fill="#DA4F30"/>
<path d="M1027.09 80.4852L1019.26 74.4612L1034.77 46.6913L1062.34 58.7054L1058.24 68.1165L1039.69 60.033L1033.28 71.8452C1034.07 71.689 1035.15 71.6189 1036.55 71.6349C1037.97 71.6623 1039.41 71.995 1040.87 72.633C1043.22 73.6584 1045.13 75.0012 1046.58 76.6614C1048.04 78.3216 1049.03 80.2486 1049.57 82.4424C1050.1 84.6362 1050.18 87.065 1049.8 89.7287C1049.42 92.3924 1048.57 95.2275 1047.26 98.2338C1046.15 100.77 1044.75 103.034 1043.04 105.027C1041.36 107.031 1039.43 108.62 1037.27 109.794C1035.11 110.968 1032.76 111.622 1030.21 111.756C1027.68 111.864 1025.01 111.308 1022.21 110.089C1020.1 109.167 1018.2 107.906 1016.54 106.308C1014.89 104.722 1013.6 102.868 1012.66 100.747C1011.73 98.599 1011.24 96.3006 1011.19 93.8514C1011.15 91.376 1011.7 88.8182 1012.85 86.1779L1023.71 90.9117C1023.15 92.4997 1022.86 93.977 1022.85 95.3437C1022.89 96.6957 1023.16 97.8432 1023.69 98.7863C1024.24 99.7407 1025.05 100.451 1026.12 100.919C1027.16 101.374 1028.18 101.506 1029.16 101.314C1030.16 101.095 1031.09 100.599 1031.96 99.8253C1032.83 99.0518 1033.64 98.0701 1034.41 96.8803C1035.19 95.6643 1035.9 94.3113 1036.55 92.8212C1037.21 91.305 1037.67 89.8699 1037.92 88.5159C1038.19 87.1733 1038.23 85.9453 1038.03 84.832C1037.87 83.7039 1037.46 82.7166 1036.8 81.8701C1036.15 80.9974 1035.24 80.3048 1034.06 79.7921C1032.47 79.0971 1031.12 78.9128 1030.01 79.2393C1028.94 79.5511 1027.97 79.9664 1027.09 80.4852ZM1065.37 76.6863L1066.69 73.6669C1067.64 71.4971 1068.89 69.6943 1070.45 68.2585C1072.03 66.834 1073.84 65.9277 1075.88 65.5395C1077.94 65.1626 1080.15 65.4869 1082.5 66.5123C1084.88 67.5491 1086.63 68.9509 1087.76 70.7177C1088.89 72.4845 1089.44 74.4219 1089.43 76.5299C1089.44 78.6494 1088.97 80.794 1088.02 82.9638L1086.71 85.9831C1085.78 88.1006 1084.54 89.8773 1082.98 91.3132C1081.42 92.749 1079.61 93.6553 1077.55 94.0322C1075.52 94.4204 1073.32 94.1018 1070.97 93.0764C1068.62 92.051 1066.88 90.655 1065.75 88.8882C1064.62 87.1214 1064.04 85.1725 1064 83.0417C1064 80.9223 1064.45 78.8038 1065.37 76.6863ZM1073.87 76.7943L1072.55 79.8137C1072.16 80.7026 1071.92 81.6091 1071.83 82.5335C1071.75 83.4316 1071.86 84.243 1072.17 84.9676C1072.49 85.666 1073.04 86.1861 1073.82 86.5279C1074.61 86.8697 1075.35 86.9136 1076.05 86.6595C1076.77 86.3792 1077.41 85.8983 1077.99 85.2166C1078.6 84.5201 1079.1 83.7274 1079.49 82.8386L1080.81 79.8192C1081.22 78.8781 1081.46 77.9585 1081.54 77.0603C1081.66 76.1474 1081.56 75.3417 1081.24 74.6433C1080.94 73.9187 1080.39 73.3855 1079.61 73.0437C1078.82 72.7019 1078.06 72.6655 1077.32 72.9343C1076.62 73.1884 1075.96 73.6636 1075.35 74.3601C1074.77 75.0418 1074.28 75.8532 1073.87 76.7943ZM1073.91 118.667L1075.24 115.609C1076.18 113.465 1077.44 111.681 1079.02 110.257C1080.61 108.832 1082.42 107.926 1084.45 107.538C1086.51 107.161 1088.71 107.479 1091.03 108.493C1093.44 109.542 1095.19 110.943 1096.29 112.699C1097.4 114.454 1097.95 116.392 1097.96 118.511C1098 120.642 1097.55 122.779 1096.61 124.923L1095.28 127.981C1094.35 130.125 1093.1 131.915 1091.54 133.351C1089.99 134.76 1088.19 135.654 1086.13 136.03C1084.09 136.419 1081.9 136.1 1079.54 135.075C1077.19 134.049 1075.44 132.647 1074.28 130.869C1073.16 129.102 1072.57 127.154 1072.54 125.023C1072.53 122.903 1072.99 120.785 1073.91 118.667ZM1082.42 118.736L1081.1 121.756C1080.7 122.671 1080.48 123.602 1080.44 124.549C1080.42 125.47 1080.56 126.292 1080.86 127.017C1081.21 127.727 1081.72 128.23 1082.4 128.526C1083.34 128.936 1084.16 129.014 1084.86 128.76C1085.57 128.48 1086.18 127.982 1086.68 127.266C1087.22 126.535 1087.68 125.713 1088.08 124.798L1089.38 121.817C1089.79 120.876 1090.04 119.957 1090.12 119.058C1090.23 118.146 1090.13 117.34 1089.82 116.641C1089.54 115.928 1089 115.401 1088.22 115.059C1087.41 114.706 1086.63 114.664 1085.89 114.932C1085.17 115.175 1084.5 115.645 1083.88 116.341C1083.3 117.023 1082.82 117.821 1082.42 118.736ZM1104.02 86.6225L1061.16 121.044L1057.21 115.774L1100.06 81.3523L1104.02 86.6225Z" fill="#DA4F30"/>
<path d="M1148.81 224.15L1146.03 220.872L1155.16 210.449L1165.81 218.074L1163.21 221.711L1156.04 216.581L1152.24 221.031C1152.59 221.036 1153.06 221.105 1153.65 221.239C1154.25 221.379 1154.83 221.652 1155.4 222.057C1156.31 222.708 1157 223.453 1157.47 224.292C1157.94 225.132 1158.18 226.044 1158.21 227.027C1158.24 228.011 1158.05 229.053 1157.65 230.153C1157.24 231.253 1156.63 232.384 1155.79 233.546C1155.09 234.526 1154.29 235.363 1153.38 236.057C1152.48 236.758 1151.52 237.26 1150.49 237.564C1149.46 237.868 1148.4 237.933 1147.3 237.758C1146.21 237.574 1145.13 237.095 1144.05 236.321C1143.23 235.735 1142.53 235.026 1141.97 234.194C1141.41 233.369 1141.03 232.461 1140.82 231.472C1140.62 230.472 1140.62 229.448 1140.82 228.4C1141.03 227.341 1141.5 226.302 1142.23 225.281L1146.43 228.286C1146.04 228.911 1145.78 229.514 1145.66 230.096C1145.55 230.675 1145.56 231.189 1145.7 231.639C1145.85 232.095 1146.13 232.472 1146.54 232.768C1146.95 233.057 1147.37 233.206 1147.8 233.213C1148.25 233.211 1148.69 233.084 1149.13 232.833C1149.57 232.583 1150.01 232.238 1150.44 231.801C1150.88 231.354 1151.31 230.842 1151.72 230.266C1152.14 229.68 1152.47 229.11 1152.7 228.556C1152.94 228.009 1153.06 227.489 1153.08 226.996C1153.11 226.501 1153.03 226.043 1152.82 225.623C1152.63 225.192 1152.3 224.814 1151.85 224.489C1151.23 224.048 1150.67 223.846 1150.17 223.885C1149.69 223.921 1149.24 224.009 1148.81 224.15ZM1165.47 226.011L1166.31 224.844C1166.91 224.006 1167.6 223.352 1168.4 222.881C1169.2 222.419 1170.06 222.197 1170.96 222.217C1171.87 222.243 1172.78 222.582 1173.69 223.233C1174.61 223.891 1175.23 224.648 1175.55 225.503C1175.87 226.358 1175.93 227.234 1175.73 228.131C1175.55 229.035 1175.15 229.906 1174.55 230.745L1173.72 231.912C1173.13 232.73 1172.44 233.374 1171.65 233.844C1170.85 234.315 1170 234.536 1169.08 234.509C1168.18 234.49 1167.28 234.154 1166.37 233.504C1165.46 232.853 1164.84 232.1 1164.52 231.245C1164.2 230.389 1164.13 229.506 1164.31 228.595C1164.5 227.691 1164.89 226.83 1165.47 226.011ZM1169.08 226.829L1168.25 227.996C1168 228.34 1167.82 228.704 1167.69 229.09C1167.58 229.465 1167.55 229.821 1167.62 230.158C1167.69 230.484 1167.87 230.756 1168.18 230.973C1168.48 231.19 1168.79 231.276 1169.12 231.232C1169.44 231.177 1169.76 231.031 1170.07 230.793C1170.4 230.552 1170.68 230.26 1170.93 229.916L1171.76 228.749C1172.02 228.385 1172.21 228.016 1172.33 227.64C1172.46 227.262 1172.49 226.91 1172.42 226.583C1172.35 226.247 1172.17 225.97 1171.87 225.753C1171.56 225.536 1171.24 225.451 1170.9 225.499C1170.58 225.543 1170.26 225.686 1169.93 225.927C1169.62 226.165 1169.34 226.466 1169.08 226.829ZM1165.29 244.675L1166.14 243.493C1166.73 242.664 1167.43 242.019 1168.23 241.556C1169.04 241.093 1169.89 240.871 1170.8 240.891C1171.71 240.918 1172.62 241.253 1173.51 241.897C1174.44 242.562 1175.06 243.319 1175.37 244.167C1175.68 245.015 1175.74 245.891 1175.55 246.795C1175.38 247.706 1174.99 248.576 1174.4 249.404L1173.55 250.586C1172.96 251.415 1172.26 252.064 1171.47 252.534C1170.68 252.994 1169.83 253.211 1168.92 253.184C1168.02 253.164 1167.11 252.829 1166.2 252.178C1165.29 251.527 1164.67 250.771 1164.34 249.908C1164.02 249.053 1163.95 248.17 1164.13 247.259C1164.32 246.355 1164.71 245.493 1165.29 244.675ZM1168.91 245.478L1168.08 246.645C1167.82 246.998 1167.65 247.375 1167.54 247.775C1167.45 248.165 1167.43 248.528 1167.5 248.865C1167.58 249.199 1167.75 249.459 1168.01 249.647C1168.38 249.908 1168.72 250.016 1169.04 249.971C1169.37 249.917 1169.67 249.759 1169.95 249.5C1170.25 249.237 1170.52 248.929 1170.77 248.575L1171.6 247.424C1171.86 247.06 1172.05 246.69 1172.16 246.315C1172.3 245.937 1172.33 245.584 1172.25 245.258C1172.2 244.928 1172.02 244.655 1171.72 244.438C1171.4 244.214 1171.08 244.126 1170.74 244.173C1170.41 244.21 1170.08 244.349 1169.75 244.59C1169.45 244.828 1169.16 245.124 1168.91 245.478ZM1181.04 233.758L1159.64 244.529L1158.44 241.924L1179.83 231.153L1181.04 233.758Z" fill="#DA4F30"/>
<path d="M229.588 227.411L220.67 217.267L248.791 184.079L282.626 207.456L274.645 219.007L251.88 203.278L240.172 217.445C241.265 217.441 242.743 217.634 244.609 218.022C246.506 218.432 248.353 219.258 250.15 220.499C253.037 222.494 255.239 224.797 256.753 227.408C258.268 230.019 259.097 232.867 259.24 235.952C259.384 239.038 258.848 242.318 257.632 245.792C256.417 249.266 254.535 252.848 251.985 256.538C249.835 259.65 247.351 262.319 244.534 264.544C241.749 266.791 238.752 268.418 235.544 269.425C232.336 270.432 229.005 270.691 225.551 270.201C222.12 269.679 218.688 268.231 215.254 265.859C212.655 264.064 210.447 261.874 208.629 259.291C206.843 256.73 205.597 253.902 204.892 250.807C204.208 247.68 204.153 244.466 204.727 241.165C205.323 237.832 206.741 234.545 208.98 231.305L222.312 240.516C221.132 242.498 220.36 244.405 219.994 246.238C219.682 248.061 219.753 249.674 220.206 251.077C220.69 252.502 221.591 253.67 222.906 254.579C224.19 255.465 225.518 255.909 226.892 255.91C228.288 255.88 229.669 255.459 231.035 254.649C232.401 253.838 233.755 252.736 235.098 251.341C236.463 249.914 237.777 248.286 239.041 246.457C240.327 244.596 241.314 242.789 242.003 241.037C242.724 239.308 243.098 237.67 243.123 236.123C243.203 234.566 242.913 233.134 242.254 231.824C241.616 230.483 240.575 229.314 239.131 228.316C237.174 226.964 235.41 226.361 233.839 226.508C232.322 226.645 230.905 226.946 229.588 227.411ZM281.969 232.386L284.529 228.68C286.369 226.017 288.524 223.927 290.995 222.41C293.497 220.916 296.165 220.176 298.999 220.19C301.865 220.227 304.742 221.243 307.63 223.238C310.55 225.256 312.534 227.598 313.582 230.266C314.631 232.934 314.866 235.68 314.289 238.505C313.744 241.352 312.552 244.107 310.712 246.77L308.151 250.476C306.356 253.076 304.223 255.133 301.753 256.65C299.283 258.167 296.614 258.907 293.748 258.87C290.914 258.856 288.053 257.851 285.165 255.856C282.278 253.86 280.31 251.529 279.261 248.861C278.213 246.193 277.945 243.425 278.458 240.555C279.003 237.708 280.173 234.985 281.969 232.386ZM293.337 234.766L290.777 238.472C290.023 239.563 289.463 240.717 289.096 241.933C288.752 243.117 288.69 244.236 288.911 245.289C289.154 246.31 289.756 247.153 290.719 247.818C291.681 248.483 292.667 248.737 293.676 248.581C294.707 248.393 295.699 247.917 296.653 247.154C297.661 246.381 298.542 245.449 299.296 244.358L301.856 240.652C302.654 239.497 303.225 238.327 303.57 237.143C303.968 235.949 304.046 234.841 303.803 233.82C303.583 232.767 302.991 231.908 302.029 231.243C301.066 230.578 300.053 230.328 298.99 230.495C297.982 230.651 296.973 231.116 295.965 231.889C295.011 232.652 294.135 233.611 293.337 234.766ZM282.375 290.974L284.969 287.22C286.787 284.589 288.947 282.526 291.449 281.031C293.951 279.536 296.62 278.796 299.454 278.811C302.32 278.848 305.181 279.853 308.037 281.826C310.989 283.865 312.973 286.208 313.989 288.854C315.005 291.499 315.241 294.246 314.696 297.093C314.183 299.962 313.018 302.712 311.2 305.343L308.606 309.097C306.788 311.728 304.644 313.802 302.174 315.319C299.726 316.804 297.069 317.528 294.203 317.491C291.369 317.476 288.508 316.471 285.62 314.476C282.732 312.481 280.748 310.138 279.668 307.448C278.619 304.78 278.352 302.012 278.865 299.143C279.409 296.296 280.58 293.573 282.375 290.974ZM293.777 293.305L291.216 297.011C290.441 298.134 289.901 299.326 289.599 300.587C289.319 301.815 289.289 302.956 289.51 304.009C289.785 305.052 290.339 305.862 291.174 306.439C292.329 307.237 293.411 307.557 294.419 307.401C295.45 307.213 296.394 306.704 297.252 305.874C298.164 305.035 299.008 304.053 299.784 302.93L302.311 299.272C303.109 298.117 303.68 296.948 304.024 295.763C304.423 294.569 304.501 293.462 304.258 292.441C304.07 291.41 303.494 290.562 302.531 289.897C301.537 289.209 300.508 288.949 299.445 289.115C298.404 289.249 297.38 289.703 296.372 290.476C295.418 291.239 294.553 292.182 293.777 293.305ZM331.218 255.89L264.642 290.809L260.72 282.695L327.296 247.776L331.218 255.89Z" fill="#DA4F30"/>
<path d="M26.9053 240.762L17.5604 240.959L12.535 211.28L39.9923 203.797L42.5469 213.171L24.0727 218.205L26.3498 230.718C26.8351 230.138 27.5962 229.441 28.6331 228.627C29.6961 227.806 30.9566 227.197 32.4147 226.799C34.7582 226.16 36.9583 226.022 39.0152 226.385C41.072 226.748 42.9489 227.579 44.6458 228.879C46.3426 230.178 47.8394 231.924 49.1361 234.116C50.4328 236.308 51.4892 238.902 52.3052 241.896C52.9935 244.422 53.2984 246.926 53.2198 249.409C53.1673 251.885 52.6922 254.196 51.7947 256.343C50.8972 258.49 49.5489 260.368 47.7497 261.977C45.9434 263.56 43.6471 264.731 40.8611 265.49C38.752 266.065 36.6086 266.258 34.431 266.068C32.2795 265.871 30.2274 265.269 28.2748 264.263C26.3151 263.231 24.5899 261.827 23.099 260.051C21.6011 258.25 20.4937 256.034 19.777 253.404L30.5959 250.456C31.1187 251.964 31.7836 253.223 32.5906 254.234C33.4165 255.211 34.3016 255.893 35.2459 256.279C36.2163 256.658 37.2353 256.702 38.3029 256.411C39.3444 256.127 40.1718 255.622 40.785 254.896C41.3911 254.143 41.7842 253.225 41.9643 252.141C42.1444 251.057 42.1647 249.848 42.0253 248.516C41.8788 247.157 41.6033 245.736 41.1989 244.251C40.7873 242.741 40.2715 241.413 39.6516 240.268C39.0577 239.115 38.3573 238.187 37.5502 237.484C36.7622 236.747 35.8747 236.262 34.8877 236.027C33.8936 235.767 32.8107 235.796 31.639 236.115C30.0506 236.548 28.9451 237.213 28.3224 238.11C27.7187 238.974 27.2463 239.858 26.9053 240.762ZM52.8926 215.26L52.073 212.253C51.484 210.092 51.3389 208.02 51.6375 206.036C51.9621 204.045 52.7601 202.303 54.0315 200.81C55.3289 199.31 57.1493 198.24 59.4928 197.602C61.8622 196.956 63.9866 196.95 65.8659 197.585C67.7452 198.22 69.3036 199.32 70.5412 200.884C71.8049 202.442 72.7312 204.301 73.3202 206.463L74.1398 209.47C74.7146 211.579 74.8527 213.625 74.554 215.609C74.2554 217.592 73.4574 219.334 72.16 220.835C70.8887 222.328 69.0812 223.394 66.7378 224.033C64.3944 224.671 62.283 224.673 60.4037 224.039C58.5245 223.404 56.94 222.311 55.6503 220.761C54.3866 219.203 53.4674 217.37 52.8926 215.26ZM59.2205 210.305L60.0401 213.313C60.2814 214.198 60.6422 215.009 61.1225 215.745C61.5958 216.455 62.1602 216.987 62.8158 217.339C63.4643 217.666 64.1791 217.723 64.9603 217.51C65.7414 217.297 66.3155 216.889 66.6825 216.286C67.0424 215.656 67.2331 214.919 67.2545 214.074C67.2949 213.196 67.1945 212.314 66.9532 211.429L66.1337 208.421C65.8782 207.484 65.5138 206.66 65.0406 205.95C64.5863 205.206 64.0349 204.671 63.3864 204.345C62.7308 203.992 62.0124 203.922 61.2313 204.135C60.4501 204.348 59.8666 204.772 59.4806 205.409C59.1136 206.013 58.9099 206.753 58.8695 207.632C58.8481 208.477 58.965 209.368 59.2205 210.305ZM84.0787 241.167L83.2484 238.121C82.6666 235.986 82.5379 233.923 82.8626 231.932C83.1873 229.942 83.9853 228.2 85.2566 226.706C86.554 225.206 88.3614 224.14 90.6788 223.508C93.0743 222.855 95.1987 222.85 97.052 223.492C98.9052 224.134 100.464 225.233 101.727 226.791C103.017 228.342 103.953 230.185 104.535 232.32L105.365 235.366C105.947 237.501 106.088 239.561 105.79 241.544C105.484 243.502 104.683 245.23 103.385 246.731C102.114 248.224 100.306 249.29 97.9629 249.929C95.6195 250.568 93.4951 250.573 91.5898 249.945C89.7105 249.311 88.126 248.218 86.8363 246.667C85.5727 245.11 84.6534 243.276 84.0787 241.167ZM90.3959 236.173L91.2155 239.18C91.4639 240.092 91.8543 240.908 92.3867 241.63C92.912 242.326 93.5025 242.851 94.1581 243.204C94.8326 243.523 95.5084 243.591 96.1854 243.406C97.1228 243.151 97.7749 242.721 98.1419 242.118C98.5018 241.488 98.6535 240.762 98.5968 239.938C98.5591 239.081 98.4161 238.197 98.1677 237.286L97.3588 234.317C97.1033 233.38 96.739 232.556 96.2657 231.846C95.8114 231.103 95.26 230.568 94.6115 230.241C93.9819 229.881 93.2766 229.807 92.4954 230.02C91.6882 230.24 91.0917 230.669 90.7057 231.305C90.3127 231.916 90.096 232.66 90.0556 233.538C90.0341 234.383 90.1476 235.262 90.3959 236.173ZM87.2891 199.677L76.0847 250.479L70.0421 248.936L81.2465 198.135L87.2891 199.677Z" fill="#DA4F30"/>
<path d="M252.046 60.0237L244.621 64.6266L226.463 43.1386L244.994 24.06L251.507 30.3865L239.039 43.2232L246.822 52.2068C246.936 51.5095 247.217 50.5868 247.664 49.4388C248.129 48.2726 248.853 47.1829 249.837 46.1698C251.419 44.5414 253.123 43.384 254.951 42.6974C256.778 42.0109 258.683 41.787 260.667 42.0256C262.65 42.2643 264.685 42.9571 266.77 44.104C268.856 45.2509 270.939 46.8349 273.02 48.8558C274.775 50.5605 276.211 52.4303 277.329 54.4653C278.464 56.4822 279.181 58.5676 279.48 60.7215C279.779 62.8755 279.587 65.0276 278.905 67.1779C278.205 69.3107 276.915 71.3451 275.034 73.281C273.611 74.7465 271.978 75.9207 270.136 76.8037C268.311 77.6686 266.374 78.1605 264.324 78.2795C262.257 78.381 260.201 78.072 258.157 77.3525C256.095 76.6156 254.151 75.3596 252.323 73.5846L259.625 66.0672C260.763 67.0316 261.897 67.7286 263.027 68.1581C264.156 68.5519 265.193 68.6795 266.136 68.541C267.097 68.3843 267.938 67.935 268.658 67.1933C269.361 66.4695 269.786 65.6696 269.934 64.7935C270.064 63.8997 269.943 62.974 269.573 62.0162C269.202 61.0583 268.644 60.0765 267.898 59.0707C267.134 58.0472 266.236 57.0347 265.205 56.033C264.155 55.0137 263.109 54.1906 262.065 53.5636C261.039 52.9186 260.034 52.5051 259.051 52.3232C258.066 52.1057 257.121 52.1373 256.216 52.418C255.292 52.6811 254.435 53.2198 253.644 54.034C252.572 55.1376 251.999 56.1983 251.925 57.2161C251.85 58.1983 251.89 59.1341 252.046 60.0237ZM260.825 27.1473L258.735 25.1176C257.233 23.659 256.131 22.0608 255.428 20.323C254.742 18.5671 254.556 16.7861 254.869 14.98C255.199 13.1558 256.155 11.4296 257.736 9.80125C259.335 8.15483 261.042 7.14005 262.856 6.75692C264.67 6.37379 266.446 6.5174 268.186 7.18772C269.944 7.83996 271.573 8.89538 273.075 10.354L275.165 12.3838C276.63 13.8072 277.715 15.3879 278.418 17.1257C279.121 18.8635 279.307 20.6444 278.977 22.4686C278.664 24.2747 277.717 25.9919 276.136 27.6202C274.554 29.2486 272.856 30.2543 271.043 30.6374C269.229 31.0205 267.434 30.895 265.659 30.2609C263.902 29.6087 262.29 28.5708 260.825 27.1473ZM263.559 20.1512L265.649 22.1809C266.264 22.7784 266.94 23.2591 267.676 23.623C268.395 23.9693 269.102 24.1284 269.797 24.1005C270.474 24.0549 271.076 23.7608 271.603 23.218C272.131 22.6752 272.398 22.0738 272.407 21.4137C272.397 20.7361 272.2 20.0522 271.815 19.3622C271.43 18.6364 270.93 17.9748 270.315 17.3773L268.225 15.3476C267.573 14.7149 266.889 14.2254 266.17 13.8792C265.451 13.4972 264.753 13.329 264.076 13.3745C263.381 13.4025 262.769 13.6878 262.242 14.2306C261.715 14.7734 261.447 15.3927 261.44 16.0884C261.431 16.7485 261.62 17.4414 262.005 18.1671C262.39 18.8571 262.908 19.5185 263.559 20.1512ZM298.236 33.1581L296.119 31.102C294.636 29.661 293.551 28.0625 292.865 26.3066C292.18 24.5507 291.994 22.7698 292.306 20.9637C292.636 19.1395 293.583 17.4223 295.148 15.8121C296.764 14.1475 298.471 13.1328 300.267 12.7677C302.063 12.4027 303.84 12.5463 305.598 13.1985C307.373 13.8327 309.002 14.8703 310.486 16.3113L312.602 18.3674C314.086 19.8085 315.179 21.3979 315.883 23.1357C316.567 24.8559 316.745 26.6281 316.415 28.4523C316.102 30.2583 315.155 31.9756 313.573 33.6039C311.992 35.2322 310.285 36.247 308.454 36.6482C306.64 37.0313 304.846 36.9058 303.07 36.2717C301.313 35.6195 299.701 34.5816 298.236 33.1581ZM300.943 26.1356L303.033 28.1654C303.666 28.7804 304.369 29.2518 305.14 29.5795C305.894 29.8896 306.618 30.0307 307.314 30.0027C308.008 29.9391 308.584 29.6721 309.041 29.2017C309.674 28.5503 309.994 27.8946 310.002 27.2345C309.993 26.5569 309.769 25.9002 309.332 25.2644C308.894 24.593 308.358 23.9497 307.725 23.3346L305.662 21.3312C305.011 20.6986 304.326 20.2091 303.608 19.8628C302.889 19.4809 302.191 19.3126 301.513 19.3582C300.836 19.368 300.233 19.6444 299.706 20.1871C299.161 20.748 298.885 21.3763 298.877 22.0721C298.852 22.7502 299.031 23.4522 299.416 24.1779C299.801 24.8679 300.31 25.5205 300.943 26.1356ZM281.086 -1.74897L296.233 44.4513L290.638 46.0845L275.491 -0.11576L281.086 -1.74897Z" fill="#DA4F30"/>
</g>
<defs>
<clipPath id="clip0_88_5946">
<rect width="1275" height="322.226" fill="white"/>
</clipPath>
</defs>
</svg>
