<svg width="1275" height="323" viewBox="0 0 1275 323" fill="none" xmlns="http://www.w3.org/2000/svg">
<g clip-path="url(#clip0_86_3805)">
<rect width="1275" height="322.226" fill="white"/>
<path d="M660.143 17.4065C660.143 17.4065 656.768 25.2861 646.563 25.8891C640.186 26.266 628.066 28.7933 627.643 33.6633L632.953 46.7323C637.922 44.1612 643.393 42.7064 648.983 42.4698C657.449 42.328 667.506 33.7143 667.506 33.7143L660.143 17.4065Z" fill="#2B7E4C"/>
<path d="M648.686 40.4641C647.735 40.6262 646.759 40.5811 645.826 40.332C644.894 40.0828 644.026 39.6353 643.282 39.0201C642.537 38.405 641.935 37.6365 641.515 36.7673C641.095 35.898 640.867 34.9484 640.847 33.9831C640.903 30.479 645.392 27.7112 648.896 27.7666C649.731 27.7778 650.555 27.9543 651.322 28.2857C652.088 28.6171 652.781 29.0969 653.361 29.6975C653.941 30.2981 654.396 31.0075 654.7 31.7849C655.005 32.5623 655.152 33.3923 655.134 34.227C655.099 37.7491 652.148 39.914 648.686 40.4641Z" fill="#F5F5F5"/>
<path d="M647.093 38.3118C647.086 38.197 647.309 38.0686 647.764 37.9649C648.342 37.81 648.9 37.588 649.427 37.3034C649.745 37.1241 650.023 36.8811 650.242 36.5896C650.458 36.3257 650.566 35.9902 650.545 35.6501C650.525 35.4892 650.468 35.3351 650.379 35.1995C650.29 35.0639 650.171 34.9504 650.032 34.8676C649.787 34.7221 649.371 34.7275 648.816 34.8754C648.545 34.9363 648.242 35.0182 647.907 35.0828C647.538 35.1641 647.158 35.1822 646.784 35.1363C646.571 35.1036 646.364 35.045 646.165 34.9617C645.875 34.8342 645.618 34.6412 645.415 34.3978C645.212 34.1544 645.068 33.8673 644.994 33.5588C644.905 33.1924 644.908 32.8092 645.005 32.4445C645.096 32.115 645.259 31.81 645.484 31.5522C645.839 31.1461 646.292 30.8373 646.801 30.6552C647.18 30.5126 647.578 30.4224 647.982 30.387C648.271 30.3647 648.562 30.3646 648.852 30.3868C649.322 30.4294 649.576 30.5104 649.582 30.6125C649.588 30.7145 649.372 30.8489 648.912 30.9721C648.336 31.1276 647.778 31.3451 647.248 31.6208C646.943 31.7974 646.678 32.0354 646.47 32.3196C646.377 32.4412 646.317 32.5843 646.294 32.7356C646.272 32.887 646.288 33.0415 646.342 33.1848C646.385 33.3175 646.465 33.435 646.573 33.5231C646.621 33.5633 646.678 33.5927 646.738 33.6094C646.812 33.6361 646.888 33.6552 646.966 33.6663C647.483 33.6489 647.994 33.5583 648.486 33.3973C648.842 33.3125 649.206 33.2674 649.572 33.2627C649.779 33.27 649.984 33.2986 650.185 33.3481C650.397 33.3989 650.599 33.4843 650.783 33.6008C651.127 33.8065 651.415 34.0955 651.619 34.4413C651.823 34.7872 651.936 35.1787 651.949 35.58C651.954 35.9225 651.891 36.2626 651.762 36.5802C651.634 36.8978 651.443 37.1864 651.201 37.429C650.831 37.8038 650.386 38.0962 649.895 38.287C649.238 38.5304 648.535 38.6244 647.837 38.5622C647.354 38.5075 647.092 38.4078 647.093 38.3118Z" fill="#2B7E4C"/>
<path d="M650.899 38.9387C650.705 39.0078 649.719 36.9348 648.705 34.2938C647.691 31.6528 646.984 29.429 647.229 29.3569C647.474 29.2848 648.41 31.3608 649.43 33.995C650.449 36.6292 651.069 38.8839 650.899 38.9387Z" fill="#2B7E4C"/>
<path d="M649.733 39.109C649.545 39.1841 648.634 37.2987 647.718 34.9016C646.802 32.5044 646.197 30.5049 646.397 30.429C646.598 30.3532 647.496 32.2394 648.412 34.6365C649.329 37.0336 649.909 39.0602 649.733 39.109Z" fill="#2B7E4C"/>
<g opacity="0.5">
<path d="M633.67 45L628.91 33.1081L628.994 33.0135C632.873 28.2658 642.088 27.4717 648.181 26.9388C649.232 26.8575 650.219 26.7672 651.077 26.6717C656.761 26.0286 659.733 20.6561 659.715 20.1323L660.143 20.0047L665.484 32.739L665.388 32.8471C662.911 35.513 659.906 37.6338 656.564 39.0742C653.222 40.5147 649.617 41.2432 645.978 41.2134C640.977 41.0609 633.995 44.8656 633.927 44.9016L633.67 45ZM629.445 33.1725L633.889 44.3726C635.15 43.7157 641.277 40.6144 645.951 40.7542C649.505 40.7899 653.028 40.0899 656.299 38.6982C659.569 37.3066 662.516 35.2535 664.955 32.6679L659.958 20.7708C659.773 21.1464 659.563 21.5095 659.331 21.8575C658.583 22.9577 655.79 26.6044 651.111 27.1369C650.259 27.2257 649.259 27.3167 648.202 27.4048C642.247 27.9039 633.231 28.6798 629.445 33.1725Z" fill="#FAFAFA"/>
</g>
<path d="M174.143 13.4065C174.143 13.4065 170.768 21.2861 160.563 21.8891C154.186 22.266 142.066 24.7933 141.643 29.6633L146.953 42.7323C151.922 40.1612 157.393 38.7064 162.983 38.4698C171.449 38.328 181.506 29.7143 181.506 29.7143L174.143 13.4065Z" fill="#2B7E4C"/>
<path d="M162.686 36.4641C161.735 36.6262 160.759 36.5811 159.826 36.332C158.894 36.0828 158.026 35.6353 157.282 35.0201C156.537 34.405 155.935 33.6365 155.515 32.7673C155.095 31.898 154.867 30.9484 154.847 29.9831C154.903 26.479 159.392 23.7112 162.896 23.7666C163.731 23.7778 164.555 23.9543 165.322 24.2857C166.088 24.6171 166.781 25.0969 167.361 25.6975C167.941 26.2981 168.396 27.0075 168.7 27.7849C169.005 28.5623 169.152 29.3923 169.134 30.227C169.099 33.7491 166.148 35.914 162.686 36.4641Z" fill="#F5F5F5"/>
<path d="M161.093 34.3118C161.086 34.197 161.309 34.0686 161.764 33.9649C162.342 33.81 162.9 33.588 163.427 33.3034C163.745 33.1241 164.023 32.8811 164.242 32.5896C164.458 32.3257 164.566 31.9902 164.545 31.6501C164.525 31.4892 164.468 31.3351 164.379 31.1995C164.29 31.0639 164.171 30.9504 164.032 30.8676C163.787 30.7221 163.371 30.7275 162.816 30.8754C162.545 30.9363 162.242 31.0182 161.907 31.0828C161.538 31.1641 161.158 31.1822 160.784 31.1363C160.571 31.1036 160.364 31.045 160.165 30.9617C159.875 30.8342 159.618 30.6412 159.415 30.3978C159.212 30.1544 159.068 29.8673 158.994 29.5588C158.905 29.1924 158.908 28.8092 159.005 28.4445C159.096 28.115 159.259 27.81 159.484 27.5522C159.839 27.1461 160.292 26.8373 160.801 26.6552C161.18 26.5126 161.578 26.4224 161.982 26.387C162.271 26.3647 162.562 26.3646 162.852 26.3868C163.322 26.4294 163.576 26.5104 163.582 26.6125C163.588 26.7145 163.372 26.8489 162.912 26.9721C162.336 27.1276 161.778 27.3451 161.248 27.6208C160.943 27.7974 160.678 28.0354 160.47 28.3196C160.377 28.4412 160.317 28.5843 160.294 28.7356C160.272 28.887 160.288 29.0415 160.342 29.1848C160.385 29.3175 160.465 29.435 160.573 29.5231C160.621 29.5633 160.678 29.5927 160.738 29.6094C160.812 29.6361 160.888 29.6552 160.966 29.6663C161.483 29.6489 161.994 29.5583 162.486 29.3973C162.842 29.3125 163.206 29.2674 163.572 29.2627C163.779 29.27 163.984 29.2986 164.185 29.3481C164.397 29.3989 164.599 29.4843 164.783 29.6008C165.127 29.8065 165.415 30.0955 165.619 30.4413C165.823 30.7872 165.936 31.1787 165.949 31.58C165.954 31.9225 165.891 32.2626 165.762 32.5802C165.634 32.8978 165.443 33.1864 165.201 33.429C164.831 33.8038 164.386 34.0962 163.895 34.287C163.238 34.5304 162.535 34.6244 161.837 34.5622C161.354 34.5075 161.092 34.4078 161.093 34.3118Z" fill="#2B7E4C"/>
<path d="M164.899 34.9387C164.705 35.0078 163.719 32.9348 162.705 30.2938C161.691 27.6528 160.984 25.429 161.229 25.3569C161.474 25.2848 162.41 27.3608 163.43 29.995C164.449 32.6292 165.069 34.8839 164.899 34.9387Z" fill="#2B7E4C"/>
<path d="M163.733 35.109C163.545 35.1841 162.634 33.2987 161.718 30.9016C160.802 28.5044 160.197 26.5049 160.397 26.429C160.598 26.3532 161.496 28.2394 162.412 30.6365C163.329 33.0336 163.909 35.0602 163.733 35.109Z" fill="#2B7E4C"/>
<g opacity="0.5">
<path d="M147.67 41L142.91 29.1081L142.994 29.0135C146.873 24.2658 156.088 23.4717 162.181 22.9388C163.232 22.8575 164.219 22.7672 165.077 22.6717C170.761 22.0286 173.733 16.6561 173.715 16.1323L174.143 16.0047L179.484 28.739L179.388 28.8471C176.911 31.513 173.906 33.6338 170.564 35.0742C167.222 36.5147 163.617 37.2432 159.978 37.2134C154.977 37.0609 147.995 40.8656 147.927 40.9016L147.67 41ZM143.445 29.1725L147.889 40.3726C149.15 39.7157 155.277 36.6144 159.951 36.7542C163.505 36.7899 167.028 36.0899 170.299 34.6982C173.569 33.3066 176.516 31.2535 178.955 28.6679L173.958 16.7708C173.773 17.1464 173.563 17.5095 173.331 17.8575C172.583 18.9577 169.79 22.6044 165.111 23.1369C164.259 23.2257 163.259 23.3167 162.202 23.4048C156.247 23.9039 147.231 24.6798 143.445 29.1725Z" fill="#FAFAFA"/>
</g>
<path d="M968.309 264.563C968.309 264.563 963.27 271.497 953.186 269.821C946.883 268.773 934.505 268.548 933.012 273.203L935.29 287.124C940.706 285.72 946.363 285.516 951.866 286.525C960.152 288.265 971.87 282.098 971.87 282.098L968.309 264.563Z" fill="#2B7E4C"/>
<path d="M952.021 284.504C951.057 284.451 950.116 284.19 949.262 283.74C948.407 283.29 947.66 282.661 947.071 281.896C946.482 281.131 946.065 280.248 945.848 279.308C945.632 278.367 945.62 277.39 945.815 276.445C946.647 273.04 951.638 271.338 955.043 272.169C955.854 272.365 956.619 272.72 957.293 273.214C957.966 273.707 958.536 274.328 958.968 275.043C959.4 275.757 959.686 276.55 959.811 277.375C959.935 278.201 959.895 279.043 959.692 279.853C958.876 283.279 955.519 284.735 952.021 284.504Z" fill="#F5F5F5"/>
<path d="M950.946 282.052C950.965 281.938 951.211 281.862 951.677 281.862C952.276 281.839 952.869 281.747 953.446 281.586C953.796 281.482 954.12 281.307 954.399 281.071C954.668 280.862 954.848 280.559 954.903 280.222C954.919 280.061 954.898 279.898 954.841 279.746C954.784 279.594 954.694 279.457 954.576 279.345C954.369 279.149 953.963 279.062 953.389 279.083C953.111 279.082 952.798 279.095 952.456 279.084C952.079 279.081 951.705 279.015 951.349 278.887C951.149 278.808 950.96 278.704 950.785 278.579C950.53 278.391 950.323 278.145 950.179 277.863C950.035 277.58 949.958 277.269 949.955 276.951C949.948 276.574 950.037 276.201 950.213 275.867C950.374 275.566 950.601 275.305 950.877 275.104C951.314 274.786 951.824 274.586 952.36 274.521C952.762 274.466 953.169 274.466 953.571 274.522C953.859 274.564 954.142 274.629 954.42 274.714C954.868 274.86 955.099 274.996 955.082 275.097C955.065 275.197 954.825 275.28 954.349 275.299C953.752 275.322 953.16 275.411 952.582 275.562C952.246 275.666 951.935 275.84 951.669 276.071C951.551 276.169 951.46 276.295 951.405 276.437C951.349 276.58 951.331 276.734 951.352 276.886C951.364 277.025 951.416 277.157 951.502 277.267C951.54 277.317 951.589 277.358 951.644 277.388C951.71 277.43 951.78 277.466 951.853 277.494C952.361 277.591 952.88 277.617 953.395 277.569C953.761 277.565 954.126 277.602 954.484 277.679C954.684 277.732 954.878 277.805 955.063 277.898C955.258 277.994 955.436 278.122 955.589 278.277C955.88 278.554 956.096 278.899 956.218 279.282C956.34 279.664 956.364 280.071 956.288 280.465C956.217 280.801 956.079 281.118 955.883 281.399C955.687 281.68 955.437 281.919 955.148 282.102C954.704 282.386 954.205 282.572 953.684 282.649C952.989 282.741 952.283 282.676 951.617 282.461C951.157 282.3 950.924 282.145 950.946 282.052Z" fill="#2B7E4C"/>
<path d="M954.519 283.507C954.314 283.532 953.812 281.291 953.41 278.491C953.007 275.691 952.811 273.366 953.066 273.35C953.321 273.334 953.773 275.566 954.183 278.361C954.592 281.156 954.696 283.492 954.519 283.507Z" fill="#2B7E4C"/>
<path d="M953.343 283.415C953.144 283.446 952.673 281.406 952.312 278.865C951.951 276.324 951.805 274.24 952.017 274.211C952.229 274.181 952.687 276.22 953.048 278.761C953.41 281.301 953.526 283.406 953.343 283.415Z" fill="#2B7E4C"/>
<g opacity="0.5">
<path d="M936.374 285.594L934.371 272.943L934.474 272.869C939.311 269.101 948.471 270.371 954.531 271.203C955.574 271.357 956.556 271.488 957.415 271.586C963.099 272.22 967.19 267.641 967.288 267.126L967.733 267.096L970.116 280.699L969.998 280.783C966.992 282.832 963.591 284.234 960.012 284.897C956.434 285.559 952.757 285.47 949.216 284.633C944.373 283.375 936.721 285.535 936.646 285.555L936.374 285.594ZM934.879 273.124L936.727 285.031C938.102 284.67 944.765 283.006 949.291 284.18C952.749 285.003 956.339 285.102 959.837 284.471C963.335 283.84 966.664 282.492 969.616 280.512L967.383 267.802C967.119 268.128 966.834 268.435 966.53 268.723C965.557 269.63 962.025 272.566 957.344 272.047C956.494 271.944 955.499 271.811 954.448 271.663C948.531 270.828 939.567 269.584 934.879 273.124Z" fill="#FAFAFA"/>
</g>
<path d="M666.887 279.845C666.887 279.845 660.938 286.016 651.182 282.961C645.085 281.052 632.857 279.117 630.735 283.52L631.065 297.623C636.623 296.981 642.254 297.561 647.565 299.322C655.531 302.192 667.989 297.704 667.989 297.704L666.887 279.845Z" fill="#2B7E4C"/>
<path d="M647.998 297.342C647.051 297.156 646.155 296.768 645.371 296.204C644.587 295.64 643.934 294.914 643.457 294.075C642.979 293.236 642.688 292.303 642.603 291.342C642.519 290.38 642.643 289.411 642.967 288.502C644.261 285.245 649.44 284.249 652.697 285.544C653.474 285.85 654.182 286.307 654.781 286.889C655.38 287.471 655.857 288.165 656.187 288.932C656.516 289.699 656.69 290.524 656.699 291.359C656.708 292.194 656.551 293.022 656.239 293.796C654.957 297.077 651.43 298.055 647.998 297.342Z" fill="#F5F5F5"/>
<path d="M647.272 294.764C647.306 294.655 647.56 294.613 648.022 294.678C648.618 294.738 649.218 294.728 649.812 294.649C650.173 294.594 650.518 294.465 650.827 294.271C651.122 294.101 651.342 293.825 651.444 293.5C651.482 293.342 651.483 293.178 651.448 293.02C651.413 292.861 651.342 292.713 651.241 292.586C651.063 292.363 650.673 292.221 650.102 292.162C649.826 292.123 649.514 292.092 649.178 292.034C648.804 291.979 648.443 291.861 648.109 291.686C647.922 291.58 647.748 291.451 647.592 291.303C647.366 291.081 647.194 290.809 647.091 290.51C646.987 290.21 646.954 289.89 646.995 289.576C647.041 289.202 647.18 288.845 647.401 288.538C647.602 288.262 647.863 288.035 648.164 287.873C648.641 287.62 649.174 287.492 649.713 287.502C650.119 287.503 650.523 287.559 650.913 287.67C651.192 287.751 651.464 287.855 651.727 287.978C652.151 288.185 652.36 288.35 652.329 288.448C652.299 288.546 652.049 288.595 651.575 288.547C650.981 288.488 650.382 288.493 649.789 288.563C649.442 288.62 649.11 288.749 648.814 288.941C648.684 289.021 648.577 289.134 648.502 289.267C648.428 289.401 648.388 289.551 648.388 289.704C648.381 289.843 648.414 289.982 648.484 290.103C648.515 290.157 648.557 290.205 648.608 290.242C648.667 290.293 648.732 290.338 648.8 290.376C649.29 290.543 649.8 290.639 650.317 290.663C650.68 290.71 651.037 290.797 651.38 290.923C651.571 291.003 651.753 291.102 651.923 291.22C652.103 291.342 652.262 291.494 652.392 291.668C652.642 291.982 652.808 292.355 652.876 292.75C652.944 293.146 652.911 293.552 652.781 293.932C652.664 294.254 652.484 294.55 652.251 294.801C652.019 295.052 651.738 295.255 651.426 295.396C650.947 295.615 650.427 295.73 649.9 295.735C649.2 295.729 648.509 295.568 647.879 295.262C647.446 295.04 647.237 294.854 647.272 294.764Z" fill="#2B7E4C"/>
<path d="M650.608 296.7C650.402 296.696 650.215 294.408 650.203 291.579C650.192 288.75 650.319 286.42 650.574 286.439C650.829 286.459 650.968 288.732 650.987 291.556C651.006 294.381 650.786 296.709 650.608 296.7Z" fill="#2B7E4C"/>
<path d="M649.457 296.446C649.255 296.449 649.072 294.363 649.065 291.797C649.059 289.231 649.203 287.147 649.417 287.147C649.631 287.147 649.802 289.229 649.809 291.796C649.815 294.362 649.639 296.463 649.457 296.446Z" fill="#2B7E4C"/>
<g opacity="0.5">
<path d="M632.35 296.258L632.117 283.45L632.229 283.392C637.54 280.328 646.437 282.853 652.323 284.516C653.335 284.813 654.289 285.078 655.126 285.293C660.668 286.708 665.353 282.738 665.521 282.242L665.967 282.274L666.445 296.075L666.317 296.142C663.055 297.757 659.493 298.674 655.858 298.836C652.222 298.997 648.593 298.4 645.201 297.082C640.579 295.166 632.702 296.247 632.625 296.257L632.35 296.258ZM632.594 283.7L632.778 295.749C634.189 295.581 641.018 294.854 645.339 296.643C648.649 297.936 652.192 298.531 655.743 298.39C659.294 298.249 662.778 297.374 665.976 295.821L665.522 282.925C665.216 283.211 664.891 283.476 664.55 283.719C663.461 284.482 659.556 286.902 654.993 285.74C654.164 285.521 653.197 285.252 652.178 284.959C646.433 283.314 637.727 280.842 632.594 283.7Z" fill="#FAFAFA"/>
</g>
<path d="M156.993 279.845C156.993 279.845 151.043 286.016 141.288 282.961C135.191 281.052 122.962 279.117 120.84 283.52L121.17 297.623C126.729 296.981 132.36 297.561 137.67 299.322C145.636 302.192 158.095 297.704 158.095 297.704L156.993 279.845Z" fill="#2B7E4C"/>
<path d="M138.104 297.342C137.156 297.156 136.26 296.768 135.476 296.204C134.693 295.64 134.04 294.914 133.562 294.075C133.084 293.236 132.793 292.303 132.709 291.342C132.624 290.38 132.748 289.411 133.072 288.502C134.367 285.245 139.546 284.249 142.802 285.544C143.579 285.85 144.287 286.307 144.886 286.889C145.485 287.471 145.963 288.165 146.292 288.932C146.621 289.699 146.795 290.524 146.804 291.359C146.813 292.194 146.657 293.022 146.344 293.796C145.062 297.077 141.536 298.055 138.104 297.342Z" fill="#F5F5F5"/>
<path d="M137.377 294.764C137.412 294.655 137.665 294.613 138.127 294.678C138.723 294.738 139.324 294.728 139.917 294.649C140.278 294.594 140.624 294.465 140.933 294.271C141.228 294.101 141.448 293.825 141.549 293.5C141.587 293.342 141.589 293.178 141.553 293.02C141.518 292.861 141.448 292.713 141.347 292.586C141.169 292.363 140.778 292.221 140.207 292.162C139.932 292.123 139.62 292.092 139.283 292.034C138.91 291.979 138.548 291.861 138.214 291.686C138.027 291.58 137.854 291.451 137.698 291.303C137.472 291.081 137.3 290.809 137.196 290.51C137.093 290.21 137.06 289.89 137.101 289.576C137.147 289.202 137.286 288.845 137.506 288.538C137.707 288.262 137.969 288.035 138.27 287.873C138.746 287.62 139.279 287.492 139.819 287.502C140.225 287.503 140.628 287.559 141.018 287.67C141.297 287.751 141.569 287.855 141.832 287.978C142.256 288.185 142.465 288.35 142.435 288.448C142.404 288.546 142.155 288.595 141.681 288.547C141.087 288.488 140.488 288.493 139.895 288.563C139.547 288.62 139.215 288.749 138.92 288.941C138.79 289.021 138.683 289.134 138.608 289.267C138.533 289.401 138.494 289.551 138.493 289.704C138.486 289.843 138.52 289.982 138.589 290.103C138.62 290.157 138.662 290.205 138.713 290.242C138.773 290.293 138.837 290.338 138.906 290.376C139.395 290.543 139.906 290.639 140.422 290.663C140.785 290.71 141.142 290.797 141.486 290.923C141.677 291.003 141.859 291.102 142.029 291.22C142.209 291.342 142.367 291.494 142.498 291.668C142.747 291.982 142.914 292.355 142.981 292.75C143.049 293.146 143.017 293.552 142.887 293.932C142.77 294.254 142.59 294.55 142.357 294.801C142.124 295.052 141.843 295.255 141.531 295.396C141.052 295.615 140.532 295.73 140.006 295.735C139.305 295.729 138.615 295.568 137.984 295.262C137.552 295.04 137.342 294.854 137.377 294.764Z" fill="#2B7E4C"/>
<path d="M140.713 296.7C140.507 296.696 140.32 294.408 140.309 291.579C140.298 288.75 140.425 286.42 140.68 286.439C140.935 286.459 141.073 288.732 141.092 291.556C141.112 294.381 140.891 296.709 140.713 296.7Z" fill="#2B7E4C"/>
<path d="M139.563 296.446C139.361 296.449 139.177 294.363 139.171 291.797C139.164 289.231 139.308 287.147 139.522 287.147C139.737 287.147 139.908 289.229 139.914 291.796C139.921 294.362 139.745 296.463 139.563 296.446Z" fill="#2B7E4C"/>
<g opacity="0.5">
<path d="M122.456 296.258L122.222 283.45L122.334 283.392C127.645 280.328 136.542 282.853 142.429 284.516C143.44 284.813 144.395 285.078 145.231 285.293C150.774 286.708 155.458 282.738 155.627 282.242L156.072 282.274L156.55 296.075L156.422 296.142C153.161 297.757 149.599 298.674 145.963 298.836C142.328 298.997 138.699 298.4 135.307 297.082C130.685 295.166 122.807 296.247 122.731 296.257L122.456 296.258ZM122.699 283.7L122.883 295.749C124.295 295.581 131.123 294.854 135.444 296.643C138.755 297.936 142.297 298.531 145.848 298.39C149.4 298.249 152.884 297.374 156.081 295.821L155.627 282.925C155.321 283.211 154.997 283.476 154.656 283.719C153.566 284.482 149.662 286.902 145.098 285.74C144.27 285.521 143.303 285.252 142.283 284.959C136.538 283.314 127.832 280.842 122.699 283.7Z" fill="#FAFAFA"/>
</g>
<path d="M486.298 255.654C486.298 255.654 483.657 259.739 477.838 259.103C474.226 258.709 467.162 258.937 466.455 261.618L468.143 269.445C471.183 268.49 474.393 268.207 477.553 268.617C482.318 269.368 488.808 265.519 488.808 265.519L486.298 255.654Z" fill="#DA4F30"/>
<g opacity="0.4">
<path d="M477.614 267.476C477.065 267.473 476.522 267.351 476.024 267.12C475.525 266.889 475.082 266.553 474.725 266.136C474.367 265.718 474.104 265.229 473.952 264.701C473.801 264.172 473.764 263.618 473.846 263.074C474.222 261.11 477.033 260.016 478.975 260.374C479.917 260.555 480.748 261.102 481.287 261.896C481.826 262.689 482.028 263.663 481.849 264.605C481.472 266.569 479.612 267.504 477.614 267.476Z" fill="white"/>
</g>
<path d="M476.934 266.107C476.939 266.049 477.091 266.016 477.347 265.984C477.686 265.952 478.02 265.883 478.343 265.776C478.537 265.704 478.714 265.595 478.866 265.455C479.013 265.328 479.107 265.151 479.129 264.959C479.135 264.867 479.119 264.774 479.083 264.689C479.047 264.605 478.992 264.529 478.922 264.469C478.715 264.349 478.472 264.304 478.236 264.344C478.072 264.355 477.895 264.374 477.701 264.377C477.486 264.382 477.272 264.354 477.066 264.295C476.951 264.256 476.842 264.203 476.74 264.139C476.631 264.075 476.534 263.994 476.453 263.898C476.31 263.711 476.224 263.486 476.206 263.251C476.188 263.036 476.227 262.819 476.319 262.623C476.41 262.453 476.536 262.304 476.687 262.185C476.928 261.993 477.212 261.862 477.514 261.804C477.743 261.76 477.978 261.749 478.21 261.77C478.374 261.784 478.537 261.811 478.697 261.852C478.962 261.92 479.095 261.989 479.09 262.046C479.085 262.104 478.935 262.151 478.679 262.183C478.339 262.215 478.004 262.284 477.679 262.387C477.49 262.455 477.318 262.564 477.176 262.707C477.111 262.766 477.061 262.841 477.032 262.924C477.003 263.008 476.995 263.097 477.009 263.185C477.022 263.264 477.056 263.338 477.109 263.398C477.133 263.424 477.161 263.448 477.192 263.468C477.229 263.49 477.269 263.507 477.311 263.518C477.602 263.559 477.899 263.558 478.19 263.515C478.392 263.498 478.595 263.503 478.796 263.53C478.911 263.556 479.023 263.592 479.131 263.638C479.245 263.689 479.351 263.757 479.444 263.84C479.617 263.99 479.748 264.181 479.829 264.395C479.909 264.609 479.935 264.839 479.904 265.066C479.873 265.258 479.804 265.442 479.701 265.607C479.597 265.772 479.462 265.914 479.302 266.025C479.062 266.203 478.784 266.325 478.49 266.381C478.094 266.45 477.688 266.432 477.299 266.327C477.057 266.247 476.926 266.168 476.934 266.107Z" fill="#DA4F30"/>
<path d="M478.984 266.839C478.868 266.859 478.517 265.6 478.201 264.018C477.886 262.437 477.719 261.141 477.841 261.114C477.963 261.087 478.308 262.353 478.624 263.935C478.939 265.516 479.11 266.821 478.984 266.839Z" fill="#DA4F30"/>
<path d="M478.319 266.832C478.204 266.859 477.876 265.712 477.59 264.279C477.304 262.846 477.16 261.65 477.287 261.639C477.413 261.628 477.727 262.763 478.013 264.195C478.299 265.628 478.438 266.809 478.319 266.832Z" fill="#DA4F30"/>
<g opacity="0.5">
<path d="M468.746 268.555L467.236 261.421L467.285 261.363C469.928 259.078 475.173 259.529 478.646 259.831C479.23 259.871 479.802 259.926 480.287 259.974C483.542 260.168 485.733 257.442 485.751 257.148L486.001 257.116L487.765 264.779L487.716 264.837C486.063 266.091 484.166 266.987 482.146 267.467C480.127 267.947 478.029 268 475.988 267.623C473.197 267.047 468.922 268.486 468.867 268.515L468.746 268.555ZM467.516 261.515L468.939 268.223C469.71 267.968 473.45 266.826 476.059 267.362C478.052 267.729 480.099 267.68 482.072 267.217C484.044 266.754 485.9 265.888 487.521 264.672L485.88 257.509C485.742 257.704 485.589 257.887 485.421 258.057C484.897 258.606 482.969 260.379 480.295 260.215C479.805 260.187 479.236 260.136 478.649 260.07C475.226 259.796 470.096 259.356 467.516 261.515Z" fill="white"/>
</g>
<path d="M274.13 255.654C274.13 255.654 271.489 259.739 265.67 259.103C262.058 258.709 254.994 258.937 254.287 261.618L255.975 269.445C259.015 268.49 262.226 268.207 265.385 268.617C270.15 269.368 276.64 265.519 276.64 265.519L274.13 255.654Z" fill="#DA4F30"/>
<g opacity="0.4">
<path d="M265.446 267.476C264.897 267.473 264.354 267.351 263.856 267.12C263.357 266.889 262.914 266.553 262.557 266.136C262.199 265.718 261.936 265.229 261.784 264.701C261.633 264.172 261.596 263.618 261.678 263.074C262.054 261.11 264.865 260.016 266.807 260.374C267.749 260.555 268.58 261.102 269.119 261.896C269.658 262.689 269.86 263.663 269.681 264.605C269.304 266.569 267.444 267.504 265.446 267.476Z" fill="white"/>
</g>
<path d="M264.766 266.107C264.771 266.049 264.923 266.016 265.179 265.984C265.518 265.952 265.852 265.883 266.175 265.776C266.369 265.704 266.546 265.595 266.698 265.455C266.845 265.328 266.939 265.151 266.961 264.959C266.967 264.867 266.951 264.774 266.915 264.689C266.879 264.605 266.824 264.529 266.754 264.469C266.547 264.349 266.304 264.304 266.068 264.344C265.904 264.355 265.728 264.374 265.533 264.377C265.318 264.382 265.104 264.354 264.898 264.295C264.783 264.256 264.674 264.203 264.572 264.139C264.463 264.075 264.366 263.994 264.285 263.898C264.142 263.711 264.056 263.486 264.038 263.251C264.02 263.036 264.059 262.819 264.151 262.623C264.242 262.453 264.368 262.304 264.519 262.185C264.76 261.993 265.044 261.862 265.346 261.804C265.575 261.76 265.81 261.749 266.042 261.77C266.206 261.784 266.369 261.811 266.529 261.852C266.794 261.92 266.928 261.989 266.922 262.046C266.917 262.104 266.767 262.151 266.511 262.183C266.171 262.215 265.836 262.284 265.511 262.387C265.322 262.455 265.15 262.564 265.008 262.707C264.943 262.766 264.893 262.841 264.864 262.924C264.835 263.008 264.827 263.097 264.841 263.185C264.854 263.264 264.888 263.338 264.941 263.398C264.965 263.424 264.993 263.448 265.024 263.468C265.061 263.49 265.101 263.507 265.143 263.518C265.434 263.559 265.731 263.558 266.022 263.515C266.224 263.498 266.427 263.503 266.628 263.53C266.743 263.556 266.855 263.592 266.963 263.638C267.077 263.689 267.183 263.757 267.277 263.84C267.449 263.99 267.581 264.181 267.661 264.395C267.741 264.609 267.767 264.839 267.736 265.066C267.705 265.258 267.636 265.442 267.533 265.607C267.429 265.772 267.294 265.914 267.134 266.025C266.894 266.203 266.616 266.325 266.322 266.381C265.926 266.45 265.52 266.432 265.132 266.327C264.889 266.247 264.758 266.168 264.766 266.107Z" fill="#DA4F30"/>
<path d="M266.816 266.839C266.7 266.859 266.349 265.6 266.033 264.018C265.718 262.437 265.551 261.141 265.673 261.114C265.795 261.087 266.14 262.353 266.456 263.935C266.772 265.516 266.942 266.821 266.816 266.839Z" fill="#DA4F30"/>
<path d="M266.151 266.832C266.036 266.859 265.708 265.712 265.422 264.279C265.136 262.846 264.992 261.65 265.119 261.639C265.245 261.628 265.559 262.763 265.845 264.195C266.131 265.628 266.27 266.809 266.151 266.832Z" fill="#DA4F30"/>
<g opacity="0.5">
<path d="M256.578 268.555L255.068 261.421L255.117 261.363C257.76 259.078 263.005 259.529 266.478 259.831C267.062 259.871 267.635 259.926 268.119 259.974C271.374 260.168 273.565 257.442 273.583 257.148L273.833 257.116L275.597 264.779L275.549 264.837C273.895 266.091 271.998 266.987 269.978 267.467C267.959 267.947 265.861 268 263.82 267.623C261.029 267.047 256.754 268.486 256.699 268.515L256.578 268.555ZM255.348 261.515L256.771 268.223C257.542 267.968 261.282 266.826 263.891 267.362C265.884 267.729 267.931 267.68 269.904 267.217C271.876 266.754 273.732 265.888 275.353 264.672L273.712 257.509C273.574 257.704 273.421 257.887 273.253 258.057C272.729 258.606 270.801 260.379 268.127 260.215C267.637 260.187 267.068 260.136 266.481 260.07C263.059 259.796 257.928 259.356 255.348 261.515Z" fill="white"/>
</g>
<path d="M1182.53 262C1182.53 262 1183.13 266.827 1178.27 270.083C1175.25 272.104 1169.99 276.822 1171.17 279.33L1177.5 284.237C1179.21 281.551 1181.49 279.269 1184.17 277.55C1188.3 275.061 1190.8 267.939 1190.8 267.939L1182.53 262Z" fill="#DA4F30"/>
<g opacity="0.4">
<path d="M1183.48 276.637C1183.06 276.988 1182.57 277.244 1182.04 277.388C1181.51 277.531 1180.95 277.559 1180.41 277.469C1179.87 277.38 1179.35 277.174 1178.9 276.867C1178.44 276.56 1178.05 276.159 1177.77 275.691C1176.79 273.944 1178.24 271.299 1179.96 270.324C1180.8 269.857 1181.78 269.741 1182.71 270.002C1183.63 270.263 1184.41 270.879 1184.88 271.715C1185.86 273.462 1185.03 275.374 1183.48 276.637Z" fill="white"/>
</g>
<path d="M1182.08 276.027C1182.05 275.979 1182.14 275.856 1182.32 275.667C1182.56 275.425 1182.77 275.157 1182.95 274.867C1183.05 274.688 1183.11 274.49 1183.14 274.285C1183.17 274.094 1183.13 273.898 1183.02 273.736C1182.97 273.662 1182.9 273.601 1182.81 273.559C1182.73 273.518 1182.64 273.495 1182.55 273.495C1182.31 273.535 1182.1 273.658 1181.94 273.84C1181.83 273.954 1181.7 274.082 1181.56 274.209C1181.39 274.351 1181.21 274.467 1181.02 274.555C1180.9 274.599 1180.79 274.629 1180.67 274.645C1180.54 274.666 1180.42 274.666 1180.29 274.645C1180.06 274.594 1179.85 274.477 1179.69 274.309C1179.53 274.155 1179.42 273.964 1179.37 273.755C1179.33 273.566 1179.33 273.371 1179.37 273.183C1179.43 272.881 1179.56 272.598 1179.76 272.359C1179.91 272.178 1180.08 272.019 1180.27 271.886C1180.4 271.791 1180.55 271.707 1180.69 271.635C1180.94 271.517 1181.09 271.484 1181.12 271.531C1181.15 271.578 1181.07 271.711 1180.89 271.9C1180.65 272.143 1180.44 272.411 1180.26 272.7C1180.16 272.873 1180.1 273.067 1180.08 273.268C1180.07 273.355 1180.08 273.445 1180.11 273.527C1180.14 273.61 1180.19 273.683 1180.26 273.741C1180.32 273.794 1180.39 273.828 1180.47 273.84C1180.51 273.845 1180.54 273.845 1180.58 273.84C1180.62 273.833 1180.67 273.821 1180.7 273.802C1180.95 273.646 1181.18 273.455 1181.38 273.235C1181.52 273.092 1181.68 272.965 1181.85 272.856C1181.95 272.802 1182.06 272.758 1182.18 272.724C1182.3 272.689 1182.42 272.673 1182.55 272.676C1182.77 272.681 1183 272.742 1183.2 272.854C1183.4 272.967 1183.56 273.127 1183.69 273.32C1183.79 273.487 1183.85 273.672 1183.88 273.865C1183.9 274.057 1183.89 274.253 1183.84 274.441C1183.77 274.733 1183.64 275.004 1183.45 275.236C1183.19 275.544 1182.87 275.791 1182.5 275.96C1182.27 276.055 1182.11 276.079 1182.08 276.027Z" fill="#DA4F30"/>
<path d="M1184.12 275.269C1184.05 275.359 1182.97 274.621 1181.71 273.613C1180.45 272.605 1179.49 271.72 1179.56 271.621C1179.64 271.521 1180.72 272.269 1181.98 273.277C1183.24 274.285 1184.21 275.175 1184.12 275.269Z" fill="#DA4F30"/>
<path d="M1183.61 275.691C1183.54 275.785 1182.55 275.118 1181.41 274.205C1180.27 273.291 1179.39 272.468 1179.48 272.378C1179.57 272.288 1180.54 272.955 1181.68 273.869C1182.82 274.782 1183.69 275.596 1183.61 275.691Z" fill="#DA4F30"/>
<g opacity="0.5">
<path d="M1177.39 283.168L1171.64 278.677V278.601C1172.2 275.151 1176.5 272.122 1179.36 270.121C1179.83 269.775 1180.3 269.449 1180.7 269.174C1183.32 267.229 1183.25 263.732 1183.07 263.495L1183.24 263.311L1189.52 268.043V268.119C1189.06 270.143 1188.19 272.05 1186.95 273.716C1185.71 275.382 1184.14 276.772 1182.33 277.797C1179.82 279.15 1177.48 283.002 1177.45 283.059L1177.39 283.168ZM1171.92 278.568L1177.32 282.789C1177.75 282.098 1179.88 278.819 1182.22 277.55C1183.98 276.55 1185.52 275.196 1186.73 273.573C1187.94 271.949 1188.81 270.092 1189.27 268.119L1183.4 263.689C1183.42 263.927 1183.42 264.166 1183.4 264.404C1183.36 265.161 1183.02 267.759 1180.87 269.354C1180.47 269.647 1180 269.974 1179.51 270.301C1176.72 272.293 1172.5 275.255 1171.92 278.568Z" fill="white"/>
</g>
<path d="M810.92 37.0363C810.92 37.0363 807.326 40.3156 801.86 38.22C798.468 36.9195 791.578 35.3427 790.212 37.756L789.853 45.7551C793.036 45.6045 796.213 46.1481 799.165 47.3482C803.581 49.2869 810.837 47.2155 810.837 47.2155L810.92 37.0363Z" fill="#DA4F30"/>
<g opacity="0.4">
<path d="M799.514 46.2605C798.984 46.1176 798.49 45.8623 798.067 45.5118C797.643 45.1614 797.3 44.724 797.061 44.2293C796.821 43.7347 796.691 43.1943 796.679 42.6449C796.667 42.0955 796.773 41.5498 796.99 41.045C797.854 39.2413 800.85 38.8982 802.637 39.739C803.502 40.1535 804.167 40.8941 804.486 41.7983C804.805 42.7024 804.753 43.6963 804.34 44.5618C803.476 46.3654 801.439 46.7957 799.514 46.2605Z" fill="white"/>
</g>
<path d="M799.205 44.7631C799.224 44.7088 799.379 44.7151 799.635 44.7489C799.971 44.8051 800.312 44.8228 800.651 44.8017C800.857 44.7812 801.056 44.721 801.239 44.6244C801.413 44.5393 801.549 44.3917 801.619 44.2111C801.648 44.1236 801.656 44.0305 801.643 43.9392C801.63 43.8479 801.596 43.761 801.543 43.6853C801.374 43.5158 801.15 43.4112 800.911 43.3898C800.75 43.3587 800.575 43.3319 800.386 43.2858C800.177 43.2353 799.977 43.1539 799.793 43.0444C799.692 42.9775 799.599 42.8989 799.517 42.8102C799.428 42.7215 799.355 42.6182 799.302 42.5048C799.21 42.2875 799.184 42.0482 799.227 41.8162C799.264 41.6031 799.357 41.4037 799.496 41.2378C799.627 41.0965 799.787 40.984 799.964 40.9075C800.245 40.7827 800.553 40.7284 800.86 40.7495C801.093 40.7655 801.322 40.8141 801.541 40.894C801.697 40.949 801.848 41.017 801.992 41.0972C802.231 41.2299 802.342 41.3306 802.323 41.385C802.303 41.4394 802.146 41.4462 801.89 41.4124C801.554 41.3573 801.212 41.3384 800.871 41.3558C800.671 41.3731 800.477 41.4348 800.304 41.5365C800.225 41.5773 800.158 41.6371 800.109 41.7105C800.059 41.7838 800.029 41.8683 800.021 41.9563C800.012 42.0358 800.027 42.116 800.062 42.1876C800.08 42.2198 800.101 42.2496 800.125 42.2765C800.155 42.3073 800.19 42.3337 800.227 42.3552C800.499 42.4694 800.786 42.5439 801.079 42.5765C801.278 42.6116 801.473 42.668 801.661 42.7447C801.765 42.7991 801.864 42.8628 801.957 42.935C802.055 43.0131 802.14 43.1056 802.209 43.2092C802.337 43.3985 802.416 43.6166 802.439 43.844C802.462 44.0713 802.429 44.3009 802.341 44.512C802.263 44.69 802.149 44.8503 802.007 44.9834C801.865 45.1165 801.698 45.2196 801.515 45.2866C801.237 45.3979 800.938 45.445 800.639 45.4244C800.239 45.3905 799.85 45.2692 799.502 45.069C799.288 44.9303 799.181 44.8202 799.205 44.7631Z" fill="#DA4F30"/>
<path d="M800.999 45.9927C800.882 45.9827 800.863 44.6755 800.96 43.0658C801.057 41.4561 801.226 40.1609 801.351 40.1654C801.475 40.1699 801.487 41.4826 801.39 43.0923C801.293 44.702 801.126 46.0077 800.999 45.9927Z" fill="#DA4F30"/>
<path d="M800.36 45.8176C800.242 45.8142 800.216 44.6214 800.304 43.163C800.392 41.7045 800.557 40.5105 800.683 40.5321C800.808 40.5536 800.822 41.731 800.734 43.1895C800.646 44.6479 800.481 45.8249 800.36 45.8176Z" fill="#DA4F30"/>
<g opacity="0.5">
<path d="M790.663 45.0481L791.017 37.7646L791.079 37.721C794.216 36.1831 799.174 37.9536 802.456 39.1298C803.011 39.317 803.55 39.5152 804.007 39.6855C807.105 40.7011 809.918 38.6219 810.01 38.3423L810.259 38.375L810.016 46.2345L809.955 46.2782C808.036 47.071 805.973 47.4548 803.898 47.405C801.823 47.3552 799.781 46.873 797.903 45.9891C795.35 44.7212 790.85 45.026 790.79 45.0394L790.663 45.0481ZM791.264 37.926L790.934 44.7756C791.744 44.7249 795.651 44.5726 798.038 45.7544C799.872 46.6168 801.864 47.0901 803.89 47.1443C805.915 47.1985 807.93 46.8326 809.807 46.0695L810.043 38.7249C809.86 38.8781 809.665 39.016 809.459 39.1371C808.813 39.5352 806.497 40.7595 803.953 39.9206C803.486 39.769 802.949 39.5747 802.399 39.3611C799.158 38.2258 794.309 36.4944 791.264 37.926Z" fill="white"/>
</g>
<path d="M519.759 102.089C519.759 102.089 517.408 106.348 511.559 106.117C507.929 105.974 500.897 106.691 500.378 109.415L502.605 117.107C505.571 115.943 508.754 115.438 511.935 115.628C516.74 116.047 522.948 111.756 522.948 111.756L519.759 102.089Z" fill="#DA4F30"/>
<g opacity="0.4">
<path d="M511.918 114.485C511.37 114.52 510.82 114.437 510.307 114.24C509.793 114.044 509.328 113.74 508.943 113.349C508.557 112.957 508.26 112.487 508.072 111.97C507.884 111.454 507.81 110.903 507.853 110.355C508.093 108.37 510.821 107.083 512.783 107.306C513.735 107.421 514.602 107.91 515.195 108.664C515.787 109.417 516.056 110.376 515.943 111.328C515.704 113.313 513.913 114.374 511.918 114.485Z" fill="white"/>
</g>
<path d="M511.144 113.166C511.145 113.109 511.294 113.065 511.547 113.015C511.883 112.96 512.212 112.868 512.527 112.739C512.715 112.653 512.884 112.532 513.026 112.382C513.164 112.246 513.245 112.063 513.254 111.869C513.253 111.777 513.231 111.686 513.189 111.604C513.148 111.521 513.087 111.45 513.013 111.395C512.798 111.289 512.553 111.262 512.32 111.318C512.157 111.34 511.983 111.371 511.789 111.388C511.575 111.407 511.36 111.394 511.149 111.35C511.033 111.319 510.92 111.274 510.813 111.217C510.701 111.161 510.599 111.087 510.511 110.996C510.355 110.82 510.253 110.602 510.219 110.368C510.186 110.154 510.21 109.936 510.289 109.734C510.368 109.558 510.483 109.4 510.626 109.271C510.852 109.063 511.126 108.913 511.424 108.834C511.65 108.774 511.883 108.747 512.116 108.752C512.281 108.754 512.445 108.77 512.608 108.8C512.876 108.849 513.014 108.909 513.013 108.966C513.012 109.024 512.865 109.081 512.612 109.131C512.276 109.187 511.946 109.279 511.629 109.405C511.445 109.485 511.281 109.606 511.15 109.758C511.088 109.822 511.044 109.9 511.021 109.985C510.998 110.07 510.996 110.16 511.016 110.246C511.034 110.324 511.073 110.396 511.13 110.452C511.157 110.477 511.186 110.498 511.218 110.516C511.257 110.535 511.298 110.549 511.34 110.558C511.634 110.579 511.929 110.557 512.217 110.494C512.418 110.463 512.621 110.454 512.823 110.467C512.939 110.485 513.053 110.513 513.165 110.552C513.282 110.595 513.392 110.655 513.491 110.731C513.673 110.869 513.818 111.05 513.913 111.258C514.008 111.466 514.049 111.694 514.034 111.922C514.017 112.116 513.961 112.304 513.869 112.476C513.777 112.647 513.652 112.799 513.5 112.921C513.273 113.115 513.004 113.256 512.715 113.332C512.325 113.429 511.918 113.439 511.524 113.361C511.277 113.298 511.14 113.228 511.144 113.166Z" fill="#DA4F30"/>
<path d="M513.238 113.755C513.124 113.783 512.686 112.551 512.262 110.995C511.837 109.44 511.582 108.159 511.701 108.123C511.821 108.087 512.253 109.327 512.678 110.882C513.102 112.438 513.363 113.729 513.238 113.755Z" fill="#DA4F30"/>
<path d="M512.576 113.794C512.463 113.829 512.056 112.707 511.672 111.298C511.287 109.888 511.06 108.704 511.186 108.685C511.311 108.665 511.703 109.775 512.088 111.185C512.472 112.595 512.693 113.762 512.576 113.794Z" fill="#DA4F30"/>
<g opacity="0.5">
<path d="M503.146 116.177L501.144 109.165L501.189 109.104C503.667 106.64 508.931 106.726 512.416 106.787C513.002 106.787 513.577 106.801 514.063 106.816C517.324 106.784 519.321 103.912 519.319 103.618L519.565 103.569L521.857 111.09L521.812 111.152C520.25 112.518 518.419 113.543 516.438 114.162C514.456 114.781 512.367 114.979 510.305 114.745C507.481 114.363 503.316 116.096 503.263 116.128L503.146 116.177ZM501.43 109.238L503.315 115.832C504.066 115.524 507.718 114.126 510.358 114.479C512.371 114.708 514.41 114.517 516.346 113.918C518.282 113.319 520.073 112.326 521.606 111.001L519.472 103.969C519.348 104.173 519.207 104.366 519.052 104.547C518.568 105.131 516.767 107.034 514.088 107.056C513.597 107.062 513.026 107.05 512.436 107.025C509.003 106.989 503.854 106.906 501.43 109.238Z" fill="white"/>
</g>
<path d="M1124.51 23.8877C1124.51 23.8877 1125.97 28.5285 1121.77 32.6019C1119.16 35.13 1114.83 40.7132 1116.44 42.9693L1123.54 46.6661C1124.75 43.7165 1126.58 41.0644 1128.91 38.8937C1132.53 35.7058 1133.71 28.2524 1133.71 28.2524L1124.51 23.8877Z" fill="#DA4F30"/>
<g opacity="0.4">
<path d="M1128.07 38.1178C1127.72 38.5388 1127.28 38.8789 1126.78 39.1151C1126.29 39.3513 1125.75 39.478 1125.2 39.4866C1124.65 39.4953 1124.1 39.3857 1123.6 39.1652C1123.1 38.9448 1122.65 38.6187 1122.28 38.209C1121.01 36.6653 1121.96 33.8036 1123.48 32.5372C1124.22 31.9279 1125.17 31.6371 1126.12 31.7287C1127.08 31.8203 1127.96 32.2868 1128.57 33.0259C1129.84 34.5696 1129.37 36.5979 1128.07 38.1178Z" fill="white"/>
</g>
<path d="M1126.58 37.768C1126.54 37.7274 1126.61 37.5894 1126.75 37.3718C1126.94 37.0911 1127.1 36.7893 1127.23 36.4724C1127.3 36.2775 1127.33 36.0712 1127.31 35.865C1127.31 35.6712 1127.23 35.4859 1127.1 35.3461C1127.03 35.2827 1126.95 35.2359 1126.86 35.2093C1126.78 35.1828 1126.68 35.1773 1126.59 35.1932C1126.37 35.2754 1126.18 35.4341 1126.06 35.6415C1125.96 35.7744 1125.86 35.9221 1125.74 36.074C1125.61 36.242 1125.45 36.3891 1125.27 36.5104C1125.17 36.5736 1125.06 36.6244 1124.94 36.6615C1124.83 36.7047 1124.7 36.7273 1124.58 36.7284C1124.34 36.7197 1124.11 36.6425 1123.92 36.5061C1123.74 36.3822 1123.6 36.2139 1123.51 36.0181C1123.44 35.8394 1123.4 35.6476 1123.41 35.4547C1123.41 35.1468 1123.49 34.8449 1123.64 34.5751C1123.75 34.3708 1123.89 34.1833 1124.06 34.0181C1124.17 33.9002 1124.3 33.7922 1124.43 33.6952C1124.65 33.5348 1124.79 33.4759 1124.83 33.5166C1124.87 33.5572 1124.81 33.7028 1124.68 33.9204C1124.48 34.2025 1124.32 34.5043 1124.2 34.8207C1124.13 35.0096 1124.1 35.2114 1124.12 35.4115C1124.12 35.4999 1124.15 35.5858 1124.2 35.6615C1124.24 35.7372 1124.31 35.8003 1124.38 35.845C1124.45 35.886 1124.53 35.9067 1124.61 35.9047C1124.65 35.9027 1124.68 35.8962 1124.72 35.8852C1124.76 35.8708 1124.8 35.8508 1124.83 35.826C1125.05 35.6276 1125.24 35.399 1125.39 35.1471C1125.51 34.9809 1125.64 34.8277 1125.79 34.6899C1125.88 34.6182 1125.98 34.555 1126.09 34.5012C1126.2 34.4459 1126.32 34.408 1126.44 34.3886C1126.67 34.3522 1126.9 34.3724 1127.11 34.4474C1127.33 34.5223 1127.52 34.6496 1127.68 34.8178C1127.81 34.9641 1127.9 35.1348 1127.96 35.3196C1128.02 35.5043 1128.05 35.6995 1128.03 35.8934C1128.02 36.1923 1127.93 36.4837 1127.79 36.7459C1127.59 37.0948 1127.31 37.3958 1126.99 37.6275C1126.77 37.7629 1126.62 37.8133 1126.58 37.768Z" fill="#DA4F30"/>
<path d="M1128.45 36.6582C1128.4 36.7602 1127.2 36.2269 1125.78 35.4603C1124.36 34.6936 1123.26 33.9948 1123.32 33.8835C1123.37 33.7721 1124.57 34.3148 1125.99 35.0814C1127.41 35.848 1128.52 36.5499 1128.45 36.6582Z" fill="#DA4F30"/>
<path d="M1128.03 37.1641C1127.97 37.2699 1126.88 36.7903 1125.6 36.0957C1124.31 35.401 1123.3 34.7483 1123.37 34.6438C1123.44 34.5392 1124.52 35.0222 1125.8 35.7169C1127.09 36.4115 1128.08 37.0575 1128.03 37.1641Z" fill="#DA4F30"/>
<g opacity="0.5">
<path d="M1123.24 45.6335L1116.79 42.2424L1116.77 42.1679C1116.7 38.6746 1120.4 34.9246 1122.85 32.4447C1123.25 32.0202 1123.66 31.6143 1124 31.2723C1126.23 28.8907 1125.53 25.4634 1125.32 25.2619L1125.45 25.0499L1132.48 28.5828L1132.49 28.6573C1132.4 30.7311 1131.88 32.7635 1130.96 34.6244C1130.04 36.4852 1128.74 38.1337 1127.15 39.4645C1124.92 41.2447 1123.3 45.4545 1123.29 45.5146L1123.24 45.6335ZM1117.04 42.0862L1123.11 45.2729C1123.41 44.5169 1124.91 40.9094 1126.99 39.2427C1128.55 37.9434 1129.82 36.3361 1130.72 34.5222C1131.62 32.7082 1132.14 30.7268 1132.24 28.703L1125.68 25.3936C1125.74 25.624 1125.78 25.8592 1125.8 26.0966C1125.89 26.8501 1126.03 29.4663 1124.19 31.4205C1123.86 31.7794 1123.46 32.1845 1123.03 32.5937C1120.64 35.0541 1117.02 38.7221 1117.04 42.0862Z" fill="white"/>
</g>
</g>
<defs>
<clipPath id="clip0_86_3805">
<rect width="1275" height="322.226" fill="white"/>
</clipPath>
</defs>
</svg>
