<svg width="1276" height="276" viewBox="0 0 1276 276" fill="none" xmlns="http://www.w3.org/2000/svg">
<path d="M1276 0H0V276H1276V0Z" fill="white"/>
<rect x="584.887" y="85.8887" width="105.224" height="107.512" fill="#D9D9D9" stroke="black" stroke-width="6.86245"/>
<path fill-rule="evenodd" clip-rule="evenodd" d="M608.515 60.9002H598.274C597.976 53.1726 591.734 47.001 584.077 47.001C576.421 47.001 570.178 53.1726 569.88 60.9002H559.64V70.1775C552.056 70.4815 546 76.842 546 84.644C546 92.4459 552.056 98.8064 559.64 99.1104V107.229H569.88C569.873 107.421 569.869 107.615 569.869 107.809C569.869 115.805 576.23 122.287 584.077 122.287C591.924 122.287 598.285 115.805 598.285 107.809C598.285 107.615 598.282 107.421 598.274 107.229H608.515V99.1104C608.704 99.118 608.893 99.1218 609.084 99.1218C616.931 99.1218 623.292 92.6398 623.292 84.644C623.292 76.6481 616.931 70.1661 609.084 70.1661C608.893 70.1661 608.704 70.1699 608.515 70.1775V60.9002Z" fill="#DC502F"/>
<path d="M598.274 60.9002L594.845 61.0325L594.973 64.3314H598.274V60.9002ZM608.515 60.9002H611.947V57.469H608.515V60.9002ZM569.88 60.9002V64.3314H573.182L573.309 61.0325L569.88 60.9002ZM559.64 60.9002V57.469H556.208V60.9002H559.64ZM559.64 70.1775L559.777 73.606L563.071 73.4739V70.1775H559.64ZM559.64 99.1104H563.071V95.814L559.777 95.6819L559.64 99.1104ZM559.64 107.229H556.208V110.66H559.64V107.229ZM569.88 107.229L573.309 107.362L573.447 103.798H569.88V107.229ZM598.274 107.229V103.798H594.708L594.845 107.362L598.274 107.229ZM608.515 107.229V110.66H611.947V107.229H608.515ZM608.515 99.1104L608.653 95.6819L605.084 95.5389V99.1104H608.515ZM608.515 70.1775H605.084V73.7491L608.653 73.606L608.515 70.1775ZM598.274 64.3314H608.515V57.469H598.274V64.3314ZM584.077 50.4322C589.826 50.4322 594.616 55.082 594.845 61.0325L601.703 60.768C601.336 51.2631 593.642 43.5697 584.077 43.5697V50.4322ZM573.309 61.0325C573.539 55.082 578.328 50.4322 584.077 50.4322V43.5697C574.513 43.5697 566.818 51.2631 566.452 60.768L573.309 61.0325ZM559.64 64.3314H569.88V57.469H559.64V64.3314ZM563.071 70.1775V60.9002H556.208V70.1775H563.071ZM549.431 84.644C549.431 78.6334 554.083 73.8342 559.777 73.606L559.502 66.749C550.029 67.1288 542.569 75.0506 542.569 84.644H549.431ZM559.777 95.6819C554.083 95.4537 549.431 90.6545 549.431 84.644H542.569C542.569 94.2373 550.029 102.159 559.502 102.539L559.777 95.6819ZM563.071 107.229V99.1104H556.208V107.229H563.071ZM569.88 103.798H559.64V110.66H569.88V103.798ZM573.3 107.809C573.3 107.659 573.303 107.51 573.309 107.362L566.452 107.097C566.443 107.333 566.438 107.57 566.438 107.809H573.3ZM584.077 118.855C578.186 118.855 573.3 113.971 573.3 107.809H566.438C566.438 117.638 574.275 125.718 584.077 125.718V118.855ZM594.854 107.809C594.854 113.971 589.969 118.855 584.077 118.855V125.718C593.88 125.718 601.717 117.638 601.717 107.809H594.854ZM594.845 107.362C594.851 107.51 594.854 107.659 594.854 107.809H601.717C601.717 107.57 601.712 107.333 601.703 107.097L594.845 107.362ZM608.515 103.798H598.274V110.66H608.515V103.798ZM605.084 99.1104V107.229H611.947V99.1104H605.084ZM609.084 95.6906C608.939 95.6906 608.796 95.6877 608.653 95.6819L608.378 102.539C608.612 102.548 608.848 102.553 609.084 102.553V95.6906ZM619.861 84.644C619.861 90.806 614.975 95.6906 609.084 95.6906V102.553C618.886 102.553 626.723 94.4737 626.723 84.644H619.861ZM609.084 73.5974C614.975 73.5974 619.861 78.4819 619.861 84.644H626.723C626.723 74.8142 618.886 66.7349 609.084 66.7349V73.5974ZM608.653 73.606C608.796 73.6003 608.939 73.5974 609.084 73.5974V66.7349C608.848 66.7349 608.612 66.7396 608.378 66.749L608.653 73.606ZM605.084 60.9002V70.1775H611.947V60.9002H605.084Z" fill="black"/>
<path fill-rule="evenodd" clip-rule="evenodd" d="M714.222 60.8992H703.982C703.684 53.1716 697.441 47 689.785 47C682.128 47 675.886 53.1716 675.588 60.8992H665.347V70.1765C657.763 70.4805 651.707 76.8411 651.707 84.643C651.707 92.4449 657.763 98.8055 665.347 99.1094V107.228H675.588C675.58 107.42 675.577 107.614 675.577 107.808C675.577 115.804 681.938 122.286 689.785 122.286C697.632 122.286 703.993 115.804 703.993 107.808C703.993 107.614 703.989 107.42 703.982 107.228H714.222V99.1094C714.411 99.117 714.601 99.1208 714.791 99.1208C722.638 99.1208 728.999 92.6389 728.999 84.643C728.999 76.6471 722.638 70.1652 714.791 70.1652C714.601 70.1652 714.411 70.169 714.222 70.1765V60.8992Z" fill="#DC502F"/>
<path d="M703.982 60.8992L700.553 61.0315L700.68 64.3305H703.982V60.8992ZM714.222 60.8992H717.654V57.468H714.222V60.8992ZM675.588 60.8992V64.3305H678.889L679.017 61.0315L675.588 60.8992ZM665.347 60.8992V57.468H661.915V60.8992H665.347ZM665.347 70.1765L665.484 73.605L668.778 73.473V70.1765H665.347ZM665.347 99.1094H668.778V95.813L665.484 95.681L665.347 99.1094ZM665.347 107.228H661.915V110.66H665.347V107.228ZM675.588 107.228L679.017 107.361L679.154 103.797H675.588V107.228ZM703.982 107.228V103.797H700.415L700.553 107.361L703.982 107.228ZM714.222 107.228V110.66H717.654V107.228H714.222ZM714.222 99.1094L714.36 95.6809L710.791 95.5378V99.1094H714.222ZM714.222 70.1765H710.791V73.7482L714.36 73.605L714.222 70.1765ZM703.982 64.3305H714.222V57.468H703.982V64.3305ZM689.785 50.4312C695.534 50.4312 700.323 55.081 700.553 61.0315L707.41 60.767C707.044 51.2621 699.349 43.5688 689.785 43.5688V50.4312ZM679.017 61.0315C679.246 55.081 684.036 50.4312 689.785 50.4312V43.5688C680.22 43.5688 672.526 51.2621 672.159 60.767L679.017 61.0315ZM665.347 64.3305H675.588V57.468H665.347V64.3305ZM668.778 70.1765V60.8992H661.915V70.1765H668.778ZM655.138 84.643C655.138 78.6325 659.791 73.8332 665.484 73.605L665.209 66.748C655.736 67.1278 648.276 75.0496 648.276 84.643H655.138ZM665.484 95.681C659.791 95.4527 655.138 90.6535 655.138 84.643H648.276C648.276 94.2363 655.736 102.158 665.209 102.538L665.484 95.681ZM668.778 107.228V99.1094H661.915V107.228H668.778ZM675.588 103.797H665.347V110.66H675.588V103.797ZM679.008 107.808C679.008 107.658 679.011 107.509 679.017 107.361L672.159 107.096C672.15 107.332 672.145 107.569 672.145 107.808H679.008ZM689.785 118.854C683.893 118.854 679.008 113.97 679.008 107.808H672.145C672.145 117.637 679.982 125.717 689.785 125.717V118.854ZM700.561 107.808C700.561 113.97 695.676 118.854 689.785 118.854V125.717C699.587 125.717 707.424 117.637 707.424 107.808H700.561ZM700.553 107.361C700.559 107.509 700.561 107.658 700.561 107.808H707.424C707.424 107.569 707.419 107.332 707.41 107.096L700.553 107.361ZM714.222 103.797H703.982V110.66H714.222V103.797ZM710.791 99.1094V107.228H717.654V99.1094H710.791ZM714.791 95.6896C714.647 95.6896 714.503 95.6867 714.36 95.6809L714.085 102.538C714.319 102.547 714.555 102.552 714.791 102.552V95.6896ZM725.568 84.643C725.568 90.805 720.683 95.6896 714.791 95.6896V102.552C724.594 102.552 732.431 94.4727 732.431 84.643H725.568ZM714.791 73.5964C720.683 73.5964 725.568 78.481 725.568 84.643H732.431C732.431 74.8132 724.594 66.7339 714.791 66.7339V73.5964ZM714.36 73.605C714.503 73.5993 714.647 73.5964 714.791 73.5964V66.7339C714.555 66.7339 714.319 66.7387 714.085 66.7481L714.36 73.605ZM710.791 60.8992V70.1765H717.654V60.8992H710.791Z" fill="black"/>
<path fill-rule="evenodd" clip-rule="evenodd" d="M714.222 168.611H703.982C703.684 160.884 697.442 154.712 689.785 154.712C682.128 154.712 675.886 160.884 675.588 168.611H665.347V177.889C657.763 178.193 651.707 184.553 651.707 192.355C651.707 200.157 657.763 206.518 665.347 206.821V214.94H675.588C675.581 215.133 675.577 215.326 675.577 215.52C675.577 223.516 681.938 229.998 689.785 229.998C697.632 229.998 703.993 223.516 703.993 215.52C703.993 215.326 703.989 215.133 703.982 214.94H714.222V206.821C714.411 206.829 714.6 206.833 714.791 206.833C722.638 206.833 728.999 200.351 728.999 192.355C728.999 184.359 722.638 177.877 714.791 177.877C714.6 177.877 714.411 177.881 714.222 177.889V168.611Z" fill="#DC502F"/>
<path d="M703.982 168.611L700.553 168.743L700.68 172.043H703.982V168.611ZM714.222 168.611H717.654V165.18H714.222V168.611ZM675.588 168.611V172.043H678.89L679.017 168.743L675.588 168.611ZM665.347 168.611V165.18H661.915V168.611H665.347ZM665.347 177.889L665.484 181.317L668.778 181.185V177.889H665.347ZM665.347 206.821H668.778V203.525L665.484 203.393L665.347 206.821ZM665.347 214.94H661.915V218.372H665.347V214.94ZM675.588 214.94L679.017 215.073L679.154 211.509H675.588V214.94ZM703.982 214.94V211.509H700.416L700.553 215.073L703.982 214.94ZM714.222 214.94V218.372H717.654V214.94H714.222ZM714.222 206.821L714.36 203.393L710.791 203.25V206.821H714.222ZM714.222 177.889H710.791V181.46L714.36 181.317L714.222 177.889ZM703.982 172.043H714.222V165.18H703.982V172.043ZM689.785 158.143C695.534 158.143 700.324 162.793 700.553 168.743L707.411 168.479C707.044 158.974 699.35 151.281 689.785 151.281V158.143ZM679.017 168.743C679.246 162.793 684.036 158.143 689.785 158.143V151.281C680.22 151.281 672.526 158.974 672.159 168.479L679.017 168.743ZM665.347 172.043H675.588V165.18H665.347V172.043ZM668.778 177.889V168.611H661.915V177.889H668.778ZM655.138 192.355C655.138 186.345 659.791 181.545 665.484 181.317L665.209 174.46C655.736 174.84 648.276 182.762 648.276 192.355H655.138ZM665.484 203.393C659.791 203.165 655.138 198.366 655.138 192.355H648.276C648.276 201.948 655.736 209.87 665.209 210.25L665.484 203.393ZM668.778 214.94V206.821H661.915V214.94H668.778ZM675.588 211.509H665.347V218.372H675.588V211.509ZM679.008 215.52C679.008 215.37 679.011 215.221 679.017 215.073L672.159 214.808C672.15 215.044 672.146 215.282 672.146 215.52H679.008ZM689.785 226.566C683.894 226.566 679.008 221.682 679.008 215.52H672.146C672.146 225.35 679.983 233.429 689.785 233.429V226.566ZM700.562 215.52C700.562 221.682 695.676 226.566 689.785 226.566V233.429C699.587 233.429 707.424 225.35 707.424 215.52H700.562ZM700.553 215.073C700.559 215.221 700.562 215.37 700.562 215.52H707.424C707.424 215.282 707.42 215.044 707.411 214.808L700.553 215.073ZM714.222 211.509H703.982V218.372H714.222V211.509ZM710.791 206.821V214.94H717.654V206.821H710.791ZM714.791 203.402C714.646 203.402 714.503 203.399 714.36 203.393L714.085 210.25C714.319 210.259 714.555 210.264 714.791 210.264V203.402ZM725.568 192.355C725.568 198.517 720.682 203.402 714.791 203.402V210.264C724.593 210.264 732.43 202.185 732.43 192.355H725.568ZM714.791 181.308C720.682 181.308 725.568 186.193 725.568 192.355H732.43C732.43 182.525 724.593 174.446 714.791 174.446V181.308ZM714.36 181.317C714.503 181.311 714.646 181.308 714.791 181.308V174.446C714.555 174.446 714.319 174.451 714.085 174.46L714.36 181.317ZM710.791 168.611V177.889H717.654V168.611H710.791Z" fill="black"/>
<path fill-rule="evenodd" clip-rule="evenodd" d="M608.516 168.611H598.275C597.977 160.884 591.735 154.712 584.078 154.712C576.421 154.712 570.179 160.884 569.881 168.611H559.64V177.889C552.057 178.192 546 184.553 546 192.355C546 200.157 552.057 206.518 559.64 206.822V214.94H569.881C569.874 215.133 569.87 215.326 569.87 215.52C569.87 223.516 576.231 229.998 584.078 229.998C591.925 229.998 598.286 223.516 598.286 215.52C598.286 215.326 598.282 215.133 598.275 214.94H608.516V206.822C608.704 206.829 608.894 206.833 609.084 206.833C616.931 206.833 623.292 200.351 623.292 192.355C623.292 184.359 616.931 177.877 609.084 177.877C608.894 177.877 608.704 177.881 608.516 177.889V168.611Z" fill="#DC502F"/>
<path d="M598.275 168.611L594.846 168.743L594.973 172.043H598.275V168.611ZM608.516 168.611H611.947V165.18H608.516V168.611ZM569.881 168.611V172.043H573.183L573.31 168.743L569.881 168.611ZM559.64 168.611V165.18H556.209V168.611H559.64ZM559.64 177.889L559.778 181.317L563.071 181.185V177.889H559.64ZM559.64 206.822H563.071V203.525L559.778 203.393L559.64 206.822ZM559.64 214.94H556.209V218.372H559.64V214.94ZM569.881 214.94L573.31 215.073L573.447 211.509H569.881V214.94ZM598.275 214.94V211.509H594.708L594.846 215.073L598.275 214.94ZM608.516 214.94V218.372H611.947V214.94H608.516ZM608.516 206.822L608.653 203.393L605.085 203.25V206.822H608.516ZM608.516 177.889H605.085V181.46L608.653 181.317L608.516 177.889ZM598.275 172.043H608.516V165.18H598.275V172.043ZM584.078 158.143C589.827 158.143 594.617 162.793 594.846 168.743L601.704 168.479C601.337 158.974 593.643 151.281 584.078 151.281V158.143ZM573.31 168.743C573.539 162.793 578.329 158.143 584.078 158.143V151.281C574.513 151.281 566.819 158.974 566.452 168.479L573.31 168.743ZM559.64 172.043H569.881V165.18H559.64V172.043ZM563.071 177.889V168.611H556.209V177.889H563.071ZM549.431 192.355C549.431 186.344 554.084 181.545 559.778 181.317L559.503 174.46C550.029 174.839 542.569 182.761 542.569 192.355H549.431ZM559.778 203.393C554.084 203.165 549.431 198.366 549.431 192.355H542.569C542.569 201.949 550.029 209.871 559.503 210.25L559.778 203.393ZM563.071 214.94V206.822H556.209V214.94H563.071ZM569.881 211.509H559.64V218.372H569.881V211.509ZM573.301 215.52C573.301 215.37 573.304 215.221 573.31 215.073L566.452 214.808C566.443 215.044 566.439 215.282 566.439 215.52H573.301ZM584.078 226.566C578.187 226.566 573.301 221.682 573.301 215.52H566.439C566.439 225.35 574.276 233.429 584.078 233.429V226.566ZM594.855 215.52C594.855 221.682 589.969 226.566 584.078 226.566V233.429C593.88 233.429 601.717 225.35 601.717 215.52H594.855ZM594.846 215.073C594.852 215.221 594.855 215.37 594.855 215.52H601.717C601.717 215.282 601.713 215.044 601.703 214.808L594.846 215.073ZM608.516 211.509H598.275V218.372H608.516V211.509ZM605.085 206.822V214.94H611.947V206.822H605.085ZM609.084 203.402C608.939 203.402 608.796 203.399 608.653 203.393L608.378 210.25C608.613 210.259 608.848 210.264 609.084 210.264V203.402ZM619.861 192.355C619.861 198.517 614.975 203.402 609.084 203.402V210.264C618.886 210.264 626.723 202.185 626.723 192.355H619.861ZM609.084 181.308C614.975 181.308 619.861 186.193 619.861 192.355H626.723C626.723 182.525 618.886 174.446 609.084 174.446V181.308ZM608.653 181.317C608.796 181.311 608.939 181.308 609.084 181.308V174.446C608.848 174.446 608.613 174.451 608.378 174.46L608.653 181.317ZM605.085 168.611V177.889H611.947V168.611H605.085Z" fill="black"/>
</svg>
