<svg width="255" height="120" viewBox="0 0 255 120" fill="none" xmlns="http://www.w3.org/2000/svg">
<g clip-path="url(#clip0_22_6)">
<rect width="257" height="120" fill="white"/>
<mask id="path-2-outside-1_22_6" maskUnits="userSpaceOnUse" x="211" y="-8" width="54" height="55" fill="black">
<rect fill="white" x="211" y="-8" width="54" height="55"/>
<path fill-rule="evenodd" clip-rule="evenodd" d="M257 38.1215V0L220 0C220.294 7.48268 226.454 13.4585 234.008 13.4585C234.196 13.4585 234.383 13.4548 234.569 13.4475V23.5524H242.431C242.424 23.7384 242.42 23.9254 242.42 24.1132C242.42 31.8558 248.697 38.1325 256.439 38.1325C256.627 38.1325 256.814 38.1288 257 38.1215Z"/>
</mask>
<path fill-rule="evenodd" clip-rule="evenodd" d="M257 38.1215V0L220 0C220.294 7.48268 226.454 13.4585 234.008 13.4585C234.196 13.4585 234.383 13.4548 234.569 13.4475V23.5524H242.431C242.424 23.7384 242.42 23.9254 242.42 24.1132C242.42 31.8558 248.697 38.1325 256.439 38.1325C256.627 38.1325 256.814 38.1288 257 38.1215Z" fill="#DC502F"/>
<path d="M257 0L265 0V-8L257 -8V0ZM257 38.1215L257.314 46.1153L265 45.813V38.1215H257ZM220 0V-8L211.679 -8L212.006 0.314457L220 0ZM234.569 13.4475L242.569 13.4475V5.12667L234.255 5.4537L234.569 13.4475ZM234.569 23.5524L226.569 23.5524V31.5524L234.569 31.5524V23.5524ZM242.431 23.5524L250.425 23.8668L250.752 15.5524L242.431 15.5524V23.5524ZM249 0V38.1215H265V0L249 0ZM220 8L257 8V-8L220 -8V8ZM212.006 0.314457C212.469 12.0727 222.141 21.4585 234.008 21.4585V5.45853C230.766 5.45853 228.12 2.89263 227.994 -0.314457L212.006 0.314457ZM234.008 21.4585C234.301 21.4585 234.593 21.4528 234.884 21.4413L234.255 5.4537C234.173 5.4569 234.091 5.45853 234.008 5.45853V21.4585ZM226.569 13.4475V23.5524L242.569 23.5524V13.4475L226.569 13.4475ZM234.569 31.5524H242.431V15.5524L234.569 15.5524V31.5524ZM234.437 23.238C234.426 23.5287 234.42 23.8205 234.42 24.1132L250.42 24.1132C250.42 24.0303 250.422 23.9481 250.425 23.8668L234.437 23.238ZM234.42 24.1132C234.42 36.2741 244.278 46.1325 256.439 46.1325V30.1325C253.115 30.1325 250.42 27.4376 250.42 24.1132L234.42 24.1132ZM256.439 46.1325C256.732 46.1325 257.024 46.1267 257.314 46.1153L256.686 30.1277C256.604 30.1309 256.522 30.1325 256.439 30.1325V46.1325Z" fill="#D9D9D9" mask="url(#path-2-outside-1_22_6)"/>
<rect x="32.9414" y="47.5087" width="24.1938" height="24.7198" fill="#D9D9D9" stroke="black" stroke-width="1.57786"/>
<path fill-rule="evenodd" clip-rule="evenodd" d="M38.374 41.7631H36.0193C35.9507 39.9864 34.5155 38.5674 32.755 38.5674C30.9946 38.5674 29.5594 39.9864 29.4908 41.7631H27.1362V43.8962C25.3926 43.966 24 45.4285 24 47.2224C24 49.0163 25.3926 50.4788 27.1362 50.5486V52.4154H29.4908C29.4891 52.4596 29.4883 52.504 29.4883 52.5486C29.4883 54.3871 30.9508 55.8775 32.755 55.8775C34.5592 55.8775 36.0218 54.3871 36.0218 52.5486C36.0218 52.504 36.021 52.4596 36.0193 52.4154H38.374V50.5486C38.4173 50.5504 38.4609 50.5513 38.5047 50.5513C40.3089 50.5513 41.7715 49.0609 41.7715 47.2224C41.7715 45.384 40.3089 43.8936 38.5047 43.8936C38.4609 43.8936 38.4173 43.8945 38.374 43.8962V41.7631Z" fill="#DC502F"/>
<path d="M36.0193 41.7631L35.2309 41.7935L35.2602 42.552H36.0193V41.7631ZM38.374 41.7631H39.1629V40.9742H38.374V41.7631ZM29.4908 41.7631V42.552H30.2499L30.2792 41.7935L29.4908 41.7631ZM27.1362 41.7631V40.9742H26.3473V41.7631H27.1362ZM27.1362 43.8962L27.1678 44.6845L27.9252 44.6542V43.8962H27.1362ZM27.1362 50.5486H27.9252V49.7907L27.1678 49.7604L27.1362 50.5486ZM27.1362 52.4154H26.3473V53.2043H27.1362V52.4154ZM29.4908 52.4154L30.2792 52.4458L30.3108 51.6264H29.4908V52.4154ZM36.0193 52.4154V51.6264H35.1993L35.2309 52.4458L36.0193 52.4154ZM38.374 52.4154V53.2043H39.1629V52.4154H38.374ZM38.374 50.5486L38.4056 49.7604L37.5851 49.7275V50.5486H38.374ZM38.374 43.8962H37.5851V44.7174L38.4056 44.6845L38.374 43.8962ZM36.0193 42.552H38.374V40.9742H36.0193V42.552ZM32.755 39.3563C34.0768 39.3563 35.1781 40.4254 35.2309 41.7935L36.8076 41.7327C36.7233 39.5473 34.9542 37.7785 32.755 37.7785V39.3563ZM30.2792 41.7935C30.332 40.4254 31.4333 39.3563 32.755 39.3563V37.7785C30.5559 37.7785 28.7868 39.5473 28.7025 41.7327L30.2792 41.7935ZM27.1362 42.552H29.4908V40.9742H27.1362V42.552ZM27.9252 43.8962V41.7631H26.3473V43.8962H27.9252ZM24.7889 47.2224C24.7889 45.8404 25.8586 44.7369 27.1678 44.6845L27.1047 43.1079C24.9265 43.1952 23.2111 45.0166 23.2111 47.2224H24.7889ZM27.1678 49.7604C25.8586 49.7079 24.7889 48.6044 24.7889 47.2224H23.2111C23.2111 49.4282 24.9265 51.2497 27.1047 51.3369L27.1678 49.7604ZM27.9252 52.4154V50.5486H26.3473V52.4154H27.9252ZM29.4908 51.6264H27.1362V53.2043H29.4908V51.6264ZM30.2772 52.5486C30.2772 52.5142 30.2778 52.4799 30.2792 52.4458L28.7025 52.3849C28.7004 52.4393 28.6993 52.4938 28.6993 52.5486H30.2772ZM32.755 55.0885C31.4005 55.0885 30.2772 53.9655 30.2772 52.5486H28.6993C28.6993 54.8088 30.5012 56.6664 32.755 56.6664V55.0885ZM35.2329 52.5486C35.2329 53.9655 34.1096 55.0885 32.755 55.0885V56.6664C35.0089 56.6664 36.8108 54.8088 36.8108 52.5486H35.2329ZM35.2309 52.4458C35.2322 52.4799 35.2329 52.5142 35.2329 52.5486H36.8108C36.8108 52.4939 36.8097 52.4393 36.8076 52.3849L35.2309 52.4458ZM38.374 51.6264H36.0193V53.2043H38.374V51.6264ZM37.5851 50.5486V52.4154H39.1629V50.5486H37.5851ZM38.5047 49.7623C38.4714 49.7623 38.4384 49.7617 38.4056 49.7604L38.3424 51.3369C38.3963 51.3391 38.4504 51.3402 38.5047 51.3402V49.7623ZM40.9825 47.2224C40.9825 48.6392 39.8592 49.7623 38.5047 49.7623V51.3402C40.7585 51.3402 42.5604 49.4825 42.5604 47.2224H40.9825ZM38.5047 44.6825C39.8592 44.6825 40.9825 45.8056 40.9825 47.2224H42.5604C42.5604 44.9623 40.7585 43.1047 38.5047 43.1047V44.6825ZM38.4056 44.6845C38.4384 44.6832 38.4714 44.6825 38.5047 44.6825V43.1047C38.4504 43.1047 38.3963 43.1058 38.3424 43.1079L38.4056 44.6845ZM37.5851 41.7631V43.8962H39.1629V41.7631H37.5851Z" fill="black"/>
<path fill-rule="evenodd" clip-rule="evenodd" d="M62.6786 41.763H60.324C60.2554 39.9863 58.8202 38.5673 57.0597 38.5673C55.2993 38.5673 53.8641 39.9863 53.7955 41.763H51.4408V43.8961C49.6972 43.966 48.3047 45.4285 48.3047 47.2223C48.3047 49.0162 49.6972 50.4787 51.4408 50.5486V52.4153H53.7955C53.7938 52.4595 53.7929 52.5039 53.7929 52.5486C53.7929 54.387 55.2555 55.8774 57.0597 55.8774C58.8639 55.8774 60.3265 54.387 60.3265 52.5486C60.3265 52.5039 60.3257 52.4595 60.324 52.4153H62.6786V50.5486C62.722 50.5503 62.7656 50.5512 62.8094 50.5512C64.6136 50.5512 66.0761 49.0608 66.0761 47.2223C66.0761 45.3839 64.6136 43.8935 62.8094 43.8935C62.7656 43.8935 62.722 43.8944 62.6786 43.8961V41.763Z" fill="#DC502F"/>
<path d="M60.324 41.763L59.5356 41.7934L59.5649 42.5519H60.324V41.763ZM62.6786 41.763H63.4675V40.9741H62.6786V41.763ZM53.7955 41.763V42.5519H54.5546L54.5838 41.7934L53.7955 41.763ZM51.4408 41.763V40.9741H50.6519V41.763H51.4408ZM51.4408 43.8961L51.4724 44.6844L52.2297 44.6541V43.8961H51.4408ZM51.4408 50.5486H52.2297V49.7906L51.4724 49.7603L51.4408 50.5486ZM51.4408 52.4153H50.6519V53.2042H51.4408V52.4153ZM53.7955 52.4153L54.5839 52.4457L54.6155 51.6264H53.7955V52.4153ZM60.324 52.4153V51.6264H59.504L59.5356 52.4457L60.324 52.4153ZM62.6786 52.4153V53.2042H63.4675V52.4153H62.6786ZM62.6786 50.5486L62.7102 49.7603L61.8897 49.7273V50.5486H62.6786ZM62.6786 43.8961H61.8897V44.7173L62.7102 44.6844L62.6786 43.8961ZM60.324 42.5519H62.6786V40.9741H60.324V42.5519ZM57.0597 39.3562C58.3815 39.3562 59.4828 40.4253 59.5356 41.7934L61.1123 41.7326C61.028 39.5472 59.2589 37.7784 57.0597 37.7784V39.3562ZM54.5838 41.7934C54.6366 40.4253 55.7379 39.3562 57.0597 39.3562V37.7784C54.8606 37.7784 53.0915 39.5472 53.0072 41.7326L54.5838 41.7934ZM51.4408 42.5519H53.7955V40.9741H51.4408V42.5519ZM52.2297 43.8961V41.763H50.6519V43.8961H52.2297ZM49.0936 47.2223C49.0936 45.8404 50.1633 44.7369 51.4724 44.6844L51.4092 43.1078C49.2311 43.1951 47.5158 45.0166 47.5158 47.2223H49.0936ZM51.4724 49.7603C50.1633 49.7078 49.0936 48.6043 49.0936 47.2223H47.5158C47.5158 49.4281 49.2311 51.2495 51.4092 51.3368L51.4724 49.7603ZM52.2297 52.4153V50.5486H50.6519V52.4153H52.2297ZM53.7955 51.6264H51.4408V53.2042H53.7955V51.6264ZM54.5819 52.5486C54.5819 52.5141 54.5825 52.4798 54.5839 52.4457L53.0072 52.3848C53.0051 52.4392 53.004 52.4938 53.004 52.5486H54.5819ZM57.0597 55.0885C55.7052 55.0885 54.5819 53.9654 54.5819 52.5486H53.004C53.004 54.8087 54.8059 56.6663 57.0597 56.6663V55.0885ZM59.5376 52.5486C59.5376 53.9654 58.4143 55.0885 57.0597 55.0885V56.6663C59.3136 56.6663 61.1155 54.8087 61.1155 52.5486H59.5376ZM59.5356 52.4457C59.5369 52.4798 59.5376 52.5141 59.5376 52.5486H61.1155C61.1155 52.4938 61.1144 52.4392 61.1123 52.3848L59.5356 52.4457ZM62.6786 51.6264H60.324V53.2042H62.6786V51.6264ZM61.8897 50.5486V52.4153H63.4675V50.5486H61.8897ZM62.8094 49.7622C62.7761 49.7622 62.7431 49.7616 62.7102 49.7603L62.647 51.3368C62.7009 51.339 62.755 51.3401 62.8094 51.3401V49.7622ZM65.2872 47.2223C65.2872 48.6391 64.1639 49.7622 62.8094 49.7622V51.3401C65.0632 51.3401 66.8651 49.4825 66.8651 47.2223H65.2872ZM62.8094 44.6824C64.1639 44.6824 65.2872 45.8055 65.2872 47.2223H66.8651C66.8651 44.9622 65.0632 43.1046 62.8094 43.1046V44.6824ZM62.7102 44.6844C62.7431 44.6831 62.7761 44.6824 62.8094 44.6824V43.1046C62.755 43.1046 62.7009 43.1057 62.647 43.1078L62.7102 44.6844ZM61.8897 41.763V43.8961H63.4675V41.763H61.8897Z" fill="black"/>
<path fill-rule="evenodd" clip-rule="evenodd" d="M62.6786 66.5288H60.324C60.2554 64.752 58.8202 63.333 57.0597 63.333C55.2993 63.333 53.8641 64.752 53.7955 66.5288H51.4408V68.6619C49.6972 68.7318 48.3047 70.1942 48.3047 71.9881C48.3047 73.782 49.6972 75.2444 51.4408 75.3143V77.181H53.7955C53.7938 77.2252 53.7929 77.2697 53.7929 77.3143C53.7929 79.1528 55.2555 80.6431 57.0597 80.6431C58.8639 80.6431 60.3265 79.1528 60.3265 77.3143C60.3265 77.2697 60.3257 77.2252 60.324 77.181H62.6786V75.3143C62.7219 75.316 62.7655 75.3169 62.8093 75.3169C64.6135 75.3169 66.0761 73.8265 66.0761 71.9881C66.0761 70.1496 64.6135 68.6593 62.8093 68.6593C62.7655 68.6593 62.7219 68.6601 62.6786 68.6619V66.5288Z" fill="#DC502F"/>
<path d="M60.324 66.5288L59.5356 66.5592L59.5649 67.3177H60.324V66.5288ZM62.6786 66.5288H63.4675V65.7398H62.6786V66.5288ZM53.7955 66.5288V67.3177H54.5546L54.5838 66.5592L53.7955 66.5288ZM51.4408 66.5288V65.7398H50.6519V66.5288H51.4408ZM51.4408 68.6619L51.4724 69.4502L52.2297 69.4198V68.6619H51.4408ZM51.4408 75.3143H52.2297V74.5564L51.4724 74.526L51.4408 75.3143ZM51.4408 77.181H50.6519V77.97H51.4408V77.181ZM53.7955 77.181L54.5839 77.2115L54.6155 76.3921H53.7955V77.181ZM60.324 77.181V76.3921H59.504L59.5356 77.2115L60.324 77.181ZM62.6786 77.181V77.97H63.4675V77.181H62.6786ZM62.6786 75.3143L62.7102 74.526L61.8897 74.4931V75.3143H62.6786ZM62.6786 68.6619H61.8897V69.483L62.7102 69.4502L62.6786 68.6619ZM60.324 67.3177H62.6786V65.7398H60.324V67.3177ZM57.0597 64.122C58.3815 64.122 59.4828 65.1911 59.5356 66.5592L61.1123 66.4983C61.028 64.313 59.2589 62.5441 57.0597 62.5441V64.122ZM54.5838 66.5592C54.6366 65.1911 55.7379 64.122 57.0597 64.122V62.5441C54.8606 62.5441 53.0915 64.313 53.0072 66.4983L54.5838 66.5592ZM51.4408 67.3177H53.7955V65.7398H51.4408V67.3177ZM52.2297 68.6619V66.5288H50.6519V68.6619H52.2297ZM49.0936 71.9881C49.0936 70.6061 50.1633 69.5026 51.4724 69.4502L51.4092 67.8736C49.2311 67.9609 47.5158 69.7823 47.5158 71.9881H49.0936ZM51.4724 74.526C50.1633 74.4735 49.0936 73.3701 49.0936 71.9881H47.5158C47.5158 74.1938 49.2311 76.0153 51.4092 76.1026L51.4724 74.526ZM52.2297 77.181V75.3143H50.6519V77.181H52.2297ZM53.7955 76.3921H51.4408V77.97H53.7955V76.3921ZM54.5819 77.3143C54.5819 77.2798 54.5825 77.2456 54.5839 77.2115L53.0072 77.1506C53.0051 77.2049 53.004 77.2595 53.004 77.3143H54.5819ZM57.0597 79.8542C55.7052 79.8542 54.5819 78.7311 54.5819 77.3143H53.004C53.004 79.5744 54.8059 81.4321 57.0597 81.4321V79.8542ZM59.5376 77.3143C59.5376 78.7311 58.4143 79.8542 57.0597 79.8542V81.4321C59.3136 81.4321 61.1155 79.5744 61.1155 77.3143H59.5376ZM59.5356 77.2115C59.5369 77.2455 59.5376 77.2798 59.5376 77.3143H61.1155C61.1155 77.2595 61.1144 77.2049 61.1123 77.1506L59.5356 77.2115ZM62.6786 76.3921H60.324V77.97H62.6786V76.3921ZM61.8897 75.3143V77.181H63.4675V75.3143H61.8897ZM62.8093 74.528C62.776 74.528 62.743 74.5273 62.7102 74.526L62.647 76.1026C62.7009 76.1048 62.755 76.1058 62.8093 76.1058V74.528ZM65.2871 71.9881C65.2871 73.4049 64.1638 74.528 62.8093 74.528V76.1058C65.0631 76.1058 66.865 74.2482 66.865 71.9881H65.2871ZM62.8093 69.4482C64.1638 69.4482 65.2871 70.5713 65.2871 71.9881H66.865C66.865 69.728 65.0631 67.8703 62.8093 67.8703V69.4482ZM62.7102 69.4502C62.743 69.4488 62.776 69.4482 62.8093 69.4482V67.8703C62.755 67.8703 62.7009 67.8714 62.647 67.8736L62.7102 69.4502ZM61.8897 66.5288V68.6619H63.4675V66.5288H61.8897Z" fill="black"/>
<path fill-rule="evenodd" clip-rule="evenodd" d="M38.374 66.5288H36.0193C35.9507 64.752 34.5155 63.333 32.755 63.333C30.9946 63.333 29.5594 64.752 29.4908 66.5288H27.1362V68.6619C25.3926 68.7317 24 70.1942 24 71.9881C24 73.782 25.3926 75.2445 27.1362 75.3143V77.181H29.4908C29.4891 77.2252 29.4883 77.2697 29.4883 77.3143C29.4883 79.1528 30.9508 80.6431 32.755 80.6431C34.5592 80.6431 36.0218 79.1528 36.0218 77.3143C36.0218 77.2697 36.021 77.2252 36.0193 77.181H38.374V75.3143C38.4173 75.316 38.4608 75.3169 38.5046 75.3169C40.3088 75.3169 41.7714 73.8265 41.7714 71.9881C41.7714 70.1496 40.3088 68.6593 38.5046 68.6593C38.4608 68.6593 38.4173 68.6601 38.374 68.6619V66.5288Z" fill="#DC502F"/>
<path d="M36.0193 66.5288L35.2309 66.5592L35.2602 67.3177H36.0193V66.5288ZM38.374 66.5288H39.1629V65.7398H38.374V66.5288ZM29.4908 66.5288V67.3177H30.2499L30.2792 66.5592L29.4908 66.5288ZM27.1362 66.5288V65.7398H26.3473V66.5288H27.1362ZM27.1362 68.6619L27.1678 69.4502L27.9252 69.4198V68.6619H27.1362ZM27.1362 75.3143H27.9252V74.5563L27.1678 74.526L27.1362 75.3143ZM27.1362 77.181H26.3473V77.97H27.1362V77.181ZM29.4908 77.181L30.2792 77.2115L30.3108 76.3921H29.4908V77.181ZM36.0193 77.181V76.3921H35.1993L35.2309 77.2115L36.0193 77.181ZM38.374 77.181V77.97H39.1629V77.181H38.374ZM38.374 75.3143L38.4056 74.526L37.5851 74.4931V75.3143H38.374ZM38.374 68.6619H37.5851V69.483L38.4056 69.4502L38.374 68.6619ZM36.0193 67.3177H38.374V65.7398H36.0193V67.3177ZM32.755 64.122C34.0768 64.122 35.1781 65.1911 35.2309 66.5592L36.8076 66.4983C36.7233 64.313 34.9542 62.5441 32.755 62.5441V64.122ZM30.2792 66.5592C30.332 65.1911 31.4333 64.122 32.755 64.122V62.5441C30.5559 62.5441 28.7868 64.313 28.7025 66.4983L30.2792 66.5592ZM27.1362 67.3177H29.4908V65.7398H27.1362V67.3177ZM27.9252 68.6619V66.5288H26.3473V68.6619H27.9252ZM24.7889 71.9881C24.7889 70.6061 25.8586 69.5026 27.1678 69.4502L27.1047 67.8736C24.9265 67.9608 23.2111 69.7823 23.2111 71.9881H24.7889ZM27.1678 74.526C25.8586 74.4736 24.7889 73.3701 24.7889 71.9881H23.2111C23.2111 74.1939 24.9265 76.0154 27.1047 76.1026L27.1678 74.526ZM27.9252 77.181V75.3143H26.3473V77.181H27.9252ZM29.4908 76.3921H27.1362V77.97H29.4908V76.3921ZM30.2772 77.3143C30.2772 77.2798 30.2778 77.2456 30.2792 77.2115L28.7025 77.1506C28.7004 77.2049 28.6993 77.2595 28.6993 77.3143H30.2772ZM32.755 79.8542C31.4005 79.8542 30.2772 78.7311 30.2772 77.3143H28.6993C28.6993 79.5744 30.5012 81.4321 32.755 81.4321V79.8542ZM35.2329 77.3143C35.2329 78.7311 34.1096 79.8542 32.755 79.8542V81.4321C35.0089 81.4321 36.8108 79.5744 36.8108 77.3143H35.2329ZM35.2309 77.2115C35.2322 77.2455 35.2329 77.2798 35.2329 77.3143H36.8108C36.8108 77.2595 36.8097 77.2049 36.8076 77.1506L35.2309 77.2115ZM38.374 76.3921H36.0193V77.97H38.374V76.3921ZM37.5851 75.3143V77.181H39.1629V75.3143H37.5851ZM38.5046 74.528C38.4714 74.528 38.4384 74.5273 38.4056 74.526L38.3424 76.1026C38.3963 76.1048 38.4503 76.1058 38.5046 76.1058V74.528ZM40.9824 71.9881C40.9824 73.4049 39.8591 74.528 38.5046 74.528V76.1058C40.7584 76.1058 42.5603 74.2482 42.5603 71.9881H40.9824ZM38.5046 69.4482C39.8591 69.4482 40.9824 70.5713 40.9824 71.9881H42.5603C42.5603 69.728 40.7584 67.8703 38.5046 67.8703V69.4482ZM38.4056 69.4502C38.4384 69.4488 38.4714 69.4482 38.5046 69.4482V67.8703C38.4503 67.8703 38.3963 67.8714 38.3424 67.8736L38.4056 69.4502ZM37.5851 66.5288V68.6619H39.1629V66.5288H37.5851Z" fill="black"/>
<path d="M85.6963 50.7939V68.5674H82.7422V53.2842H76.6875V68.5674H73.7212V50.7939H85.6963ZM98.7822 50.7939V53.2842H91.7876V50.7939H98.7822ZM101.089 50.7939V68.5674H98.1353V50.7939H101.089ZM91.2139 50.7939H94.1558L93.814 59.644C93.7651 60.938 93.6715 62.0773 93.5332 63.062C93.3949 64.0386 93.2036 64.8768 92.9595 65.5767C92.7153 66.2765 92.402 66.8462 92.0195 67.2856C91.6452 67.7251 91.1976 68.0506 90.6768 68.2622C90.1641 68.4657 89.57 68.5674 88.8945 68.5674H88.1621V66.0894L88.5894 66.0405C88.9312 66.008 89.2282 65.9062 89.4805 65.7354C89.7409 65.5645 89.9565 65.304 90.1274 64.9541C90.3065 64.6042 90.453 64.1566 90.5669 63.6113C90.6808 63.0579 90.7703 62.3866 90.8354 61.5972C90.9006 60.8078 90.9453 59.8841 90.9697 58.8262L91.2139 50.7939ZM107.376 63.1597L113.565 50.7939H116.434V68.5674H113.528V56.2749L107.376 68.5674H104.483V50.7939H107.376V63.1597ZM125.918 50.7939V68.5674H122.964V50.7939H125.918ZM130.447 50.7939V53.2842H118.484V50.7939H130.447ZM135.818 50.7939V68.5674H132.852V50.7939H135.818ZM144.693 50.7939L138.76 60.9624H134.964L134.537 58.228H137.1L141.08 50.7939H144.693ZM141.604 68.5674L137.186 60.4741L139.09 58.0815L145.157 68.5674H141.604ZM152.981 53.2354L148.685 68.5674H145.584L151.224 50.7939H153.152L152.981 53.2354ZM156.412 68.5674L152.103 53.2354L151.895 50.7939H153.86L159.524 68.5674H156.412ZM156.485 61.9634V64.4536H148.208V61.9634H156.485ZM179.349 50.7939V68.5674H176.395V53.2842H170.34V68.5674H167.374V50.7939H179.349ZM188.638 61.9756H184.891V59.4976H188.638C189.249 59.4976 189.741 59.3674 190.115 59.1069C190.498 58.8465 190.774 58.4884 190.945 58.0327C191.124 57.577 191.214 57.0602 191.214 56.4824C191.214 55.929 191.124 55.4082 190.945 54.9199C190.774 54.4316 190.502 54.0369 190.127 53.7358C189.753 53.4347 189.257 53.2842 188.638 53.2842H185.721V68.5674H182.767V50.7939H188.638C189.81 50.7939 190.811 51.0381 191.641 51.5264C192.471 52.0146 193.106 52.686 193.545 53.5405C193.985 54.3869 194.205 55.3594 194.205 56.458C194.205 57.6055 193.985 58.5902 193.545 59.4121C193.106 60.234 192.471 60.8688 191.641 61.3164C190.811 61.7559 189.81 61.9756 188.638 61.9756ZM208.89 58.228V61.2554C208.89 62.5086 208.743 63.6073 208.45 64.5513C208.165 65.4953 207.75 66.2847 207.205 66.9194C206.668 67.5461 206.017 68.0181 205.252 68.3354C204.495 68.6528 203.649 68.8115 202.713 68.8115C201.785 68.8115 200.939 68.6528 200.174 68.3354C199.417 68.0181 198.762 67.5461 198.208 66.9194C197.663 66.2847 197.24 65.4953 196.939 64.5513C196.646 63.6073 196.5 62.5086 196.5 61.2554V58.228C196.5 56.9585 196.646 55.8477 196.939 54.8955C197.232 53.9352 197.651 53.1336 198.196 52.4907C198.75 51.8478 199.405 51.3636 200.162 51.0381C200.927 50.7126 201.769 50.5498 202.688 50.5498C203.624 50.5498 204.471 50.7126 205.228 51.0381C205.993 51.3636 206.648 51.8478 207.193 52.4907C207.738 53.1336 208.157 53.9352 208.45 54.8955C208.743 55.8477 208.89 56.9585 208.89 58.228ZM205.948 61.2554V58.2036C205.948 57.3003 205.875 56.5272 205.728 55.8843C205.59 55.2332 205.382 54.7043 205.105 54.2974C204.829 53.8823 204.487 53.5771 204.08 53.3818C203.681 53.1784 203.217 53.0767 202.688 53.0767C202.176 53.0767 201.716 53.1784 201.309 53.3818C200.91 53.5771 200.569 53.8823 200.284 54.2974C200.007 54.7043 199.795 55.2332 199.649 55.8843C199.511 56.5272 199.441 57.3003 199.441 58.2036V61.2554C199.441 62.1424 199.515 62.9074 199.661 63.5503C199.808 64.1851 200.019 64.7059 200.296 65.1128C200.581 65.5116 200.927 65.8086 201.333 66.0039C201.74 66.1992 202.2 66.2969 202.713 66.2969C203.234 66.2969 203.698 66.1992 204.104 66.0039C204.511 65.8086 204.849 65.5116 205.118 65.1128C205.394 64.7059 205.602 64.1851 205.74 63.5503C205.879 62.9074 205.948 62.1424 205.948 61.2554ZM212.906 50.7939H215.604L219.693 64.0142L223.77 50.7939H226.272L220.804 68.5674H218.57L212.906 50.7939ZM211.893 50.7939H214.383L214.786 62.1099V68.5674H211.893V50.7939ZM224.979 50.7939H227.481V68.5674H224.588V62.1099L224.979 50.7939Z" fill="black"/>
</g>
<defs>
<clipPath id="clip0_22_6">
<rect width="255" height="120" fill="white"/>
</clipPath>
</defs>
</svg>
