<svg width="255" height="120" viewBox="0 0 255 120" fill="none" xmlns="http://www.w3.org/2000/svg">
<g clip-path="url(#clip0_102_6)">
<rect width="257" height="120" fill="white"/>
<mask id="path-2-outside-1_102_6" maskUnits="userSpaceOnUse" x="211" y="-8" width="54" height="55" fill="black">
<rect fill="white" x="211" y="-8" width="54" height="55"/>
<path fill-rule="evenodd" clip-rule="evenodd" d="M257 38.1215V0L220 0C220.294 7.48268 226.454 13.4585 234.008 13.4585C234.196 13.4585 234.383 13.4548 234.569 13.4475V23.5524H242.431C242.424 23.7384 242.42 23.9254 242.42 24.1132C242.42 31.8558 248.697 38.1325 256.439 38.1325C256.627 38.1325 256.814 38.1288 257 38.1215Z"/>
</mask>
<path fill-rule="evenodd" clip-rule="evenodd" d="M257 38.1215V0L220 0C220.294 7.48268 226.454 13.4585 234.008 13.4585C234.196 13.4585 234.383 13.4548 234.569 13.4475V23.5524H242.431C242.424 23.7384 242.42 23.9254 242.42 24.1132C242.42 31.8558 248.697 38.1325 256.439 38.1325C256.627 38.1325 256.814 38.1288 257 38.1215Z" fill="#DC502F"/>
<path d="M257 0L265 0V-8L257 -8V0ZM257 38.1215L257.314 46.1153L265 45.813V38.1215H257ZM220 0V-8L211.679 -8L212.006 0.314457L220 0ZM234.569 13.4475L242.569 13.4475V5.12667L234.255 5.4537L234.569 13.4475ZM234.569 23.5524L226.569 23.5524V31.5524L234.569 31.5524V23.5524ZM242.431 23.5524L250.425 23.8668L250.752 15.5524L242.431 15.5524V23.5524ZM249 0V38.1215H265V0L249 0ZM220 8L257 8V-8L220 -8V8ZM212.006 0.314457C212.469 12.0727 222.141 21.4585 234.008 21.4585V5.45853C230.766 5.45853 228.12 2.89263 227.994 -0.314457L212.006 0.314457ZM234.008 21.4585C234.301 21.4585 234.593 21.4528 234.884 21.4413L234.255 5.4537C234.173 5.4569 234.091 5.45853 234.008 5.45853V21.4585ZM226.569 13.4475V23.5524L242.569 23.5524V13.4475L226.569 13.4475ZM234.569 31.5524H242.431V15.5524L234.569 15.5524V31.5524ZM234.437 23.238C234.426 23.5287 234.42 23.8205 234.42 24.1132L250.42 24.1132C250.42 24.0303 250.422 23.9481 250.425 23.8668L234.437 23.238ZM234.42 24.1132C234.42 36.2741 244.278 46.1325 256.439 46.1325V30.1325C253.115 30.1325 250.42 27.4376 250.42 24.1132L234.42 24.1132ZM256.439 46.1325C256.732 46.1325 257.024 46.1267 257.314 46.1153L256.686 30.1277C256.604 30.1309 256.522 30.1325 256.439 30.1325V46.1325Z" fill="#D9D9D9" mask="url(#path-2-outside-1_102_6)"/>
<rect x="32.9414" y="47.5087" width="24.1938" height="24.7198" fill="#D9D9D9" stroke="black" stroke-width="1.57786"/>
<path fill-rule="evenodd" clip-rule="evenodd" d="M38.3739 41.763H36.0192C35.9506 39.9863 34.5154 38.5673 32.7549 38.5673C30.9945 38.5673 29.5593 39.9863 29.4907 41.763H27.1361V43.8961C25.3925 43.966 23.9999 45.4284 23.9999 47.2223C23.9999 49.0163 25.3925 50.4787 27.1361 50.5486V52.4153H29.4907C29.489 52.4595 29.4882 52.5039 29.4882 52.5486C29.4882 54.387 30.9507 55.8774 32.7549 55.8774C34.5591 55.8774 36.0217 54.387 36.0217 52.5486C36.0217 52.5039 36.0209 52.4595 36.0192 52.4153H38.3739V50.5486C38.4172 50.5503 38.4608 50.5512 38.5046 50.5512C40.3088 50.5512 41.7714 49.0608 41.7714 47.2223C41.7714 45.3839 40.3088 43.8935 38.5046 43.8935C38.4608 43.8935 38.4172 43.8944 38.3739 43.8961V41.763Z" fill="#DC502F"/>
<path d="M36.0193 41.7631L35.2309 41.7935L35.2602 42.552H36.0193V41.7631ZM38.374 41.7631H39.1629V40.9742H38.374V41.7631ZM29.4908 41.7631V42.552H30.2499L30.2792 41.7935L29.4908 41.7631ZM27.1362 41.7631V40.9742H26.3473V41.7631H27.1362ZM27.1362 43.8962L27.1678 44.6845L27.9252 44.6542V43.8962H27.1362ZM27.1362 50.5486H27.9252V49.7907L27.1678 49.7604L27.1362 50.5486ZM27.1362 52.4154H26.3473V53.2043H27.1362V52.4154ZM29.4908 52.4154L30.2792 52.4458L30.3108 51.6264H29.4908V52.4154ZM36.0193 52.4154V51.6264H35.1993L35.2309 52.4458L36.0193 52.4154ZM38.374 52.4154V53.2043H39.1629V52.4154H38.374ZM38.374 50.5486L38.4056 49.7604L37.5851 49.7275V50.5486H38.374ZM38.374 43.8962H37.5851V44.7174L38.4056 44.6845L38.374 43.8962ZM36.0193 42.552H38.374V40.9742H36.0193V42.552ZM32.755 39.3563C34.0768 39.3563 35.1781 40.4254 35.2309 41.7935L36.8076 41.7327C36.7233 39.5473 34.9542 37.7785 32.755 37.7785V39.3563ZM30.2792 41.7935C30.332 40.4254 31.4333 39.3563 32.755 39.3563V37.7785C30.5559 37.7785 28.7868 39.5473 28.7025 41.7327L30.2792 41.7935ZM27.1362 42.552H29.4908V40.9742H27.1362V42.552ZM27.9252 43.8962V41.7631H26.3473V43.8962H27.9252ZM24.7889 47.2224C24.7889 45.8404 25.8586 44.7369 27.1678 44.6845L27.1047 43.1079C24.9265 43.1952 23.2111 45.0166 23.2111 47.2224H24.7889ZM27.1678 49.7604C25.8586 49.7079 24.7889 48.6044 24.7889 47.2224H23.2111C23.2111 49.4282 24.9265 51.2497 27.1047 51.3369L27.1678 49.7604ZM27.9252 52.4154V50.5486H26.3473V52.4154H27.9252ZM29.4908 51.6264H27.1362V53.2043H29.4908V51.6264ZM30.2772 52.5486C30.2772 52.5142 30.2778 52.4799 30.2792 52.4458L28.7025 52.3849C28.7004 52.4393 28.6993 52.4938 28.6993 52.5486H30.2772ZM32.755 55.0885C31.4005 55.0885 30.2772 53.9655 30.2772 52.5486H28.6993C28.6993 54.8088 30.5012 56.6664 32.755 56.6664V55.0885ZM35.2329 52.5486C35.2329 53.9655 34.1096 55.0885 32.755 55.0885V56.6664C35.0089 56.6664 36.8108 54.8088 36.8108 52.5486H35.2329ZM35.2309 52.4458C35.2322 52.4799 35.2329 52.5142 35.2329 52.5486H36.8108C36.8108 52.4939 36.8097 52.4393 36.8076 52.3849L35.2309 52.4458ZM38.374 51.6264H36.0193V53.2043H38.374V51.6264ZM37.5851 50.5486V52.4154H39.1629V50.5486H37.5851ZM38.5047 49.7623C38.4714 49.7623 38.4384 49.7617 38.4056 49.7604L38.3424 51.3369C38.3963 51.3391 38.4504 51.3402 38.5047 51.3402V49.7623ZM40.9825 47.2224C40.9825 48.6392 39.8592 49.7623 38.5047 49.7623V51.3402C40.7585 51.3402 42.5604 49.4825 42.5604 47.2224H40.9825ZM38.5047 44.6825C39.8592 44.6825 40.9825 45.8056 40.9825 47.2224H42.5604C42.5604 44.9623 40.7585 43.1047 38.5047 43.1047V44.6825ZM38.4056 44.6845C38.4384 44.6832 38.4714 44.6825 38.5047 44.6825V43.1047C38.4504 43.1047 38.3963 43.1058 38.3424 43.1079L38.4056 44.6845ZM37.5851 41.7631V43.8962H39.1629V41.7631H37.5851Z" fill="black"/>
<path fill-rule="evenodd" clip-rule="evenodd" d="M62.6786 41.763H60.324C60.2554 39.9862 58.8202 38.5672 57.0597 38.5672C55.2993 38.5672 53.8641 39.9862 53.7955 41.763H51.4408V43.8961C49.6972 43.966 48.3047 45.4284 48.3047 47.2223C48.3047 49.0162 49.6972 50.4786 51.4408 50.5485V52.4152H53.7955C53.7938 52.4594 53.7929 52.5039 53.7929 52.5485C53.7929 54.387 55.2555 55.8773 57.0597 55.8773C58.8639 55.8773 60.3265 54.387 60.3265 52.5485C60.3265 52.5039 60.3257 52.4594 60.324 52.4152H62.6786V50.5485C62.722 50.5502 62.7656 50.5511 62.8094 50.5511C64.6136 50.5511 66.0761 49.0607 66.0761 47.2223C66.0761 45.3838 64.6136 43.8935 62.8094 43.8935C62.7656 43.8935 62.722 43.8943 62.6786 43.8961V41.763Z" fill="#DC502F"/>
<path d="M60.324 41.7631L59.5356 41.7935L59.5649 42.552H60.324V41.7631ZM62.6786 41.7631H63.4675V40.9741H62.6786V41.7631ZM53.7955 41.7631V42.552H54.5546L54.5838 41.7935L53.7955 41.7631ZM51.4408 41.7631V40.9741H50.6519V41.7631H51.4408ZM51.4408 43.8962L51.4724 44.6844L52.2297 44.6541V43.8962H51.4408ZM51.4408 50.5486H52.2297V49.7906L51.4724 49.7603L51.4408 50.5486ZM51.4408 52.4153H50.6519V53.2042H51.4408V52.4153ZM53.7955 52.4153L54.5839 52.4458L54.6155 51.6264H53.7955V52.4153ZM60.324 52.4153V51.6264H59.504L59.5356 52.4458L60.324 52.4153ZM62.6786 52.4153V53.2042H63.4675V52.4153H62.6786ZM62.6786 50.5486L62.7102 49.7603L61.8897 49.7274V50.5486H62.6786ZM62.6786 43.8962H61.8897V44.7174L62.7102 44.6845L62.6786 43.8962ZM60.324 42.552H62.6786V40.9741H60.324V42.552ZM57.0597 39.3563C58.3815 39.3563 59.4828 40.4253 59.5356 41.7935L61.1123 41.7326C61.028 39.5472 59.2589 37.7784 57.0597 37.7784V39.3563ZM54.5838 41.7935C54.6366 40.4253 55.7379 39.3563 57.0597 39.3563V37.7784C54.8606 37.7784 53.0915 39.5472 53.0072 41.7326L54.5838 41.7935ZM51.4408 42.552H53.7955V40.9741H51.4408V42.552ZM52.2297 43.8962V41.7631H50.6519V43.8962H52.2297ZM49.0936 47.2224C49.0936 45.8404 50.1633 44.7369 51.4724 44.6844L51.4092 43.1079C49.2311 43.1952 47.5158 45.0166 47.5158 47.2224H49.0936ZM51.4724 49.7603C50.1633 49.7078 49.0936 48.6043 49.0936 47.2224H47.5158C47.5158 49.4281 49.2311 51.2496 51.4092 51.3369L51.4724 49.7603ZM52.2297 52.4153V50.5486H50.6519V52.4153H52.2297ZM53.7955 51.6264H51.4408V53.2042H53.7955V51.6264ZM54.5819 52.5486C54.5819 52.5141 54.5825 52.4798 54.5839 52.4458L53.0072 52.3849C53.0051 52.4392 53.004 52.4938 53.004 52.5486H54.5819ZM57.0597 55.0885C55.7052 55.0885 54.5819 53.9654 54.5819 52.5486H53.004C53.004 54.8087 54.8059 56.6663 57.0597 56.6663V55.0885ZM59.5376 52.5486C59.5376 53.9654 58.4143 55.0885 57.0597 55.0885V56.6663C59.3136 56.6663 61.1155 54.8087 61.1155 52.5486H59.5376ZM59.5356 52.4458C59.5369 52.4798 59.5376 52.5141 59.5376 52.5486H61.1155C61.1155 52.4938 61.1144 52.4392 61.1123 52.3849L59.5356 52.4458ZM62.6786 51.6264H60.324V53.2042H62.6786V51.6264ZM61.8897 50.5486V52.4153H63.4675V50.5486H61.8897ZM62.8094 49.7623C62.7761 49.7623 62.7431 49.7616 62.7102 49.7603L62.647 51.3369C62.7009 51.339 62.755 51.3401 62.8094 51.3401V49.7623ZM65.2872 47.2224C65.2872 48.6392 64.1639 49.7623 62.8094 49.7623V51.3401C65.0632 51.3401 66.8651 49.4825 66.8651 47.2224H65.2872ZM62.8094 44.6825C64.1639 44.6825 65.2872 45.8056 65.2872 47.2224H66.8651C66.8651 44.9623 65.0632 43.1046 62.8094 43.1046V44.6825ZM62.7102 44.6845C62.7431 44.6831 62.7761 44.6825 62.8094 44.6825V43.1046C62.755 43.1046 62.7009 43.1057 62.647 43.1079L62.7102 44.6845ZM61.8897 41.7631V43.8962H63.4675V41.7631H61.8897Z" fill="black"/>
<path fill-rule="evenodd" clip-rule="evenodd" d="M62.6786 66.5288H60.324C60.2554 64.7521 58.8202 63.3331 57.0597 63.3331C55.2993 63.3331 53.8641 64.7521 53.7955 66.5288H51.4408V68.6619C49.6972 68.7318 48.3047 70.1943 48.3047 71.9882C48.3047 73.782 49.6972 75.2445 51.4408 75.3144V77.1811H53.7955C53.7938 77.2253 53.7929 77.2697 53.7929 77.3144C53.7929 79.1528 55.2555 80.6432 57.0597 80.6432C58.8639 80.6432 60.3265 79.1528 60.3265 77.3144C60.3265 77.2697 60.3257 77.2253 60.324 77.1811H62.6786V75.3144C62.7219 75.3161 62.7655 75.317 62.8093 75.317C64.6135 75.317 66.0761 73.8266 66.0761 71.9882C66.0761 70.1497 64.6135 68.6593 62.8093 68.6593C62.7655 68.6593 62.7219 68.6602 62.6786 68.6619V66.5288Z" fill="#DC502F"/>
<path d="M60.324 66.5288L59.5356 66.5592L59.5649 67.3177H60.324V66.5288ZM62.6786 66.5288H63.4675V65.7399H62.6786V66.5288ZM53.7955 66.5288V67.3177H54.5546L54.5838 66.5592L53.7955 66.5288ZM51.4408 66.5288V65.7399H50.6519V66.5288H51.4408ZM51.4408 68.6619L51.4724 69.4502L52.2297 69.4198V68.6619H51.4408ZM51.4408 75.3143H52.2297V74.5564L51.4724 74.526L51.4408 75.3143ZM51.4408 77.1811H50.6519V77.97H51.4408V77.1811ZM53.7955 77.1811L54.5839 77.2115L54.6155 76.3921H53.7955V77.1811ZM60.324 77.1811V76.3921H59.504L59.5356 77.2115L60.324 77.1811ZM62.6786 77.1811V77.97H63.4675V77.1811H62.6786ZM62.6786 75.3143L62.7102 74.526L61.8897 74.4931V75.3143H62.6786ZM62.6786 68.6619H61.8897V69.4831L62.7102 69.4502L62.6786 68.6619ZM60.324 67.3177H62.6786V65.7399H60.324V67.3177ZM57.0597 64.122C58.3815 64.122 59.4828 65.1911 59.5356 66.5592L61.1123 66.4984C61.028 64.313 59.2589 62.5441 57.0597 62.5441V64.122ZM54.5838 66.5592C54.6366 65.1911 55.7379 64.122 57.0597 64.122V62.5441C54.8606 62.5441 53.0915 64.313 53.0072 66.4984L54.5838 66.5592ZM51.4408 67.3177H53.7955V65.7399H51.4408V67.3177ZM52.2297 68.6619V66.5288H50.6519V68.6619H52.2297ZM49.0936 71.9881C49.0936 70.6061 50.1633 69.5027 51.4724 69.4502L51.4092 67.8736C49.2311 67.9609 47.5158 69.7824 47.5158 71.9881H49.0936ZM51.4724 74.526C50.1633 74.4736 49.0936 73.3701 49.0936 71.9881H47.5158C47.5158 74.1939 49.2311 76.0153 51.4092 76.1026L51.4724 74.526ZM52.2297 77.1811V75.3143H50.6519V77.1811H52.2297ZM53.7955 76.3921H51.4408V77.97H53.7955V76.3921ZM54.5819 77.3143C54.5819 77.2799 54.5825 77.2456 54.5839 77.2115L53.0072 77.1506C53.0051 77.2049 53.004 77.2595 53.004 77.3143H54.5819ZM57.0597 79.8542C55.7052 79.8542 54.5819 78.7311 54.5819 77.3143H53.004C53.004 79.5745 54.8059 81.4321 57.0597 81.4321V79.8542ZM59.5376 77.3143C59.5376 78.7311 58.4143 79.8542 57.0597 79.8542V81.4321C59.3136 81.4321 61.1155 79.5745 61.1155 77.3143H59.5376ZM59.5356 77.2115C59.5369 77.2456 59.5376 77.2799 59.5376 77.3143H61.1155C61.1155 77.2595 61.1144 77.205 61.1123 77.1506L59.5356 77.2115ZM62.6786 76.3921H60.324V77.97H62.6786V76.3921ZM61.8897 75.3143V77.1811H63.4675V75.3143H61.8897ZM62.8093 74.528C62.776 74.528 62.743 74.5274 62.7102 74.526L62.647 76.1026C62.7009 76.1048 62.755 76.1059 62.8093 76.1059V74.528ZM65.2871 71.9881C65.2871 73.4049 64.1638 74.528 62.8093 74.528V76.1059C65.0631 76.1059 66.865 74.2482 66.865 71.9881H65.2871ZM62.8093 69.4482C64.1638 69.4482 65.2871 70.5713 65.2871 71.9881H66.865C66.865 69.728 65.0631 67.8704 62.8093 67.8704V69.4482ZM62.7102 69.4502C62.743 69.4489 62.776 69.4482 62.8093 69.4482V67.8704C62.755 67.8704 62.7009 67.8714 62.647 67.8736L62.7102 69.4502ZM61.8897 66.5288V68.6619H63.4675V66.5288H61.8897Z" fill="black"/>
<path fill-rule="evenodd" clip-rule="evenodd" d="M38.374 66.5288H36.0193C35.9507 64.7521 34.5155 63.3331 32.7551 63.3331C30.9946 63.3331 29.5594 64.7521 29.4908 66.5288H27.1363V68.6619C25.3926 68.7318 24 70.1943 24 71.9882C24 73.7821 25.3926 75.2445 27.1363 75.3144V77.1811H29.4908C29.4891 77.2253 29.4883 77.2697 29.4883 77.3144C29.4883 79.1528 30.9509 80.6432 32.7551 80.6432C34.5593 80.6432 36.0219 79.1528 36.0219 77.3144C36.0219 77.2697 36.021 77.2253 36.0193 77.1811H38.374V75.3144C38.4173 75.3161 38.4609 75.317 38.5046 75.317C40.3088 75.317 41.7714 73.8266 41.7714 71.9882C41.7714 70.1497 40.3088 68.6593 38.5046 68.6593C38.4609 68.6593 38.4173 68.6602 38.374 68.6619V66.5288Z" fill="#DC502F"/>
<path d="M36.0193 66.5288L35.2309 66.5592L35.2602 67.3177H36.0193V66.5288ZM38.374 66.5288H39.1629V65.7399H38.374V66.5288ZM29.4908 66.5288V67.3177H30.2499L30.2792 66.5592L29.4908 66.5288ZM27.1362 66.5288V65.7399H26.3473V66.5288H27.1362ZM27.1362 68.6619L27.1678 69.4502L27.9252 69.4199V68.6619H27.1362ZM27.1362 75.3143H27.9252V74.5564L27.1678 74.526L27.1362 75.3143ZM27.1362 77.1811H26.3473V77.97H27.1362V77.1811ZM29.4908 77.1811L30.2792 77.2115L30.3108 76.3921H29.4908V77.1811ZM36.0193 77.1811V76.3921H35.1993L35.2309 77.2115L36.0193 77.1811ZM38.374 77.1811V77.97H39.1629V77.1811H38.374ZM38.374 75.3143L38.4056 74.526L37.5851 74.4932V75.3143H38.374ZM38.374 68.6619H37.5851V69.4831L38.4056 69.4502L38.374 68.6619ZM36.0193 67.3177H38.374V65.7399H36.0193V67.3177ZM32.755 64.122C34.0768 64.122 35.1781 65.1911 35.2309 66.5592L36.8076 66.4984C36.7233 64.313 34.9542 62.5441 32.755 62.5441V64.122ZM30.2792 66.5592C30.332 65.1911 31.4333 64.122 32.755 64.122V62.5441C30.5559 62.5441 28.7868 64.313 28.7025 66.4984L30.2792 66.5592ZM27.1362 67.3177H29.4908V65.7399H27.1362V67.3177ZM27.9252 68.6619V66.5288H26.3473V68.6619H27.9252ZM24.7889 71.9881C24.7889 70.6061 25.8586 69.5026 27.1678 69.4502L27.1047 67.8736C24.9265 67.9608 23.2111 69.7823 23.2111 71.9881H24.7889ZM27.1678 74.526C25.8586 74.4736 24.7889 73.3701 24.7889 71.9881H23.2111C23.2111 74.1939 24.9265 76.0154 27.1047 76.1026L27.1678 74.526ZM27.9252 77.1811V75.3143H26.3473V77.1811H27.9252ZM29.4908 76.3921H27.1362V77.97H29.4908V76.3921ZM30.2772 77.3143C30.2772 77.2799 30.2778 77.2456 30.2792 77.2115L28.7025 77.1506C28.7004 77.2049 28.6993 77.2595 28.6993 77.3143H30.2772ZM32.755 79.8542C31.4005 79.8542 30.2772 78.7311 30.2772 77.3143H28.6993C28.6993 79.5745 30.5012 81.4321 32.755 81.4321V79.8542ZM35.2329 77.3143C35.2329 78.7311 34.1096 79.8542 32.755 79.8542V81.4321C35.0089 81.4321 36.8108 79.5745 36.8108 77.3143H35.2329ZM35.2309 77.2115C35.2322 77.2456 35.2329 77.2799 35.2329 77.3143H36.8108C36.8108 77.2595 36.8097 77.205 36.8076 77.1506L35.2309 77.2115ZM38.374 76.3921H36.0193V77.97H38.374V76.3921ZM37.5851 75.3143V77.1811H39.1629V75.3143H37.5851ZM38.5046 74.528C38.4714 74.528 38.4384 74.5274 38.4056 74.526L38.3424 76.1026C38.3963 76.1048 38.4503 76.1059 38.5046 76.1059V74.528ZM40.9824 71.9881C40.9824 73.4049 39.8591 74.528 38.5046 74.528V76.1059C40.7584 76.1059 42.5603 74.2482 42.5603 71.9881H40.9824ZM38.5046 69.4482C39.8591 69.4482 40.9824 70.5713 40.9824 71.9881H42.5603C42.5603 69.728 40.7584 67.8704 38.5046 67.8704V69.4482ZM38.4056 69.4502C38.4384 69.4489 38.4714 69.4482 38.5046 69.4482V67.8704C38.4503 67.8704 38.3963 67.8714 38.3424 67.8736L38.4056 69.4502ZM37.5851 66.5288V68.6619H39.1629V66.5288H37.5851Z" fill="black"/>
<path d="M78.125 48.3594V64H75.5146V48.3594H78.125ZM85.9346 48.3594L80.7139 57.3076H77.373L76.9971 54.9014H79.2529L82.7549 48.3594H85.9346ZM83.2168 64L79.3281 56.8779L81.0039 54.7725L86.3428 64H83.2168ZM98.1055 54.9014V57.5654C98.1055 58.6683 97.9766 59.6351 97.7188 60.4658C97.4681 61.2965 97.1029 61.9912 96.623 62.5498C96.1504 63.1012 95.5775 63.5166 94.9043 63.7959C94.2383 64.0752 93.4935 64.2148 92.6699 64.2148C91.8535 64.2148 91.1087 64.0752 90.4355 63.7959C89.7695 63.5166 89.193 63.1012 88.7061 62.5498C88.2262 61.9912 87.8538 61.2965 87.5889 60.4658C87.3311 59.6351 87.2021 58.6683 87.2021 57.5654V54.9014C87.2021 53.7842 87.3311 52.8066 87.5889 51.9688C87.8467 51.1237 88.2155 50.4183 88.6953 49.8525C89.1823 49.2868 89.7588 48.8607 90.4248 48.5742C91.098 48.2878 91.8392 48.1445 92.6484 48.1445C93.472 48.1445 94.2168 48.2878 94.8828 48.5742C95.556 48.8607 96.1325 49.2868 96.6123 49.8525C97.0921 50.4183 97.4609 51.1237 97.7188 51.9688C97.9766 52.8066 98.1055 53.7842 98.1055 54.9014ZM95.5166 57.5654V54.8799C95.5166 54.085 95.4521 53.4046 95.3232 52.8389C95.2015 52.266 95.0189 51.8005 94.7754 51.4424C94.5319 51.0771 94.2311 50.8086 93.873 50.6367C93.5221 50.4577 93.1139 50.3682 92.6484 50.3682C92.1973 50.3682 91.7926 50.4577 91.4346 50.6367C91.0837 50.8086 90.7829 51.0771 90.5322 51.4424C90.2887 51.8005 90.1025 52.266 89.9736 52.8389C89.8519 53.4046 89.791 54.085 89.791 54.8799V57.5654C89.791 58.346 89.8555 59.0192 89.9844 59.585C90.1133 60.1436 90.2995 60.6019 90.543 60.96C90.7936 61.3109 91.098 61.5723 91.4561 61.7441C91.8141 61.916 92.2188 62.002 92.6699 62.002C93.1283 62.002 93.5365 61.916 93.8945 61.7441C94.2526 61.5723 94.5498 61.3109 94.7861 60.96C95.0296 60.6019 95.2122 60.1436 95.334 59.585C95.4557 59.0192 95.5166 58.346 95.5166 57.5654ZM105.775 56.9531H102.585L102.574 54.9551H105.399C105.836 54.9551 106.209 54.8691 106.517 54.6973C106.825 54.5254 107.057 54.2747 107.215 53.9453C107.38 53.6159 107.462 53.2184 107.462 52.7529C107.462 52.2373 107.39 51.8184 107.247 51.4961C107.104 51.1667 106.878 50.9268 106.57 50.7764C106.27 50.626 105.883 50.5508 105.41 50.5508H103.358V64H100.748V48.3594H105.41C106.141 48.3594 106.792 48.4453 107.365 48.6172C107.945 48.7819 108.436 49.0361 108.837 49.3799C109.238 49.7236 109.542 50.1641 109.75 50.7012C109.965 51.2311 110.072 51.8613 110.072 52.5918C110.072 53.2292 109.936 53.8164 109.664 54.3535C109.392 54.8835 108.987 55.3203 108.45 55.6641C107.92 56.0007 107.261 56.2012 106.474 56.2656L105.775 56.9531ZM105.679 64H101.726L102.929 61.8193H105.679C106.144 61.8193 106.527 61.7191 106.828 61.5186C107.129 61.318 107.354 61.0387 107.505 60.6807C107.655 60.3226 107.73 59.9036 107.73 59.4238C107.73 58.9225 107.666 58.4857 107.537 58.1133C107.408 57.7409 107.201 57.4544 106.914 57.2539C106.628 57.0534 106.248 56.9531 105.775 56.9531H103.144L103.165 54.9551H106.527L107.129 55.7178C107.881 55.7321 108.493 55.9183 108.966 56.2764C109.438 56.6273 109.786 57.082 110.008 57.6406C110.23 58.1992 110.341 58.7972 110.341 59.4346C110.341 60.43 110.155 61.2679 109.782 61.9482C109.41 62.6214 108.876 63.1335 108.182 63.4844C107.494 63.8281 106.66 64 105.679 64ZM115.615 48.3594V64H113.005V48.3594H115.615ZM123.425 48.3594L118.204 57.3076H114.863L114.487 54.9014H116.743L120.245 48.3594H123.425ZM120.707 64L116.818 56.8779L118.494 54.7725L123.833 64H120.707ZM130.719 50.5078L126.938 64H124.209L129.172 48.3594H130.869L130.719 50.5078ZM133.737 64L129.945 50.5078L129.763 48.3594H131.492L136.477 64H133.737ZM133.802 58.1885V60.3799H126.519V58.1885H133.802ZM153.922 48.3594V64H151.322V50.5508H145.994V64H143.384V48.3594H153.922ZM165.438 48.3594V50.5508H159.282V48.3594H165.438ZM167.468 48.3594V64H164.868V48.3594H167.468ZM158.777 48.3594H161.366L161.065 56.1475C161.022 57.2861 160.94 58.2887 160.818 59.1553C160.697 60.0146 160.528 60.7523 160.313 61.3682C160.099 61.984 159.823 62.4854 159.486 62.8721C159.157 63.2588 158.763 63.5452 158.305 63.7314C157.854 63.9105 157.331 64 156.736 64H156.092V61.8193L156.468 61.7764C156.769 61.7477 157.03 61.6582 157.252 61.5078C157.481 61.3574 157.671 61.1283 157.821 60.8203C157.979 60.5124 158.108 60.1185 158.208 59.6387C158.308 59.1517 158.387 58.5609 158.444 57.8662C158.502 57.1715 158.541 56.3587 158.562 55.4277L158.777 48.3594ZM173 59.2412L178.446 48.3594H180.971V64H178.414V53.1826L173 64H170.454V48.3594H173V59.2412ZM189.317 48.3594V64H186.718V48.3594H189.317ZM193.303 48.3594V50.5508H182.775V48.3594H193.303ZM198.029 48.3594V64H195.419V48.3594H198.029ZM205.839 48.3594L200.618 57.3076H197.277L196.901 54.9014H199.157L202.659 48.3594H205.839ZM203.121 64L199.232 56.8779L200.908 54.7725L206.247 64H203.121ZM213.133 50.5078L209.352 64H206.623L211.586 48.3594H213.283L213.133 50.5078ZM216.151 64L212.359 50.5078L212.177 48.3594H213.906L218.891 64H216.151ZM216.216 58.1885V60.3799H208.933V58.1885H216.216Z" fill="black"/>
<path d="M76.4868 67.8148V74H75.7052V67.8148H76.4868ZM79.6686 67.8148L77.4341 71.2175H76.1767L76.045 70.5378H76.9626L78.7 67.8148H79.6686ZM78.8615 74L77.0008 71.1113L77.4384 70.3934L79.813 74H78.8615ZM82.6932 73.2141V70.7205C82.6932 70.5393 82.6649 70.3934 82.6083 70.283C82.5544 70.1725 82.4723 70.0918 82.3619 70.0408C82.2542 69.9898 82.1183 69.9644 81.9541 69.9644C81.7955 69.9644 81.6581 69.9969 81.542 70.0621C81.4287 70.1272 81.3409 70.2136 81.2786 70.3212C81.2191 70.4288 81.1894 70.5478 81.1894 70.678H80.4375C80.4375 70.5138 80.4729 70.3509 80.5437 70.1895C80.6173 70.0281 80.7221 69.8822 80.8581 69.752C80.994 69.6188 81.1568 69.5141 81.3466 69.4376C81.5392 69.3583 81.7544 69.3187 81.9923 69.3187C82.2755 69.3187 82.5261 69.3654 82.7442 69.4588C82.9623 69.5495 83.1336 69.6981 83.2582 69.9049C83.3828 70.1116 83.4451 70.3863 83.4451 70.729V72.9975C83.4451 73.1504 83.4564 73.3132 83.4791 73.486C83.5046 73.6587 83.54 73.8074 83.5853 73.932V74H82.8079C82.7711 73.9094 82.7428 73.789 82.7229 73.6389C82.7031 73.486 82.6932 73.3444 82.6932 73.2141ZM82.8122 71.2133L82.8207 71.7655H82.2981C82.1197 71.7655 81.9569 71.7854 81.8096 71.825C81.6652 71.8646 81.5406 71.9227 81.4358 71.9992C81.331 72.0728 81.2503 72.1648 81.1937 72.2753C81.1398 72.3857 81.1129 72.5118 81.1129 72.6534C81.1129 72.8375 81.1384 72.9847 81.1894 73.0952C81.2404 73.2028 81.3168 73.2807 81.4188 73.3288C81.5208 73.377 81.6496 73.401 81.8054 73.401C81.9951 73.401 82.1622 73.3571 82.3066 73.2693C82.4511 73.1815 82.5629 73.0753 82.6422 72.9507C82.7244 72.8261 82.7626 72.71 82.7569 72.6024L82.9226 72.955C82.9113 73.0654 82.8745 73.1858 82.8122 73.3161C82.7527 73.4435 82.6691 73.5667 82.5615 73.6856C82.4539 73.8018 82.3265 73.898 82.1792 73.9745C82.0348 74.0481 81.8719 74.085 81.6907 74.085C81.4245 74.085 81.1908 74.034 80.9897 73.932C80.7915 73.8301 80.6372 73.68 80.5267 73.4817C80.4163 73.2835 80.361 73.0385 80.361 72.7468C80.361 72.5259 80.3993 72.322 80.4757 72.1351C80.5522 71.9482 80.6655 71.7868 80.8156 71.6508C80.9657 71.5121 81.154 71.4044 81.3806 71.328C81.61 71.2515 81.8748 71.2133 82.175 71.2133H82.8122ZM87.5912 69.4036V74H86.8393V69.4036H87.5912ZM87.3363 71.5149V72.1606C87.1947 72.2201 87.056 72.2739 86.92 72.322C86.7841 72.3673 86.6411 72.4042 86.491 72.4325C86.3409 72.458 86.1738 72.4707 85.9897 72.4707C85.6923 72.4707 85.4304 72.4084 85.2038 72.2838C84.9801 72.1563 84.8059 71.9652 84.6813 71.7103C84.5567 71.4526 84.4944 71.1283 84.4944 70.7375V69.3951H85.2463V70.7375C85.2463 70.9924 85.2746 71.1991 85.3312 71.3577C85.3907 71.5163 85.4757 71.6338 85.5861 71.7103C85.6994 71.7839 85.8339 71.8208 85.9897 71.8208C86.1653 71.8208 86.3267 71.808 86.474 71.7825C86.6212 71.7542 86.7643 71.7174 86.903 71.6721C87.0446 71.6268 87.1891 71.5744 87.3363 71.5149ZM90.4374 74.085C90.1627 74.085 89.9149 74.0439 89.694 73.9618C89.4731 73.8796 89.2848 73.755 89.129 73.5879C88.9732 73.418 88.8543 73.2042 88.7722 72.9465C88.69 72.6888 88.649 72.3843 88.649 72.0332V71.5149C88.649 71.1099 88.6957 70.7672 88.7892 70.4869C88.8854 70.2065 89.0143 69.9813 89.1757 69.8114C89.3372 69.6387 89.5198 69.5141 89.7237 69.4376C89.9276 69.3583 90.1372 69.3187 90.3524 69.3187C90.6413 69.3187 90.8877 69.3654 91.0916 69.4588C91.2955 69.5523 91.4612 69.6911 91.5886 69.8751C91.7161 70.0592 91.8095 70.2858 91.869 70.5548C91.9313 70.8239 91.9625 71.134 91.9625 71.4852V71.9227H89.0908V71.2813H91.2105V71.175C91.1992 70.9372 91.1666 70.7276 91.1128 70.5463C91.0619 70.3651 90.9769 70.2235 90.858 70.1215C90.739 70.0167 90.5705 69.9644 90.3524 69.9644C90.2137 69.9644 90.0848 69.9884 89.9659 70.0366C89.8498 70.0819 89.7492 70.1626 89.6643 70.2787C89.5821 70.392 89.517 70.5492 89.4688 70.7502C89.4235 70.9513 89.4009 71.2062 89.4009 71.5149V72.0332C89.4009 72.2795 89.4235 72.4919 89.4688 72.6704C89.517 72.8459 89.5864 72.9918 89.677 73.1079C89.7705 73.2212 89.8837 73.3062 90.0168 73.3628C90.1528 73.4166 90.3071 73.4435 90.4799 73.4435C90.7319 73.4435 90.9401 73.3954 91.1043 73.2991C91.2686 73.2 91.4116 73.0739 91.5334 72.921L91.9285 73.3925C91.8463 73.5086 91.7387 73.6205 91.6056 73.7281C91.4753 73.8329 91.3139 73.9193 91.1213 73.9873C90.9316 74.0524 90.7036 74.085 90.4374 74.085ZM94.4645 73.4435C94.6146 73.4435 94.7506 73.4138 94.8724 73.3543C94.997 73.292 95.0989 73.1957 95.1782 73.0654C95.2575 72.9323 95.3028 72.7596 95.3142 72.5472H96.0193C96.008 72.853 95.9301 73.1221 95.7857 73.3543C95.6441 73.5837 95.4572 73.7635 95.2249 73.8938C94.9956 74.0212 94.7421 74.085 94.4645 74.085C94.1672 74.085 93.9081 74.0368 93.6872 73.9405C93.4691 73.8442 93.2878 73.7055 93.1434 73.5242C93.0018 73.3401 92.8956 73.1178 92.8248 72.8573C92.754 72.5939 92.7186 72.2951 92.7186 71.9609V71.4427C92.7186 71.1085 92.754 70.8111 92.8248 70.5506C92.8956 70.2872 93.0018 70.0649 93.1434 69.8836C93.2878 69.6996 93.4691 69.5594 93.6872 69.4631C93.9081 69.3668 94.1672 69.3187 94.4645 69.3187C94.7761 69.3187 95.0451 69.3852 95.2717 69.5183C95.5011 69.6486 95.6795 69.8383 95.8069 70.0875C95.9372 70.3339 96.008 70.6327 96.0193 70.9839H95.3142C95.3028 70.7573 95.2618 70.569 95.191 70.4189C95.1202 70.266 95.0239 70.1527 94.9021 70.0791C94.7803 70.0026 94.6345 69.9644 94.4645 69.9644C94.2663 69.9644 94.102 69.9998 93.9718 70.0706C93.8443 70.1385 93.7438 70.2376 93.6702 70.3679C93.5965 70.4982 93.5441 70.654 93.513 70.8352C93.4847 71.0165 93.4705 71.2189 93.4705 71.4427V71.9609C93.4705 72.1847 93.4847 72.3886 93.513 72.5727C93.5441 72.7539 93.5951 72.9097 93.6659 73.0399C93.7395 73.1702 93.8415 73.2708 93.9718 73.3416C94.102 73.4095 94.2663 73.4435 94.4645 73.4435ZM98.5427 69.4036V74H97.7908V69.4036H98.5427ZM99.7958 69.4036V70.0408H96.5546V69.4036H99.7958ZM102.447 71.9779H101.219L101.21 71.3492H102.196C102.391 71.3492 102.553 71.3251 102.68 71.277C102.811 71.2289 102.908 71.1566 102.973 71.0604C103.039 70.9641 103.071 70.8451 103.071 70.7035C103.071 70.5931 103.053 70.4968 103.016 70.4146C102.979 70.3297 102.924 70.2603 102.85 70.2065C102.779 70.1499 102.69 70.1088 102.583 70.0833C102.475 70.055 102.349 70.0408 102.204 70.0408H101.41V74H100.662V69.4036H102.204C102.454 69.4036 102.677 69.4291 102.876 69.4801C103.077 69.5311 103.247 69.6089 103.385 69.7137C103.527 69.8157 103.635 69.9459 103.708 70.1045C103.785 70.2631 103.823 70.45 103.823 70.6653C103.823 70.8041 103.799 70.9357 103.751 71.0604C103.703 71.185 103.63 71.2954 103.534 71.3917C103.441 71.488 103.325 71.5673 103.186 71.6296C103.047 71.6891 102.887 71.7273 102.706 71.7443L102.447 71.9779ZM102.447 74H100.939L101.325 73.3628H102.447C102.619 73.3628 102.761 73.3359 102.871 73.2821C102.982 73.2254 103.064 73.1461 103.118 73.0442C103.174 72.9394 103.203 72.8148 103.203 72.6704C103.203 72.5259 103.174 72.4027 103.118 72.3008C103.064 72.196 102.982 72.1167 102.871 72.0629C102.761 72.0063 102.619 71.9779 102.447 71.9779H101.44L101.448 71.3492H102.693L102.956 71.5871C103.174 71.6069 103.357 71.6692 103.504 71.774C103.654 71.8788 103.766 72.0119 103.84 72.1733C103.916 72.3319 103.955 72.5047 103.955 72.6916C103.955 72.9068 103.921 73.0966 103.853 73.2608C103.785 73.4251 103.686 73.5625 103.555 73.6729C103.425 73.7805 103.267 73.8626 103.08 73.9193C102.893 73.9731 102.682 74 102.447 74ZM104.821 71.9227V71.4852C104.821 71.1283 104.867 70.8154 104.957 70.5463C105.048 70.2745 105.174 70.0479 105.335 69.8667C105.497 69.6854 105.685 69.5495 105.9 69.4588C106.116 69.3654 106.346 69.3187 106.593 69.3187C106.845 69.3187 107.078 69.3654 107.294 69.4588C107.509 69.5495 107.697 69.6854 107.859 69.8667C108.023 70.0479 108.15 70.2745 108.241 70.5463C108.332 70.8154 108.377 71.1283 108.377 71.4852V71.9227C108.377 72.2795 108.332 72.5939 108.241 72.8658C108.15 73.1348 108.024 73.36 107.863 73.5412C107.701 73.7225 107.513 73.8584 107.298 73.949C107.083 74.0396 106.85 74.085 106.601 74.085C106.352 74.085 106.12 74.0396 105.905 73.949C105.689 73.8584 105.5 73.7225 105.335 73.5412C105.174 73.36 105.048 73.1348 104.957 72.8658C104.867 72.5939 104.821 72.2795 104.821 71.9227ZM105.573 71.4852V71.9227C105.573 72.1748 105.599 72.3957 105.65 72.5854C105.701 72.7751 105.773 72.9337 105.866 73.0612C105.96 73.1886 106.069 73.2849 106.193 73.35C106.318 73.4124 106.454 73.4435 106.601 73.4435C106.771 73.4435 106.92 73.4124 107.047 73.35C107.178 73.2849 107.285 73.1886 107.37 73.0612C107.455 72.9337 107.519 72.7751 107.561 72.5854C107.604 72.3957 107.625 72.1748 107.625 71.9227V71.4852C107.625 71.2331 107.6 71.0136 107.549 70.8267C107.498 70.637 107.425 70.4784 107.332 70.3509C107.238 70.2207 107.128 70.1244 107.001 70.0621C106.876 69.9969 106.74 69.9644 106.593 69.9644C106.448 69.9644 106.314 69.9969 106.189 70.0621C106.065 70.1244 105.956 70.2207 105.862 70.3509C105.771 70.4784 105.701 70.637 105.65 70.8267C105.599 71.0136 105.573 71.2331 105.573 71.4852ZM113.959 71.3959V72.0332H112.009V71.3959H113.959ZM112.162 69.4036V74H111.41V69.4036H112.162ZM114.571 69.4036V74H113.819V69.4036H114.571ZM118.02 73.2141V70.7205C118.02 70.5393 117.992 70.3934 117.935 70.283C117.881 70.1725 117.799 70.0918 117.689 70.0408C117.581 69.9898 117.445 69.9644 117.281 69.9644C117.122 69.9644 116.985 69.9969 116.869 70.0621C116.755 70.1272 116.668 70.2136 116.605 70.3212C116.546 70.4288 116.516 70.5478 116.516 70.678H115.764C115.764 70.5138 115.8 70.3509 115.87 70.1895C115.944 70.0281 116.049 69.8822 116.185 69.752C116.321 69.6188 116.484 69.5141 116.673 69.4376C116.866 69.3583 117.081 69.3187 117.319 69.3187C117.602 69.3187 117.853 69.3654 118.071 69.4588C118.289 69.5495 118.46 69.6981 118.585 69.9049C118.71 70.1116 118.772 70.3863 118.772 70.729V72.9975C118.772 73.1504 118.783 73.3132 118.806 73.486C118.831 73.6587 118.867 73.8074 118.912 73.932V74H118.135C118.098 73.9094 118.07 73.789 118.05 73.6389C118.03 73.486 118.02 73.3444 118.02 73.2141ZM118.139 71.2133L118.147 71.7655H117.625C117.446 71.7655 117.284 71.7854 117.136 71.825C116.992 71.8646 116.867 71.9227 116.763 71.9992C116.658 72.0728 116.577 72.1648 116.52 72.2753C116.467 72.3857 116.44 72.5118 116.44 72.6534C116.44 72.8375 116.465 72.9847 116.516 73.0952C116.567 73.2028 116.644 73.2807 116.746 73.3288C116.848 73.377 116.976 73.401 117.132 73.401C117.322 73.401 117.489 73.3571 117.633 73.2693C117.778 73.1815 117.89 73.0753 117.969 72.9507C118.051 72.8261 118.089 72.71 118.084 72.6024L118.249 72.955C118.238 73.0654 118.201 73.1858 118.139 73.3161C118.079 73.4435 117.996 73.5667 117.888 73.6856C117.781 73.8018 117.653 73.898 117.506 73.9745C117.362 74.0481 117.199 74.085 117.017 74.085C116.751 74.085 116.518 74.034 116.317 73.932C116.118 73.8301 115.964 73.68 115.853 73.4817C115.743 73.2835 115.688 73.0385 115.688 72.7468C115.688 72.5259 115.726 72.322 115.802 72.1351C115.879 71.9482 115.992 71.7868 116.142 71.6508C116.292 71.5121 116.481 71.4044 116.707 71.328C116.937 71.2515 117.202 71.2133 117.502 71.2133H118.139ZM124.494 69.4036V70.0536H122.659V69.4036H124.494ZM122.757 69.4036V74H122.005V69.4036H122.757ZM125.169 69.4036V74H124.418V69.4036H125.169ZM127.124 70.2872V75.7672H126.372V69.4036H127.056L127.124 70.2872ZM129.694 71.4937V71.9227C129.694 72.2852 129.66 72.6024 129.592 72.8743C129.527 73.1433 129.429 73.3685 129.299 73.5497C129.171 73.7281 129.014 73.8626 128.827 73.9533C128.64 74.0411 128.426 74.085 128.186 74.085C127.945 74.085 127.735 74.0396 127.557 73.949C127.381 73.8556 127.233 73.721 127.111 73.5455C126.992 73.3699 126.897 73.1589 126.826 72.9125C126.758 72.6633 126.711 72.3843 126.686 72.0756V71.4214C126.711 71.0958 126.758 70.8041 126.826 70.5463C126.894 70.2858 126.988 70.0649 127.107 69.8836C127.228 69.6996 127.377 69.5594 127.553 69.4631C127.731 69.3668 127.939 69.3187 128.177 69.3187C128.423 69.3187 128.64 69.3611 128.827 69.4461C129.017 69.5311 129.175 69.6627 129.303 69.8412C129.433 70.0167 129.531 70.2419 129.596 70.5166C129.661 70.7885 129.694 71.1142 129.694 71.4937ZM128.942 71.9227V71.4937C128.942 71.2388 128.922 71.0165 128.882 70.8267C128.845 70.637 128.786 70.4798 128.704 70.3552C128.622 70.2306 128.518 70.1371 128.394 70.0748C128.269 70.0125 128.119 69.9813 127.943 69.9813C127.793 69.9813 127.66 70.0125 127.544 70.0748C127.431 70.1371 127.333 70.2221 127.251 70.3297C127.169 70.4345 127.101 70.5548 127.047 70.6908C126.993 70.8239 126.954 70.9626 126.928 71.1071V72.3942C126.976 72.5755 127.04 72.7468 127.119 72.9083C127.199 73.0668 127.305 73.1957 127.438 73.2948C127.574 73.3939 127.745 73.4435 127.952 73.4435C128.125 73.4435 128.273 73.4124 128.398 73.35C128.523 73.2877 128.625 73.1943 128.704 73.0697C128.786 72.9422 128.845 72.7836 128.882 72.5939C128.922 72.4013 128.942 72.1776 128.942 71.9227ZM130.505 71.9227V71.4852C130.505 71.1283 130.55 70.8154 130.641 70.5463C130.732 70.2745 130.858 70.0479 131.019 69.8667C131.18 69.6854 131.369 69.5495 131.584 69.4588C131.799 69.3654 132.03 69.3187 132.276 69.3187C132.528 69.3187 132.762 69.3654 132.977 69.4588C133.193 69.5495 133.381 69.6854 133.542 69.8667C133.707 70.0479 133.834 70.2745 133.925 70.5463C134.015 70.8154 134.061 71.1283 134.061 71.4852V71.9227C134.061 72.2795 134.015 72.5939 133.925 72.8658C133.834 73.1348 133.708 73.36 133.547 73.5412C133.385 73.7225 133.197 73.8584 132.982 73.949C132.766 74.0396 132.534 74.085 132.285 74.085C132.036 74.085 131.803 74.0396 131.588 73.949C131.373 73.8584 131.183 73.7225 131.019 73.5412C130.858 73.36 130.732 73.1348 130.641 72.8658C130.55 72.5939 130.505 72.2795 130.505 71.9227ZM131.257 71.4852V71.9227C131.257 72.1748 131.282 72.3957 131.333 72.5854C131.384 72.7751 131.457 72.9337 131.55 73.0612C131.643 73.1886 131.752 73.2849 131.877 73.35C132.002 73.4124 132.138 73.4435 132.285 73.4435C132.455 73.4435 132.604 73.4124 132.731 73.35C132.861 73.2849 132.969 73.1886 133.054 73.0612C133.139 72.9337 133.202 72.7751 133.245 72.5854C133.287 72.3957 133.309 72.1748 133.309 71.9227V71.4852C133.309 71.2331 133.283 71.0136 133.232 70.8267C133.181 70.637 133.109 70.4784 133.016 70.3509C132.922 70.2207 132.812 70.1244 132.684 70.0621C132.56 69.9969 132.424 69.9644 132.276 69.9644C132.132 69.9644 131.997 69.9969 131.873 70.0621C131.748 70.1244 131.639 70.2207 131.546 70.3509C131.455 70.4784 131.384 70.637 131.333 70.8267C131.282 71.0136 131.257 71.2331 131.257 71.4852ZM139.507 71.7825V71.8717C139.507 72.1946 139.477 72.4919 139.417 72.7638C139.358 73.0329 139.269 73.2665 139.15 73.4647C139.034 73.663 138.888 73.8173 138.712 73.9278C138.539 74.0354 138.338 74.0892 138.109 74.0892C137.911 74.0892 137.737 74.0595 137.586 74C137.436 73.9377 137.309 73.8485 137.204 73.7324C137.099 73.6163 137.017 73.4775 136.958 73.3161C136.898 73.1518 136.857 72.9677 136.835 72.7638V70.7248C136.857 70.5067 136.898 70.3113 136.958 70.1385C137.017 69.9658 137.098 69.8185 137.2 69.6967C137.305 69.575 137.431 69.4815 137.578 69.4164C137.728 69.3512 137.902 69.3187 138.1 69.3187C138.287 69.3187 138.456 69.3583 138.606 69.4376C138.756 69.5141 138.888 69.6245 139.001 69.7689C139.114 69.9134 139.208 70.0875 139.281 70.2915C139.355 70.4925 139.41 70.7191 139.447 70.9711C139.487 71.2232 139.507 71.4937 139.507 71.7825ZM138.759 71.8717V71.7825C138.759 71.5843 138.748 71.3959 138.725 71.2175C138.705 71.0363 138.673 70.8706 138.627 70.7205C138.585 70.5676 138.528 70.4345 138.457 70.3212C138.389 70.2079 138.306 70.1201 138.207 70.0578C138.11 69.9955 137.997 69.9644 137.867 69.9644C137.734 69.9644 137.62 69.9856 137.527 70.0281C137.436 70.0706 137.364 70.1272 137.31 70.198C137.257 70.266 137.217 70.3382 137.191 70.4146V73.0782C137.223 73.1405 137.265 73.2 137.319 73.2566C137.373 73.3104 137.443 73.3557 137.531 73.3925C137.622 73.4265 137.737 73.4435 137.875 73.4435C138.034 73.4435 138.168 73.4039 138.279 73.3246C138.392 73.2424 138.484 73.1292 138.555 72.9847C138.626 72.8403 138.677 72.6732 138.708 72.4834C138.742 72.2937 138.759 72.0898 138.759 71.8717ZM134.893 71.8717V71.7825C134.893 71.4937 134.912 71.2232 134.948 70.9711C134.988 70.7191 135.045 70.4925 135.118 70.2915C135.195 70.0875 135.29 69.9134 135.403 69.7689C135.516 69.6245 135.647 69.5141 135.794 69.4376C135.944 69.3583 136.112 69.3187 136.299 69.3187C136.492 69.3187 136.66 69.3512 136.805 69.4164C136.949 69.4815 137.071 69.575 137.17 69.6967C137.272 69.8185 137.353 69.9658 137.412 70.1385C137.472 70.3113 137.511 70.5067 137.531 70.7248V72.6831C137.509 72.8983 137.468 73.0923 137.408 73.2651C137.351 73.4378 137.272 73.5865 137.17 73.7111C137.071 73.8329 136.949 73.9264 136.805 73.9915C136.66 74.0566 136.49 74.0892 136.295 74.0892C136.066 74.0892 135.863 74.0354 135.688 73.9278C135.515 73.8173 135.369 73.663 135.25 73.4647C135.131 73.2665 135.042 73.0329 134.982 72.7638C134.923 72.4919 134.893 72.1946 134.893 71.8717ZM135.645 71.7825V71.8717C135.645 72.0898 135.659 72.2937 135.688 72.4834C135.716 72.6732 135.763 72.8403 135.828 72.9847C135.893 73.1292 135.979 73.2424 136.087 73.3246C136.195 73.4039 136.328 73.4435 136.486 73.4435C136.628 73.4435 136.744 73.4223 136.835 73.3798C136.925 73.3373 136.996 73.2821 137.047 73.2141C137.101 73.1461 137.143 73.0753 137.174 73.0017V70.4146C137.149 70.3382 137.109 70.266 137.055 70.198C137.002 70.1272 136.928 70.0706 136.835 70.0281C136.744 69.9856 136.631 69.9644 136.495 69.9644C136.333 69.9644 136.197 70.0125 136.087 70.1088C135.979 70.2051 135.893 70.3368 135.828 70.5039C135.763 70.6709 135.716 70.8649 135.688 71.0858C135.659 71.3039 135.645 71.5361 135.645 71.7825ZM136.792 75.7672V67.475H137.54V75.7672H136.792ZM142.145 74.085C141.87 74.085 141.622 74.0439 141.401 73.9618C141.18 73.8796 140.992 73.755 140.836 73.5879C140.68 73.418 140.562 73.2042 140.479 72.9465C140.397 72.6888 140.356 72.3843 140.356 72.0332V71.5149C140.356 71.1099 140.403 70.7672 140.496 70.4869C140.593 70.2065 140.722 69.9813 140.883 69.8114C141.044 69.6387 141.227 69.5141 141.431 69.4376C141.635 69.3583 141.844 69.3187 142.06 69.3187C142.349 69.3187 142.595 69.3654 142.799 69.4588C143.003 69.5523 143.168 69.6911 143.296 69.8751C143.423 70.0592 143.517 70.2858 143.576 70.5548C143.639 70.8239 143.67 71.134 143.67 71.4852V71.9227H140.798V71.2813H142.918V71.175C142.906 70.9372 142.874 70.7276 142.82 70.5463C142.769 70.3651 142.684 70.2235 142.565 70.1215C142.446 70.0167 142.278 69.9644 142.06 69.9644C141.921 69.9644 141.792 69.9884 141.673 70.0366C141.557 70.0819 141.456 70.1626 141.371 70.2787C141.289 70.392 141.224 70.5492 141.176 70.7502C141.131 70.9513 141.108 71.2062 141.108 71.5149V72.0332C141.108 72.2795 141.131 72.4919 141.176 72.6704C141.224 72.8459 141.294 72.9918 141.384 73.1079C141.478 73.2212 141.591 73.3062 141.724 73.3628C141.86 73.4166 142.014 73.4435 142.187 73.4435C142.439 73.4435 142.647 73.3954 142.812 73.2991C142.976 73.2 143.119 73.0739 143.241 72.921L143.636 73.3925C143.554 73.5086 143.446 73.6205 143.313 73.7281C143.183 73.8329 143.021 73.9193 142.829 73.9873C142.639 74.0524 142.411 74.085 142.145 74.085ZM146.172 73.4435C146.322 73.4435 146.458 73.4138 146.58 73.3543C146.704 73.292 146.806 73.1957 146.885 73.0654C146.965 72.9323 147.01 72.7596 147.021 72.5472H147.727C147.715 72.853 147.637 73.1221 147.493 73.3543C147.351 73.5837 147.164 73.7635 146.932 73.8938C146.703 74.0212 146.449 74.085 146.172 74.085C145.874 74.085 145.615 74.0368 145.394 73.9405C145.176 73.8442 144.995 73.7055 144.851 73.5242C144.709 73.3401 144.603 73.1178 144.532 72.8573C144.461 72.5939 144.426 72.2951 144.426 71.9609V71.4427C144.426 71.1085 144.461 70.8111 144.532 70.5506C144.603 70.2872 144.709 70.0649 144.851 69.8836C144.995 69.6996 145.176 69.5594 145.394 69.4631C145.615 69.3668 145.874 69.3187 146.172 69.3187C146.483 69.3187 146.752 69.3852 146.979 69.5183C147.208 69.6486 147.387 69.8383 147.514 70.0875C147.644 70.3339 147.715 70.6327 147.727 70.9839H147.021C147.01 70.7573 146.969 70.569 146.898 70.4189C146.827 70.266 146.731 70.1527 146.609 70.0791C146.488 70.0026 146.342 69.9644 146.172 69.9644C145.974 69.9644 145.809 69.9998 145.679 70.0706C145.552 70.1385 145.451 70.2376 145.377 70.3679C145.304 70.4982 145.251 70.654 145.22 70.8352C145.192 71.0165 145.178 71.2189 145.178 71.4427V71.9609C145.178 72.1847 145.192 72.3886 145.22 72.5727C145.251 72.7539 145.302 72.9097 145.373 73.0399C145.447 73.1702 145.549 73.2708 145.679 73.3416C145.809 73.4095 145.974 73.4435 146.172 73.4435ZM150.19 73.4435C150.341 73.4435 150.476 73.4138 150.598 73.3543C150.723 73.292 150.825 73.1957 150.904 73.0654C150.983 72.9323 151.029 72.7596 151.04 72.5472H151.745C151.734 72.853 151.656 73.1221 151.512 73.3543C151.37 73.5837 151.183 73.7635 150.951 73.8938C150.721 74.0212 150.468 74.085 150.19 74.085C149.893 74.085 149.634 74.0368 149.413 73.9405C149.195 73.8442 149.014 73.7055 148.869 73.5242C148.728 73.3401 148.621 73.1178 148.551 72.8573C148.48 72.5939 148.444 72.2951 148.444 71.9609V71.4427C148.444 71.1085 148.48 70.8111 148.551 70.5506C148.621 70.2872 148.728 70.0649 148.869 69.8836C149.014 69.6996 149.195 69.5594 149.413 69.4631C149.634 69.3668 149.893 69.3187 150.19 69.3187C150.502 69.3187 150.771 69.3852 150.998 69.5183C151.227 69.6486 151.405 69.8383 151.533 70.0875C151.663 70.3339 151.734 70.6327 151.745 70.9839H151.04C151.029 70.7573 150.988 70.569 150.917 70.4189C150.846 70.266 150.75 70.1527 150.628 70.0791C150.506 70.0026 150.36 69.9644 150.19 69.9644C149.992 69.9644 149.828 69.9998 149.698 70.0706C149.57 70.1385 149.47 70.2376 149.396 70.3679C149.322 70.4982 149.27 70.654 149.239 70.8352C149.211 71.0165 149.196 71.2189 149.196 71.4427V71.9609C149.196 72.1847 149.211 72.3886 149.239 72.5727C149.27 72.7539 149.321 72.9097 149.392 73.0399C149.465 73.1702 149.567 73.2708 149.698 73.3416C149.828 73.4095 149.992 73.4435 150.19 73.4435ZM153.432 72.7553L155.097 69.4036H155.849V74H155.097V70.6483L153.432 74H152.684V69.4036H153.432V72.7553ZM156.894 71.9227V71.4852C156.894 71.1283 156.939 70.8154 157.03 70.5463C157.12 70.2745 157.246 70.0479 157.408 69.8667C157.569 69.6854 157.758 69.5495 157.973 69.4588C158.188 69.3654 158.419 69.3187 158.665 69.3187C158.917 69.3187 159.151 69.3654 159.366 69.4588C159.581 69.5495 159.77 69.6854 159.931 69.8667C160.095 70.0479 160.223 70.2745 160.314 70.5463C160.404 70.8154 160.449 71.1283 160.449 71.4852V71.9227C160.449 72.2795 160.404 72.5939 160.314 72.8658C160.223 73.1348 160.097 73.36 159.935 73.5412C159.774 73.7225 159.586 73.8584 159.37 73.949C159.155 74.0396 158.923 74.085 158.674 74.085C158.425 74.085 158.192 74.0396 157.977 73.949C157.762 73.8584 157.572 73.7225 157.408 73.5412C157.246 73.36 157.12 73.1348 157.03 72.8658C156.939 72.5939 156.894 72.2795 156.894 71.9227ZM157.646 71.4852V71.9227C157.646 72.1748 157.671 72.3957 157.722 72.5854C157.773 72.7751 157.845 72.9337 157.939 73.0612C158.032 73.1886 158.141 73.2849 158.266 73.35C158.391 73.4124 158.527 73.4435 158.674 73.4435C158.844 73.4435 158.992 73.4124 159.12 73.35C159.25 73.2849 159.358 73.1886 159.443 73.0612C159.528 72.9337 159.591 72.7751 159.634 72.5854C159.676 72.3957 159.698 72.1748 159.698 71.9227V71.4852C159.698 71.2331 159.672 71.0136 159.621 70.8267C159.57 70.637 159.498 70.4784 159.404 70.3509C159.311 70.2207 159.201 70.1244 159.073 70.0621C158.948 69.9969 158.813 69.9644 158.665 69.9644C158.521 69.9644 158.386 69.9969 158.262 70.0621C158.137 70.1244 158.028 70.2207 157.935 70.3509C157.844 70.4784 157.773 70.637 157.722 70.8267C157.671 71.0136 157.646 71.2331 157.646 71.4852ZM164.035 71.3959V72.0332H162.085V71.3959H164.035ZM162.238 69.4036V74H161.486V69.4036H162.238ZM164.647 69.4036V74H163.895V69.4036H164.647ZM168.096 73.2141V70.7205C168.096 70.5393 168.068 70.3934 168.011 70.283C167.957 70.1725 167.875 70.0918 167.765 70.0408C167.657 69.9898 167.521 69.9644 167.357 69.9644C167.198 69.9644 167.061 69.9969 166.945 70.0621C166.831 70.1272 166.744 70.2136 166.681 70.3212C166.622 70.4288 166.592 70.5478 166.592 70.678H165.84C165.84 70.5138 165.876 70.3509 165.946 70.1895C166.02 70.0281 166.125 69.8822 166.261 69.752C166.397 69.6188 166.56 69.5141 166.749 69.4376C166.942 69.3583 167.157 69.3187 167.395 69.3187C167.678 69.3187 167.929 69.3654 168.147 69.4588C168.365 69.5495 168.536 69.6981 168.661 69.9049C168.786 70.1116 168.848 70.3863 168.848 70.729V72.9975C168.848 73.1504 168.859 73.3132 168.882 73.486C168.907 73.6587 168.943 73.8074 168.988 73.932V74H168.211C168.174 73.9094 168.146 73.789 168.126 73.6389C168.106 73.486 168.096 73.3444 168.096 73.2141ZM168.215 71.2133L168.223 71.7655H167.701C167.522 71.7655 167.36 71.7854 167.212 71.825C167.068 71.8646 166.943 71.9227 166.839 71.9992C166.734 72.0728 166.653 72.1648 166.596 72.2753C166.543 72.3857 166.516 72.5118 166.516 72.6534C166.516 72.8375 166.541 72.9847 166.592 73.0952C166.643 73.2028 166.72 73.2807 166.822 73.3288C166.923 73.377 167.052 73.401 167.208 73.401C167.398 73.401 167.565 73.3571 167.709 73.2693C167.854 73.1815 167.966 73.0753 168.045 72.9507C168.127 72.8261 168.165 72.71 168.16 72.6024L168.325 72.955C168.314 73.0654 168.277 73.1858 168.215 73.3161C168.155 73.4435 168.072 73.5667 167.964 73.6856C167.857 73.8018 167.729 73.898 167.582 73.9745C167.437 74.0481 167.275 74.085 167.093 74.085C166.827 74.085 166.594 74.034 166.392 73.932C166.194 73.8301 166.04 73.68 165.929 73.4817C165.819 73.2835 165.764 73.0385 165.764 72.7468C165.764 72.5259 165.802 72.322 165.878 72.1351C165.955 71.9482 166.068 71.7868 166.218 71.6508C166.368 71.5121 166.557 71.4044 166.783 71.328C167.013 71.2515 167.277 71.2133 167.578 71.2133H168.215ZM172.582 69.4036V70.0536H170.751V69.4036H172.582ZM173.253 69.4036V74H172.505V69.4036H173.253ZM170.573 69.4036H171.324L171.218 71.6211C171.201 71.9638 171.173 72.2668 171.133 72.5302C171.096 72.7907 171.044 73.0145 170.976 73.2014C170.911 73.3883 170.829 73.5412 170.73 73.6602C170.633 73.7763 170.517 73.8626 170.381 73.9193C170.248 73.9731 170.094 74 169.918 74H169.693V73.3076L169.842 73.2948C169.941 73.2863 170.026 73.258 170.097 73.2099C170.17 73.1617 170.23 73.0909 170.275 72.9975C170.323 72.9012 170.362 72.778 170.39 72.6279C170.421 72.4778 170.445 72.2994 170.462 72.0926C170.479 71.8859 170.492 71.6452 170.5 71.3705L170.573 69.4036ZM175.088 70.9839H176.21C176.527 70.9839 176.793 71.049 177.008 71.1793C177.224 71.3067 177.386 71.4837 177.497 71.7103C177.607 71.934 177.663 72.1889 177.663 72.475C177.663 72.6874 177.631 72.887 177.569 73.0739C177.507 73.258 177.413 73.4194 177.289 73.5582C177.167 73.697 177.015 73.806 176.834 73.8853C176.656 73.9618 176.448 74 176.21 74H174.527V69.4036H175.275V73.3543H176.21C176.385 73.3543 176.524 73.3132 176.626 73.2311C176.728 73.149 176.8 73.0428 176.843 72.9125C176.888 72.7822 176.911 72.6463 176.911 72.5047C176.911 72.3659 176.888 72.23 176.843 72.0969C176.8 71.9638 176.728 71.8533 176.626 71.7655C176.524 71.6749 176.385 71.6296 176.21 71.6296H175.088V70.9839ZM181.239 71.3959V72.0332H179.29V71.3959H181.239ZM179.442 69.4036V74H178.691V69.4036H179.442ZM181.851 69.4036V74H181.099V69.4036H181.851ZM182.892 71.9227V71.4852C182.892 71.1283 182.937 70.8154 183.028 70.5463C183.118 70.2745 183.244 70.0479 183.406 69.8667C183.567 69.6854 183.756 69.5495 183.971 69.4588C184.186 69.3654 184.417 69.3187 184.663 69.3187C184.915 69.3187 185.149 69.3654 185.364 69.4588C185.579 69.5495 185.768 69.6854 185.929 69.8667C186.094 70.0479 186.221 70.2745 186.312 70.5463C186.402 70.8154 186.448 71.1283 186.448 71.4852V71.9227C186.448 72.2795 186.402 72.5939 186.312 72.8658C186.221 73.1348 186.095 73.36 185.933 73.5412C185.772 73.7225 185.584 73.8584 185.369 73.949C185.153 74.0396 184.921 74.085 184.672 74.085C184.423 74.085 184.19 74.0396 183.975 73.949C183.76 73.8584 183.57 73.7225 183.406 73.5412C183.244 73.36 183.118 73.1348 183.028 72.8658C182.937 72.5939 182.892 72.2795 182.892 71.9227ZM183.644 71.4852V71.9227C183.644 72.1748 183.669 72.3957 183.72 72.5854C183.771 72.7751 183.843 72.9337 183.937 73.0612C184.03 73.1886 184.139 73.2849 184.264 73.35C184.389 73.4124 184.525 73.4435 184.672 73.4435C184.842 73.4435 184.99 73.4124 185.118 73.35C185.248 73.2849 185.356 73.1886 185.441 73.0612C185.526 72.9337 185.589 72.7751 185.632 72.5854C185.674 72.3957 185.696 72.1748 185.696 71.9227V71.4852C185.696 71.2331 185.67 71.0136 185.619 70.8267C185.568 70.637 185.496 70.4784 185.402 70.3509C185.309 70.2207 185.199 70.1244 185.071 70.0621C184.947 69.9969 184.811 69.9644 184.663 69.9644C184.519 69.9644 184.384 69.9969 184.26 70.0621C184.135 70.1244 184.026 70.2207 183.933 70.3509C183.842 70.4784 183.771 70.637 183.72 70.8267C183.669 71.0136 183.644 71.2331 183.644 71.4852ZM189.672 72.955L190.899 69.4036H191.613L189.931 74H189.413L187.735 69.4036H188.448L189.672 72.955ZM188.232 69.4036V74H187.484V69.4036H188.232ZM191.086 74V69.4036H191.838V74H191.086ZM196.103 73.5242L197.127 69.4036H197.926L196.409 74.7094C196.372 74.8227 196.323 74.9445 196.26 75.0748C196.201 75.2079 196.125 75.3339 196.031 75.4528C195.938 75.5718 195.826 75.6681 195.696 75.7417C195.565 75.8182 195.412 75.8564 195.237 75.8564C195.183 75.8564 195.114 75.8479 195.029 75.8309C194.946 75.8139 194.887 75.7998 194.85 75.7884V75.1512C194.867 75.1541 194.894 75.1569 194.931 75.1597C194.968 75.1654 194.995 75.1682 195.012 75.1682C195.159 75.1682 195.283 75.1441 195.385 75.096C195.49 75.0507 195.579 74.9728 195.653 74.8624C195.727 74.7547 195.789 74.6061 195.84 74.4163L196.103 73.5242ZM195.441 69.4036L196.354 72.972L196.549 73.8003L196.014 74.0892L194.621 69.4036H195.441ZM199.417 70.2872V75.7672H198.665V69.4036H199.349L199.417 70.2872ZM201.987 71.4937V71.9227C201.987 72.2852 201.953 72.6024 201.885 72.8743C201.82 73.1433 201.722 73.3685 201.592 73.5497C201.464 73.7281 201.307 73.8626 201.12 73.9533C200.933 74.0411 200.72 74.085 200.479 74.085C200.238 74.085 200.029 74.0396 199.85 73.949C199.675 73.8556 199.526 73.721 199.404 73.5455C199.285 73.3699 199.19 73.1589 199.119 72.9125C199.051 72.6633 199.005 72.3843 198.979 72.0756V71.4214C199.005 71.0958 199.051 70.8041 199.119 70.5463C199.187 70.2858 199.281 70.0649 199.4 69.8836C199.522 69.6996 199.67 69.5594 199.846 69.4631C200.024 69.3668 200.232 69.3187 200.47 69.3187C200.717 69.3187 200.933 69.3611 201.12 69.4461C201.31 69.5311 201.469 69.6627 201.596 69.8412C201.726 70.0167 201.824 70.2419 201.889 70.5166C201.954 70.7885 201.987 71.1142 201.987 71.4937ZM201.235 71.9227V71.4937C201.235 71.2388 201.215 71.0165 201.175 70.8267C201.139 70.637 201.079 70.4798 200.997 70.3552C200.915 70.2306 200.812 70.1371 200.687 70.0748C200.562 70.0125 200.412 69.9813 200.237 69.9813C200.087 69.9813 199.953 70.0125 199.837 70.0748C199.724 70.1371 199.626 70.2221 199.544 70.3297C199.462 70.4345 199.394 70.5548 199.34 70.6908C199.287 70.8239 199.247 70.9626 199.221 71.1071V72.3942C199.27 72.5755 199.333 72.7468 199.413 72.9083C199.492 73.0668 199.598 73.1957 199.731 73.2948C199.867 73.3939 200.038 73.4435 200.245 73.4435C200.418 73.4435 200.567 73.4124 200.691 73.35C200.816 73.2877 200.918 73.1943 200.997 73.0697C201.079 72.9422 201.139 72.7836 201.175 72.5939C201.215 72.4013 201.235 72.1776 201.235 71.9227ZM202.798 71.9227V71.4852C202.798 71.1283 202.844 70.8154 202.934 70.5463C203.025 70.2745 203.151 70.0479 203.312 69.8667C203.474 69.6854 203.662 69.5495 203.877 69.4588C204.092 69.3654 204.323 69.3187 204.57 69.3187C204.822 69.3187 205.055 69.3654 205.271 69.4588C205.486 69.5495 205.674 69.6854 205.836 69.8667C206 70.0479 206.127 70.2745 206.218 70.5463C206.309 70.8154 206.354 71.1283 206.354 71.4852V71.9227C206.354 72.2795 206.309 72.5939 206.218 72.8658C206.127 73.1348 206.001 73.36 205.84 73.5412C205.678 73.7225 205.49 73.8584 205.275 73.949C205.06 74.0396 204.827 74.085 204.578 74.085C204.329 74.085 204.097 74.0396 203.881 73.949C203.666 73.8584 203.477 73.7225 203.312 73.5412C203.151 73.36 203.025 73.1348 202.934 72.8658C202.844 72.5939 202.798 72.2795 202.798 71.9227ZM203.55 71.4852V71.9227C203.55 72.1748 203.576 72.3957 203.627 72.5854C203.678 72.7751 203.75 72.9337 203.843 73.0612C203.937 73.1886 204.046 73.2849 204.17 73.35C204.295 73.4124 204.431 73.4435 204.578 73.4435C204.748 73.4435 204.897 73.4124 205.024 73.35C205.154 73.2849 205.262 73.1886 205.347 73.0612C205.432 72.9337 205.496 72.7751 205.538 72.5854C205.581 72.3957 205.602 72.1748 205.602 71.9227V71.4852C205.602 71.2331 205.576 71.0136 205.525 70.8267C205.475 70.637 205.402 70.4784 205.309 70.3509C205.215 70.2207 205.105 70.1244 204.977 70.0621C204.853 69.9969 204.717 69.9644 204.57 69.9644C204.425 69.9644 204.291 69.9969 204.166 70.0621C204.042 70.1244 203.932 70.2207 203.839 70.3509C203.748 70.4784 203.678 70.637 203.627 70.8267C203.576 71.0136 203.55 71.2331 203.55 71.4852ZM209.175 71.9779H207.947L207.938 71.3492H208.924C209.119 71.3492 209.281 71.3251 209.408 71.277C209.538 71.2289 209.636 71.1566 209.701 71.0604C209.766 70.9641 209.799 70.8451 209.799 70.7035C209.799 70.5931 209.781 70.4968 209.744 70.4146C209.707 70.3297 209.652 70.2603 209.578 70.2065C209.507 70.1499 209.418 70.1088 209.31 70.0833C209.203 70.055 209.077 70.0408 208.932 70.0408H208.138V74H207.39V69.4036H208.932C209.182 69.4036 209.405 69.4291 209.604 69.4801C209.805 69.5311 209.975 69.6089 210.113 69.7137C210.255 69.8157 210.363 69.9459 210.436 70.1045C210.513 70.2631 210.551 70.45 210.551 70.6653C210.551 70.8041 210.527 70.9357 210.479 71.0604C210.431 71.185 210.358 71.2954 210.262 71.3917C210.169 71.488 210.052 71.5673 209.914 71.6296C209.775 71.6891 209.615 71.7273 209.434 71.7443L209.175 71.9779ZM209.175 74H207.666L208.053 73.3628H209.175C209.347 73.3628 209.489 73.3359 209.599 73.2821C209.71 73.2254 209.792 73.1461 209.846 73.0442C209.902 72.9394 209.931 72.8148 209.931 72.6704C209.931 72.5259 209.902 72.4027 209.846 72.3008C209.792 72.196 209.71 72.1167 209.599 72.0629C209.489 72.0063 209.347 71.9779 209.175 71.9779H208.168L208.176 71.3492H209.421L209.684 71.5871C209.902 71.6069 210.085 71.6692 210.232 71.774C210.382 71.8788 210.494 72.0119 210.568 72.1733C210.644 72.3319 210.683 72.5047 210.683 72.6916C210.683 72.9068 210.649 73.0966 210.581 73.2608C210.513 73.4251 210.414 73.5625 210.283 73.6729C210.153 73.7805 209.994 73.8626 209.808 73.9193C209.621 73.9731 209.41 74 209.175 74ZM214.323 71.3959V72.0332H212.373V71.3959H214.323ZM212.526 69.4036V74H211.774V69.4036H212.526ZM214.935 69.4036V74H214.183V69.4036H214.935ZM217.777 74.085C217.502 74.085 217.254 74.0439 217.033 73.9618C216.813 73.8796 216.624 73.755 216.468 73.5879C216.313 73.418 216.194 73.2042 216.112 72.9465C216.029 72.6888 215.988 72.3843 215.988 72.0332V71.5149C215.988 71.1099 216.035 70.7672 216.129 70.4869C216.225 70.2065 216.354 69.9813 216.515 69.8114C216.677 69.6387 216.859 69.5141 217.063 69.4376C217.267 69.3583 217.477 69.3187 217.692 69.3187C217.981 69.3187 218.227 69.3654 218.431 69.4588C218.635 69.5523 218.801 69.6911 218.928 69.8751C219.056 70.0592 219.149 70.2858 219.208 70.5548C219.271 70.8239 219.302 71.134 219.302 71.4852V71.9227H216.43V71.2813H218.55V71.175C218.539 70.9372 218.506 70.7276 218.452 70.5463C218.401 70.3651 218.316 70.2235 218.197 70.1215C218.078 70.0167 217.91 69.9644 217.692 69.9644C217.553 69.9644 217.424 69.9884 217.305 70.0366C217.189 70.0819 217.089 70.1626 217.004 70.2787C216.922 70.392 216.856 70.5492 216.808 70.7502C216.763 70.9513 216.74 71.2062 216.74 71.5149V72.0332C216.74 72.2795 216.763 72.4919 216.808 72.6704C216.856 72.8459 216.926 72.9918 217.016 73.1079C217.11 73.2212 217.223 73.3062 217.356 73.3628C217.492 73.4166 217.647 73.4435 217.819 73.4435C218.071 73.4435 218.28 73.3954 218.444 73.2991C218.608 73.2 218.751 73.0739 218.873 72.921L219.268 73.3925C219.186 73.5086 219.078 73.6205 218.945 73.7281C218.815 73.8329 218.653 73.9193 218.461 73.9873C218.271 74.0524 218.043 74.085 217.777 74.085ZM221.116 67.8148L221.061 72.2541H220.385L220.326 67.8148H221.116ZM220.313 73.6049C220.313 73.4775 220.348 73.3699 220.419 73.2821C220.493 73.1943 220.599 73.1504 220.738 73.1504C220.879 73.1504 220.986 73.1943 221.056 73.2821C221.13 73.3699 221.167 73.4775 221.167 73.6049C221.167 73.7267 221.13 73.8315 221.056 73.9193C220.986 74.0071 220.879 74.051 220.738 74.051C220.599 74.051 220.493 74.0071 220.419 73.9193C220.348 73.8315 220.313 73.7267 220.313 73.6049Z" fill="black"/>
</g>
<defs>
<clipPath id="clip0_102_6">
<rect width="255" height="120" fill="white"/>
</clipPath>
</defs>
</svg>
