<svg width="410" height="322" viewBox="0 0 410 322" fill="none" xmlns="http://www.w3.org/2000/svg">
<path d="M163.471 318.395C184.623 304.652 190.216 278.015 190.216 253.9C190.216 249.879 190.803 245.659 189.014 242.063C187.225 238.467 182.843 235.91 179.184 237.482C176.148 238.783 174.729 242.217 172.958 245.027C170.599 248.783 167.225 251.796 163.227 253.719C160.625 254.957 157.426 255.662 154.942 254.18C151.544 252.156 151.327 247.349 151.454 243.337C151.755 235.886 152.056 228.435 152.358 220.983C152.511 216.99 152.665 212.906 151.553 209.066C150.442 205.225 147.804 201.611 144.036 200.419C140.268 199.226 135.488 201.259 134.558 205.144C134.169 206.762 134.44 208.46 134.278 210.114C134.115 211.767 133.275 213.583 131.675 213.99C130.076 214.396 128.504 213.222 127.347 212.011C123.363 207.828 120.733 202.533 118.312 197.274C115.89 192.016 113.505 186.63 109.909 182.104C106.313 177.577 101.253 173.899 95.5425 173.384C89.832 172.869 83.5976 176.195 81.9892 181.769C80.3809 187.344 83.444 193.19 86.8684 197.871C91.9352 204.811 97.9758 210.986 104.804 216.204C106.033 217.107 107.37 218.146 107.804 219.646C108.581 222.357 105.997 224.905 103.286 225.691C100.268 226.594 97.0424 226.161 93.9161 226.423C90.7898 226.685 87.3563 227.95 86.0823 230.859C84.2752 234.889 87.5732 239.289 90.844 242.208C97.3937 248.056 104.9 252.736 113.035 256.041C115.936 257.216 118.999 258.264 121.303 260.414C123.607 262.565 124.917 266.197 123.39 268.971C121.863 271.745 118.149 272.513 115.086 271.835C112.023 271.157 109.322 269.395 106.421 268.221C101 265.953 93.889 266.097 90.2115 270.724C87.79 273.769 87.4376 278.106 88.4858 281.873C89.5339 285.641 91.7927 288.912 94.2052 291.957C102.662 302.592 113.659 311.293 126.254 316.145C138.849 320.997 150.65 322.596 163.453 318.395" fill="#2B7E4C"/>
<path d="M161.012 319.208C160.461 309.639 160.922 315.386 157.768 303.116C154.211 289.86 149.897 276.818 144.848 264.055C143.528 260.658 142.224 257.303 140.935 253.99C139.643 250.692 138.369 247.421 136.914 244.295C134.121 238.301 130.996 232.467 127.554 226.82C124.31 221.399 121.03 216.384 117.931 211.713C114.832 207.042 111.841 202.759 108.959 198.955C104.435 192.94 99.4403 187.293 94.023 182.068C92.1165 180.215 90.5805 178.833 89.5053 177.902L88.3036 176.863C88.1726 176.736 88.0305 176.621 87.8789 176.52C87.9889 176.667 88.1163 176.801 88.2584 176.917L89.4059 178.02C90.4179 178.977 91.9178 180.396 93.7971 182.275C99.123 187.566 104.043 193.251 108.516 199.28C111.362 203.084 114.317 207.412 117.398 212.056C120.479 216.701 123.723 221.769 126.948 227.173C130.361 232.808 133.461 238.627 136.237 244.602C137.673 247.71 138.947 250.927 140.23 254.261L144.134 264.327C149.173 277.062 153.496 290.069 157.082 303.288C160.262 315.512 159.855 309.712 160.47 319.244" fill="#E0E0E0"/>
<path d="M136.708 244.214C136.916 243.667 137.068 243.101 137.16 242.524C137.404 241.422 137.711 239.813 138.063 237.844C138.768 233.877 139.545 228.374 140.386 222.303C141.226 216.231 142.084 210.746 142.843 206.807C143.214 204.837 143.53 203.247 143.747 202.144C143.905 201.582 143.999 201.003 144.027 200.419C143.783 200.949 143.595 201.503 143.467 202.072C143.15 203.156 142.753 204.738 142.31 206.698C141.407 210.629 140.503 216.113 139.599 222.194C138.696 228.275 138.054 233.615 137.494 237.753C137.223 239.624 136.997 241.205 136.817 242.47C136.713 243.045 136.677 243.63 136.708 244.214V244.214Z" fill="#E0E0E0"/>
<path d="M85.6211 232.865C86.2899 233.037 86.9738 233.143 87.6631 233.181C88.9823 233.344 90.8797 233.57 93.229 233.922C97.9184 234.591 104.37 235.729 111.426 237.32C118.483 238.91 124.808 240.627 129.353 242C131.63 242.669 133.455 243.256 134.72 243.663C135.364 243.909 136.029 244.097 136.708 244.223C136.105 243.883 135.469 243.604 134.81 243.391C133.572 242.904 131.765 242.235 129.506 241.494C124.989 239.994 118.664 238.196 111.589 236.597C105.549 235.21 99.4421 234.134 93.2922 233.371C90.934 233.091 89.0184 232.946 87.6902 232.865C87.0018 232.806 86.3095 232.806 85.6211 232.865V232.865Z" fill="#E0E0E0"/>
<path d="M157.164 302.113C157.32 301.928 157.448 301.721 157.544 301.499L158.447 299.691C159.26 298.101 160.372 295.77 161.709 292.861C164.42 287.06 167.835 278.919 171.521 269.892C175.208 260.866 178.578 252.725 181.135 246.852C182.391 244.006 183.421 241.666 184.18 239.922C184.514 239.172 184.776 238.548 185.002 238.033C185.116 237.821 185.195 237.593 185.237 237.356C185.091 237.546 184.967 237.752 184.867 237.97L183.963 239.777C183.15 241.376 182.039 243.708 180.701 246.617C177.991 252.418 174.566 260.559 170.88 269.585C167.193 278.612 163.823 286.753 161.266 292.626C160.019 295.472 158.989 297.812 158.221 299.547L157.408 301.444C157.301 301.657 157.219 301.881 157.164 302.113V302.113Z" fill="#E0E0E0"/>
<path d="M89.5977 277.78C89.8068 277.908 90.0315 278.008 90.2663 278.079L92.227 278.811L99.4554 281.431C105.572 283.644 113.975 286.798 123.255 290.295C132.534 293.791 140.973 296.872 147.127 298.96C150.208 299.999 152.71 300.821 154.445 301.354L156.451 301.95C156.679 302.041 156.92 302.096 157.165 302.113C156.956 301.982 156.732 301.879 156.496 301.806L154.536 301.074L147.307 298.463C141.199 296.249 132.796 293.096 123.517 289.599C114.237 286.102 105.798 283.021 99.6361 280.934C96.564 279.886 94.0612 279.073 92.3264 278.539L90.3205 277.934C90.0886 277.847 89.8449 277.795 89.5977 277.78V277.78Z" fill="#E0E0E0"/>
<path d="M336.111 114.663C336.111 114.663 325.215 108.907 315.14 134.613C305.066 160.319 301.731 174.902 301.731 174.902C301.731 174.902 298.93 180.324 295.081 177.351C291.232 174.378 285.468 165.307 279.649 167.611C273.604 169.996 272.24 177.125 274.426 187.2C276.613 197.274 280.588 219.511 280.941 221.535C281.293 223.558 280.435 226.558 277.48 224.932C274.526 223.305 256.87 207.141 249.705 215.978C242.54 224.814 253.238 251.867 254.349 254.83C255.461 257.794 254.991 259.176 253.609 260.08C252.226 260.983 246.814 254.984 241.6 250.593C236.387 246.201 229.583 242.027 225.87 247.475C222.156 252.924 222.87 273.931 246.082 305.908L257.828 320.021L276.035 317.211C314.643 308.808 329.163 293.601 330.031 287.069C330.898 280.536 323.028 279.118 316.215 278.937C309.403 278.756 301.37 279.596 300.936 278.033C300.503 276.47 301.072 275.115 303.882 273.633C306.692 272.151 332.696 259.086 333.229 247.728C333.762 236.371 309.836 236.66 306.547 235.91C303.258 235.16 304.65 232.296 306.222 231.076C307.794 229.856 325.603 215.86 333.943 209.806C342.283 203.753 346.005 197.518 343.096 191.736C340.286 186.143 329.967 189.025 325.088 188.727C320.209 188.429 321.763 182.474 321.763 182.474C321.763 182.474 328.991 169.364 338.587 143.477C348.183 117.59 335.876 114.618 335.876 114.618" fill="#2B7E4C"/>
<path d="M258.254 316.046C265.383 297.071 275.421 270.922 286.67 242.072C297.92 213.222 308.003 187.118 315.232 168.171L323.761 145.727L326.092 139.628L326.707 138.047C326.851 137.685 326.933 137.514 326.933 137.514C326.933 137.514 326.933 137.703 326.761 138.065L326.192 139.664L323.969 145.808C322.035 151.139 319.18 158.828 315.611 168.315C308.482 187.29 298.444 213.448 287.204 242.28C275.963 271.112 265.862 297.243 258.633 316.19" fill="#E0E0E0"/>
<path d="M287.076 180.414C287.312 180.789 287.506 181.189 287.654 181.607C287.998 182.384 288.459 183.531 289.019 184.95C290.139 187.787 291.576 191.745 293.085 196.145C294.594 200.545 295.886 204.412 296.898 207.412L298.081 210.818C298.256 211.227 298.384 211.655 298.461 212.092C298.224 211.716 298.027 211.317 297.874 210.9C297.53 210.123 297.069 208.975 296.527 207.548C295.434 204.701 294.052 200.726 292.543 196.326L288.621 185.085L287.42 181.688C287.259 181.277 287.144 180.85 287.076 180.414V180.414Z" fill="#E0E0E0"/>
<path d="M300.178 212.246C300.115 212.102 308.147 208.777 318.114 204.828C328.08 200.88 336.184 197.78 336.257 197.925C336.329 198.07 328.287 201.404 318.321 205.352C308.355 209.301 300.232 212.4 300.178 212.246Z" fill="#E0E0E0"/>
<path d="M280.959 255.761C281.396 255.647 281.845 255.584 282.296 255.571L285.965 255.219C289.055 254.921 293.329 254.496 298.018 253.845C302.707 253.195 306.954 252.49 310.008 251.939L313.622 251.297C314.063 251.188 314.515 251.131 314.969 251.126C314.55 251.3 314.113 251.43 313.667 251.514C312.827 251.731 311.598 252.02 310.053 252.336C307.008 252.987 302.771 253.773 298.063 254.415C293.356 255.056 289.028 255.427 285.956 255.625C284.401 255.716 283.146 255.77 282.278 255.788C281.839 255.829 281.396 255.82 280.959 255.761Z" fill="#E0E0E0"/>
<path d="M262.771 229.576C263.078 229.86 263.35 230.179 263.585 230.525L265.636 233.235C267.343 235.539 269.675 238.756 272.223 242.325C274.771 245.894 277.057 249.147 278.683 251.514L280.58 254.333C280.834 254.67 281.049 255.033 281.222 255.418C280.911 255.135 280.635 254.817 280.4 254.469C279.849 253.728 279.162 252.815 278.349 251.758C276.641 249.445 274.31 246.237 271.762 242.668C269.214 239.099 266.937 235.847 265.31 233.479L263.404 230.66C263.147 230.328 262.934 229.963 262.771 229.576V229.576Z" fill="#E0E0E0"/>
<path d="M240.926 265.835C241.309 266.209 241.655 266.621 241.956 267.064L244.603 270.534C246.808 273.479 249.826 277.573 253.133 282.117C256.44 286.662 259.412 290.791 261.545 293.8L264.039 297.414C264.366 297.84 264.651 298.297 264.888 298.779C264.507 298.402 264.162 297.991 263.858 297.55L261.219 294.071C259.006 291.126 255.988 287.033 252.681 282.488C249.374 277.943 246.356 273.814 244.269 270.805L241.775 267.191C241.453 266.765 241.169 266.311 240.926 265.835V265.835Z" fill="#E0E0E0"/>
<path d="M264.535 297.794C265.088 297.643 265.653 297.546 266.225 297.505L270.86 296.89C274.772 296.375 280.167 295.644 286.103 294.659C292.039 293.674 297.388 292.671 301.255 291.903L305.845 290.999C306.4 290.863 306.965 290.772 307.535 290.728C307.005 290.946 306.454 291.109 305.891 291.216C304.824 291.496 303.27 291.867 301.373 292.3C297.515 293.204 292.166 294.252 286.22 295.228C280.275 296.204 274.863 296.881 270.932 297.297C268.972 297.496 267.381 297.649 266.279 297.722C265.701 297.793 265.117 297.818 264.535 297.794V297.794Z" fill="#E0E0E0"/>
<path d="M317.03 49.3997C317.03 49.3997 311.844 56.1854 301.733 54.2608C295.48 53.0681 283.084 52.4537 281.484 57.0799L283.346 71.0216C288.8 69.7743 294.461 69.7281 299.935 70.8861C308.166 72.8648 320.057 67.0279 320.057 67.0279L317.03 49.3997Z" fill="#2B7E4C"/>
<path d="M300.189 68.9254C299.227 68.8432 298.295 68.555 297.455 68.0805C296.615 67.606 295.887 66.9562 295.32 66.1753C294.754 65.3944 294.362 64.5007 294.171 63.5549C293.981 62.6091 293.996 61.6334 294.216 60.694C295.12 57.3148 300.18 55.7516 303.559 56.6823C304.365 56.9007 305.119 57.2764 305.779 57.7878C306.438 58.2992 306.99 58.9361 307.403 59.6618C307.815 60.3875 308.08 61.1876 308.182 62.0161C308.283 62.8446 308.22 63.685 307.995 64.4889C307.065 67.8321 303.685 69.2145 300.189 68.9254Z" fill="#F5F5F5"/>
<path d="M299.185 66.4045C299.185 66.2961 299.474 66.2599 299.925 66.2328C300.534 66.2344 301.141 66.1616 301.733 66.016C302.082 65.9143 302.41 65.7489 302.699 65.528C302.976 65.3244 303.166 65.0246 303.232 64.6877C303.256 64.5236 303.24 64.3563 303.187 64.1993C303.133 64.0424 303.044 63.9002 302.925 63.7842C302.581 63.5408 302.16 63.4315 301.742 63.477H300.838C300.46 63.4596 300.088 63.3802 299.736 63.2421C299.541 63.1633 299.358 63.0568 299.194 62.9258C299.018 62.7914 298.866 62.6298 298.742 62.4469C298.519 62.0989 298.4 61.6946 298.398 61.2814C298.403 60.9237 298.494 60.5725 298.664 60.2578C298.834 59.9431 299.078 59.6742 299.374 59.4743C299.82 59.1673 300.336 58.9777 300.874 58.9231C301.276 58.8664 301.683 58.8664 302.085 58.9231C302.37 58.9699 302.651 59.0394 302.925 59.1309C303.377 59.2936 303.603 59.4381 303.585 59.5375C303.567 59.6369 303.296 59.6911 302.844 59.7182C302.236 59.7225 301.63 59.7921 301.037 59.926C300.705 60.025 300.398 60.1911 300.133 60.414C300.013 60.508 299.918 60.6311 299.858 60.7717C299.798 60.9124 299.774 61.066 299.79 61.2181C299.797 61.3578 299.844 61.4925 299.925 61.6066C299.967 61.6559 300.016 61.6986 300.07 61.7331C300.133 61.7798 300.203 61.8164 300.278 61.8416C300.782 61.9536 301.299 61.9932 301.814 61.959C302.18 61.9661 302.543 62.0146 302.898 62.1036C303.099 62.1607 303.293 62.2395 303.476 62.3385C303.666 62.4421 303.84 62.573 303.991 62.727C304.272 63.015 304.476 63.3679 304.586 63.7542C304.697 64.1406 304.71 64.5482 304.624 64.9407C304.543 65.2729 304.397 65.5855 304.194 65.8602C303.991 66.1349 303.734 66.3661 303.44 66.54C302.989 66.8149 302.483 66.9876 301.958 67.046C301.262 67.1124 300.56 67.0293 299.898 66.802C299.392 66.6575 299.166 66.5039 299.185 66.4045Z" fill="#2B7E4C"/>
<path d="M302.691 68.0218C302.483 68.0218 302.049 65.7901 301.715 62.98C301.381 60.17 301.281 57.875 301.489 57.8479C301.697 57.8208 302.131 60.0797 302.465 62.8897C302.799 65.6997 302.899 67.9496 302.691 68.0218Z" fill="#2B7E4C"/>
<path d="M301.515 67.8593C301.316 67.8593 300.9 65.8353 300.611 63.2873C300.322 60.7393 300.232 58.6431 300.439 58.625C300.647 58.6069 301.063 60.6489 301.343 63.1969C301.623 65.7449 301.722 67.8321 301.515 67.8593Z" fill="#2B7E4C"/>
<g opacity="0.5">
<path d="M284.528 69.5398L282.875 56.8449L282.974 56.7636C287.917 53.1494 297.034 54.6583 303.069 55.6703C304.108 55.842 305.093 56.0046 305.943 56.1221C311.608 56.9172 315.827 52.4537 315.936 51.9477H316.388L318.439 65.5913L318.321 65.6726C315.247 67.6461 311.794 68.9549 308.184 69.5151C304.574 70.0753 300.887 69.8744 297.359 68.9253C292.552 67.5248 284.845 69.4765 284.772 69.4946L284.528 69.5398ZM283.354 57.0527L284.908 68.9796C286.29 68.6452 292.995 67.1725 297.485 68.4736C300.918 69.396 304.506 69.5968 308.02 69.0634C311.535 68.53 314.901 67.2739 317.906 65.3744L316.035 52.6615C315.754 52.9819 315.452 53.2838 315.132 53.565C314.138 54.4686 310.524 57.2877 305.861 56.6281C305.012 56.5106 304.054 56.348 302.979 56.1673C297.079 55.1191 288.161 53.6283 283.354 57.0527Z" fill="#FAFAFA"/>
</g>
<path d="M131.686 33.8588C131.686 33.8588 123.156 33.2715 119.199 23.7752C116.741 17.9021 110.398 7.24024 105.645 8.41486L95.0469 17.6672C99.0983 21.531 102.256 26.2338 104.299 31.4463C107.2 39.4065 118.62 46.1018 118.62 46.1018L131.686 33.8588Z" fill="#F5F5F5"/>
<path d="M106.106 30.5517C105.645 29.7025 105.373 28.7637 105.308 27.7996C105.243 26.8355 105.387 25.8688 105.731 24.9655C106.074 24.0622 106.608 23.2436 107.296 22.5657C107.985 21.8877 108.812 21.3664 109.72 21.0374C113.054 19.9531 117.129 23.2962 118.223 26.6303C118.483 27.4223 118.585 28.2579 118.521 29.0892C118.458 29.9204 118.23 30.7309 117.852 31.4741C117.475 32.2172 116.954 32.8784 116.319 33.4194C115.685 33.9605 114.95 34.3708 114.157 34.6267C110.813 35.711 107.796 33.687 106.106 30.5517Z" fill="#2B7E4C"/>
<path d="M107.661 28.3471C107.76 28.3471 107.941 28.5097 108.203 28.8711C108.539 29.3656 108.93 29.8202 109.368 30.2265C109.634 30.4602 109.941 30.6438 110.272 30.7686C110.59 30.887 110.939 30.887 111.257 30.7686C111.405 30.6972 111.534 30.5922 111.635 30.462C111.735 30.3318 111.804 30.18 111.835 30.0186C111.85 29.5988 111.712 29.1879 111.447 28.8621C111.293 28.6181 111.112 28.3651 110.95 28.067C110.754 27.7429 110.614 27.3887 110.534 27.0189C110.502 26.8092 110.502 26.596 110.534 26.3864C110.544 26.1647 110.596 25.9471 110.688 25.7449C110.855 25.3731 111.129 25.0588 111.474 24.8413C111.789 24.631 112.153 24.5064 112.531 24.4799C112.87 24.4646 113.208 24.52 113.525 24.6425C114.026 24.8453 114.467 25.1717 114.808 25.5912C115.07 25.9003 115.283 26.2476 115.44 26.6213C115.563 26.8854 115.66 27.1608 115.729 27.4435C115.847 27.9043 115.856 28.1754 115.729 28.2115C115.603 28.2477 115.44 28.067 115.169 27.6965C114.835 27.2006 114.447 26.743 114.013 26.3322C113.749 26.1045 113.441 25.9324 113.109 25.8262C112.958 25.7689 112.795 25.7529 112.636 25.7799C112.478 25.8069 112.329 25.8759 112.206 25.9798C112.095 26.0665 112.01 26.1822 111.962 26.3141C111.948 26.3766 111.948 26.4413 111.962 26.5038C111.954 26.582 111.954 26.6606 111.962 26.7388C112.146 27.2209 112.399 27.6743 112.712 28.085C112.911 28.3927 113.071 28.7234 113.19 29.0699C113.254 29.2662 113.293 29.4695 113.308 29.6753C113.34 29.891 113.34 30.1102 113.308 30.3258C113.222 30.7181 113.04 31.0828 112.778 31.3872C112.516 31.6916 112.183 31.9262 111.808 32.0697C111.488 32.1852 111.148 32.2351 110.808 32.2165C110.468 32.1979 110.135 32.1111 109.829 31.9613C109.349 31.74 108.924 31.4161 108.582 31.0125C108.152 30.4668 107.844 29.8352 107.679 29.1603C107.561 28.6543 107.57 28.3832 107.661 28.3471Z" fill="#F5F5F5"/>
<path d="M108.273 32.1419C108.138 31.9793 109.782 30.3349 111.942 28.5278C114.101 26.7207 115.972 25.3473 116.098 25.5099C116.225 25.6725 114.589 27.317 112.43 29.1241C110.27 30.9312 108.409 32.2955 108.273 32.1419Z" fill="#F5F5F5"/>
<path d="M107.733 31.0939C107.598 30.9403 109.08 29.4675 111.04 27.805C113.001 26.1425 114.709 24.9407 114.835 25.0943C114.962 25.2479 113.489 26.7298 111.528 28.3833C109.567 30.0367 107.914 31.2565 107.733 31.0939Z" fill="#F5F5F5"/>
<g opacity="0.5">
<path d="M96.959 17.8479L106.636 9.46295H106.762C112.518 11.5863 116.268 20.0345 118.753 25.6274C119.186 26.5852 119.593 27.4978 119.954 28.2658C122.421 33.4431 128.466 34.4912 128.99 34.3015L129.252 34.6629L118.96 43.8791L118.825 43.8158C115.496 42.3362 112.512 40.1799 110.062 37.4841C107.612 34.7883 105.75 31.612 104.594 28.1574C103.112 23.3776 97.2391 18.0195 97.1758 17.9653L96.959 17.8479ZM106.726 9.97797L97.6276 17.8569C98.6757 18.8237 103.6 23.6035 104.992 28.067C106.113 31.4446 107.921 34.5533 110.304 37.197C112.686 39.8407 115.591 41.962 118.834 43.4273L128.448 34.8255C128.033 34.773 127.622 34.6915 127.219 34.5816C125.936 34.2382 121.572 32.7745 119.548 28.5368C119.177 27.7598 118.78 26.8472 118.346 25.8804C115.915 20.3688 112.238 12.1103 106.726 9.97797V9.97797Z" fill="#2B7E4C"/>
</g>
<path d="M70.3341 113.805C69.6424 115.63 68.4705 117.236 66.9422 118.451C65.4138 119.666 63.5858 120.445 61.651 120.708C57.323 121.476 49.173 124.15 49.2724 127.52L53.9166 136.059C57.129 133.911 60.7701 132.486 64.5875 131.885C70.3883 131.135 76.6228 124.439 76.6228 124.439L70.3341 113.805Z" fill="#F5F5F5"/>
<path d="M64.2621 130.529C63.621 130.713 62.9479 130.757 62.2884 130.657C61.629 130.558 60.9986 130.318 60.4399 129.954C59.8812 129.59 59.4073 129.11 59.0504 128.547C58.6934 127.983 58.4617 127.35 58.3709 126.689C58.136 124.277 61.0093 122.027 63.4218 121.801C64.5803 121.69 65.7354 122.044 66.6333 122.784C67.5312 123.525 68.0985 124.591 68.2106 125.75C68.4365 128.162 66.5932 129.879 64.2621 130.529Z" fill="#2B7E4C"/>
<path d="M62.9965 129.174C62.9965 129.102 63.1501 129.011 63.4393 128.885C63.8206 128.732 64.1842 128.538 64.5235 128.307C64.7258 128.157 64.8976 127.97 65.0295 127.755C65.1603 127.559 65.209 127.319 65.165 127.087C65.1392 126.976 65.0882 126.873 65.0162 126.785C64.9441 126.698 64.8528 126.628 64.7494 126.581C64.4675 126.51 64.1695 126.542 63.9091 126.671C63.7194 126.743 63.5206 126.825 63.2947 126.888C63.048 126.975 62.7881 127.017 62.5267 127.014C62.3797 127.008 62.2341 126.984 62.093 126.942C61.9477 126.898 61.8104 126.831 61.6864 126.743C61.4596 126.571 61.2846 126.34 61.1804 126.075C61.0913 125.826 61.0634 125.56 61.0991 125.298C61.1379 125.067 61.2274 124.848 61.3611 124.656C61.5701 124.347 61.8568 124.097 62.1924 123.933C62.4417 123.802 62.71 123.711 62.9875 123.662C63.1814 123.625 63.3776 123.601 63.5748 123.59C63.9091 123.59 64.0898 123.59 64.0989 123.689C64.1079 123.789 63.9543 123.861 63.6742 123.988C63.2898 124.14 62.9232 124.334 62.5809 124.566C62.3802 124.706 62.2159 124.892 62.102 125.108C62.0514 125.199 62.0248 125.302 62.0248 125.406C62.0248 125.51 62.0514 125.613 62.102 125.704C62.1396 125.793 62.2024 125.868 62.2827 125.921L62.4092 125.975H62.5719C62.9251 125.922 63.2689 125.819 63.5929 125.668C63.8296 125.584 64.0751 125.526 64.3247 125.497C64.4687 125.479 64.6144 125.479 64.7584 125.497C64.9068 125.511 65.051 125.554 65.1831 125.623C65.435 125.738 65.6545 125.914 65.8216 126.135C65.9888 126.355 66.0985 126.614 66.1409 126.888C66.1978 127.362 66.0646 127.84 65.7704 128.216C65.5487 128.505 65.2645 128.74 64.9392 128.903C64.5079 129.124 64.0322 129.244 63.5477 129.255C63.1953 129.291 63.0146 129.246 62.9965 129.174Z" fill="#F5F5F5"/>
<path d="M65.6451 129.328C64.2474 127.411 63.142 125.298 62.3652 123.057C63.1328 123.968 63.7657 124.984 64.2446 126.075C64.8732 127.082 65.3454 128.179 65.6451 129.328V129.328Z" fill="#F5F5F5"/>
<path d="M64.8665 129.535C64.7309 129.608 63.9629 128.388 63.1407 126.825C62.5648 125.908 62.1407 124.904 61.8848 123.852C62.5984 124.658 63.178 125.573 63.6015 126.563C64.1761 127.481 64.6029 128.484 64.8665 129.535V129.535Z" fill="#F5F5F5"/>
<g opacity="0.5">
<path d="M54.3035 134.812L50.084 127.023V126.942C52.379 123.382 58.6406 122.117 62.7879 121.286C63.5017 121.141 64.1793 121.006 64.7576 120.87C66.0229 120.537 67.1833 119.889 68.1311 118.987C69.079 118.085 69.7834 116.958 70.1789 115.711L70.459 115.594L75.1213 123.924L75.0671 123.997C73.5673 126.017 71.6633 127.704 69.4761 128.948C67.2889 130.193 64.8665 130.968 62.3632 131.225C58.9207 131.505 54.421 134.658 54.3758 134.695L54.3035 134.812ZM50.4725 127.042L54.412 134.36C55.2252 133.8 59.1917 131.198 62.4084 130.936C64.8526 130.683 67.2181 129.927 69.3562 128.715C71.4942 127.504 73.3586 125.864 74.8321 123.897L70.4771 116.118C70.3816 116.392 70.2637 116.658 70.1247 116.913C69.5994 117.95 68.8624 118.865 67.9612 119.6C67.0601 120.335 66.0149 120.872 64.8931 121.177C64.3149 121.313 63.6372 121.449 62.9234 121.593C58.8574 122.406 52.7314 123.644 50.4725 127.042Z" fill="#2B7E4C"/>
</g>
<path d="M401.15 36.0543C399.522 37.132 397.634 37.7505 395.684 37.8443C393.735 37.9381 391.796 37.5039 390.072 36.5874C386.106 34.6809 377.929 32.0696 376.049 34.8797L374.82 44.5295C378.685 44.6553 382.476 45.6268 385.925 47.3757C391.075 50.1496 400.047 48.3606 400.047 48.3606L401.15 36.0543Z" fill="#F5F5F5"/>
<path d="M386.451 46.0837C385.822 45.8587 385.25 45.5009 384.773 45.0349C384.296 44.5688 383.924 44.0054 383.684 43.3829C383.444 42.7604 383.341 42.0936 383.382 41.4277C383.423 40.7617 383.606 40.1125 383.921 39.524C385.14 37.4368 388.782 37.2832 390.869 38.503C391.367 38.7926 391.803 39.1777 392.153 39.6361C392.502 40.0946 392.757 40.6174 392.904 41.1747C393.051 41.732 393.086 42.3128 393.009 42.8838C392.931 43.4549 392.741 44.0049 392.45 44.5025C391.23 46.5987 388.727 46.924 386.451 46.0837Z" fill="#2B7E4C"/>
<path d="M386.207 44.2405C386.207 44.1773 386.424 44.2405 386.731 44.2405C387.13 44.343 387.539 44.3976 387.951 44.4032C388.202 44.3966 388.45 44.3446 388.683 44.2495C388.901 44.1614 389.081 43.9979 389.189 43.7887C389.231 43.6839 389.248 43.5709 389.241 43.4583C389.233 43.3457 389.2 43.2362 389.144 43.1382C388.954 42.9153 388.691 42.7678 388.403 42.7226C388.213 42.6683 388.005 42.6141 387.779 42.5328C387.531 42.4556 387.296 42.3398 387.083 42.1895C386.97 42.0986 386.867 41.9956 386.776 41.8823C386.686 41.7586 386.616 41.6213 386.568 41.4757C386.487 41.2014 386.487 40.9096 386.568 40.6354C386.638 40.3825 386.772 40.1521 386.957 39.9667C387.119 39.7968 387.321 39.6695 387.544 39.5963C387.894 39.4703 388.27 39.4331 388.638 39.4879C388.915 39.5328 389.186 39.6149 389.442 39.7318C389.622 39.8177 389.797 39.9143 389.966 40.0209C390.237 40.2107 390.363 40.3462 390.336 40.4095C390.309 40.4727 390.119 40.4637 389.812 40.4095C389.41 40.3092 388.998 40.2517 388.583 40.2378C388.34 40.2413 388.099 40.2968 387.879 40.4004C387.782 40.4414 387.698 40.5059 387.633 40.588C387.569 40.6701 387.526 40.7672 387.508 40.8703C387.48 40.9616 387.48 41.0591 387.508 41.1504C387.523 41.1944 387.548 41.2345 387.58 41.2678C387.613 41.3105 387.653 41.3472 387.698 41.3763C388.013 41.5425 388.351 41.6613 388.701 41.7286C388.948 41.7929 389.185 41.8902 389.406 42.0178C389.528 42.091 389.643 42.1757 389.749 42.2708C389.852 42.378 389.943 42.4961 390.02 42.6232C390.153 42.8671 390.222 43.1405 390.222 43.4183C390.222 43.6961 390.153 43.9694 390.02 44.2134C389.911 44.4272 389.761 44.6173 389.578 44.7724C389.395 44.9276 389.183 45.0447 388.954 45.1169C388.602 45.217 388.233 45.2447 387.87 45.1983C387.393 45.1188 386.94 44.9369 386.541 44.6652C386.315 44.4483 386.207 44.3038 386.207 44.2405Z" fill="#F5F5F5"/>
<path d="M388.282 45.921C388.188 44.7348 388.27 43.5412 388.526 42.3791C388.606 41.1914 388.861 40.022 389.285 38.9095C389.368 40.0957 389.286 41.2878 389.041 42.4514C388.961 43.6391 388.705 44.8084 388.282 45.921V45.921Z" fill="#F5F5F5"/>
<path d="M387.524 45.6319C387.417 44.556 387.484 43.4698 387.723 42.4153C387.786 41.3349 388.027 40.2724 388.437 39.2709C388.539 40.3469 388.472 41.4323 388.238 42.4876C388.169 43.567 387.928 44.6284 387.524 45.6319V45.6319Z" fill="#F5F5F5"/>
<g opacity="0.5">
<path d="M375.869 43.7435L377.017 34.9701H377.107C381.046 33.416 386.865 36.0543 390.723 37.7982C391.383 38.0964 392.007 38.3855 392.531 38.6114C393.753 39.0798 395.074 39.2319 396.371 39.0534C397.668 38.8749 398.898 38.3716 399.949 37.5904L400.247 37.6536L399.163 47.1409H399.072C396.675 47.9075 394.144 48.166 391.64 47.9C389.137 47.634 386.717 46.8492 384.534 45.5958C381.571 43.7887 376.077 43.7435 376.023 43.7435H375.869ZM377.306 35.196L376.222 43.4363C377.206 43.4363 381.95 43.6622 384.715 45.3247C386.845 46.5507 389.206 47.3218 391.649 47.5892C394.093 47.8567 396.565 47.6148 398.91 46.8788L399.913 38.015C399.678 38.1821 399.43 38.3301 399.172 38.4578C398.139 38.9923 397.005 39.3046 395.844 39.3747C394.684 39.4447 393.521 39.2709 392.431 38.8644L390.624 38.0421C386.82 36.3344 381.128 33.7593 377.306 35.196Z" fill="#2B7E4C"/>
</g>
<path d="M409.181 321.756C409.181 321.892 317.579 322 204.599 322C91.6197 322 0 321.919 0 321.756C0 321.593 91.5836 321.521 204.599 321.521C317.615 321.521 409.181 321.63 409.181 321.756Z" fill="#263238"/>
<path d="M183.981 123.454C182.605 120.484 181.525 117.385 180.756 114.202C179.986 110.994 180.184 107.63 181.325 104.534C181.911 103 182.861 101.632 184.093 100.548C185.326 99.4631 186.804 98.6947 188.4 98.3087C190.378 97.9202 192.502 98.2455 194.399 97.5497C196.595 96.7365 198.058 94.7216 199.766 93.1223C202.468 90.6169 205.906 89.0513 209.57 88.6588C211.482 88.389 213.432 88.6711 215.19 89.472C216.059 89.8823 216.811 90.5058 217.375 91.2846C217.939 92.0634 218.297 92.9722 218.415 93.9265C220.622 93.0782 222.931 92.5223 225.282 92.273C227.659 92.0331 230.034 92.7373 231.896 94.2337C232.8 94.9978 233.435 96.0307 233.71 97.1816C233.985 98.3325 233.884 99.5411 233.423 100.631C234.425 100.137 235.574 100.032 236.648 100.336C237.723 100.64 238.647 101.331 239.242 102.275C239.797 103.253 240.057 104.37 239.991 105.492C239.926 106.615 239.537 107.694 238.872 108.6C237.218 110.576 234.915 111.899 232.375 112.332C230.171 112.639 227.604 112.847 225.499 112.142" fill="#263238"/>
<path d="M189.374 187.109L220.998 184.579C221.197 180.884 220.935 166.599 220.935 166.599C220.935 166.599 234.09 164.548 234.253 151.392C234.415 138.236 232.138 108.022 232.138 108.022C224.658 104.806 216.455 103.645 208.376 104.66C200.298 105.675 192.636 108.829 186.184 113.796L184.232 115.295L189.374 187.109Z" fill="#B78876"/>
<path d="M220.962 166.409C214.882 166.525 208.905 164.826 203.795 161.53C203.795 161.53 207.852 170.999 220.962 169.815V166.409Z" fill="#AA6550"/>
<path d="M185.859 128.93C185.642 128.831 176.823 126.219 177.112 135.255C177.402 144.29 186.365 142.113 186.374 141.851C186.383 141.589 185.859 128.93 185.859 128.93Z" fill="#B78876"/>
<path d="M183.52 138.498C183.52 138.498 183.367 138.607 183.105 138.742C182.738 138.911 182.32 138.931 181.939 138.797C180.972 138.48 180.132 136.99 180.033 135.381C179.984 134.611 180.107 133.839 180.394 133.122C180.47 132.838 180.614 132.577 180.814 132.361C181.014 132.146 181.264 131.982 181.542 131.885C181.715 131.841 181.898 131.856 182.062 131.928C182.225 132 182.36 132.125 182.445 132.282C182.572 132.526 182.517 132.707 182.563 132.725C182.608 132.743 182.752 132.562 182.671 132.201C182.614 131.978 182.483 131.781 182.301 131.641C182.037 131.459 181.713 131.388 181.397 131.442C181.031 131.528 180.693 131.706 180.415 131.959C180.136 132.212 179.927 132.531 179.807 132.887C179.445 133.679 179.287 134.549 179.346 135.417C179.454 137.224 180.439 138.896 181.749 139.23C181.994 139.294 182.249 139.301 182.497 139.25C182.744 139.2 182.977 139.095 183.177 138.941C183.511 138.742 183.557 138.498 183.52 138.498Z" fill="#AA6550"/>
<path d="M227.83 128.415C227.833 128.903 227.646 129.372 227.308 129.725C226.971 130.077 226.51 130.285 226.023 130.303C225.784 130.322 225.544 130.293 225.316 130.217C225.089 130.142 224.879 130.022 224.698 129.865C224.517 129.708 224.369 129.516 224.263 129.301C224.157 129.087 224.095 128.853 224.08 128.614C224.075 128.124 224.261 127.653 224.599 127.298C224.936 126.944 225.398 126.735 225.887 126.716C226.127 126.698 226.368 126.727 226.596 126.803C226.824 126.879 227.034 127 227.215 127.158C227.396 127.316 227.544 127.509 227.649 127.724C227.755 127.94 227.816 128.175 227.83 128.415Z" fill="#263238"/>
<path d="M229.656 126.526C229.421 126.779 228.003 125.722 225.979 125.731C223.955 125.74 222.473 126.743 222.256 126.499C222.039 126.255 222.383 125.948 223.033 125.469C223.911 124.869 224.952 124.553 226.015 124.566C227.061 124.555 228.085 124.871 228.943 125.469C229.557 125.975 229.774 126.418 229.656 126.526Z" fill="#263238"/>
<path d="M207.951 128.415C207.954 128.903 207.767 129.372 207.429 129.725C207.092 130.077 206.631 130.285 206.144 130.303C205.905 130.322 205.665 130.293 205.437 130.217C205.21 130.142 205 130.022 204.819 129.865C204.638 129.708 204.49 129.516 204.384 129.301C204.278 129.087 204.216 128.853 204.201 128.614C204.196 128.124 204.382 127.653 204.72 127.298C205.057 126.944 205.519 126.735 206.008 126.716C206.248 126.698 206.489 126.727 206.717 126.803C206.945 126.879 207.155 127 207.336 127.158C207.517 127.316 207.665 127.509 207.77 127.724C207.876 127.94 207.937 128.175 207.951 128.415Z" fill="#263238"/>
<path d="M209.775 126.906C209.54 127.15 208.122 126.102 206.098 126.102C204.074 126.102 202.592 127.123 202.375 126.87C202.267 126.761 202.502 126.319 203.152 125.849C204.028 125.244 205.07 124.928 206.134 124.945C207.18 124.93 208.205 125.246 209.061 125.849C209.676 126.355 209.893 126.798 209.775 126.906Z" fill="#263238"/>
<path d="M217.114 141.905C218.18 141.568 219.285 141.367 220.402 141.309C220.918 141.254 221.405 141.155 221.496 140.803C221.534 140.271 221.415 139.74 221.152 139.276L219.625 135.336C217.502 129.743 215.966 125.135 216.192 125.054C216.418 124.972 218.324 129.445 220.439 134.993C220.951 136.372 221.439 137.691 221.902 138.95C222.229 139.572 222.325 140.289 222.173 140.974C222.099 141.157 221.983 141.32 221.836 141.452C221.689 141.583 221.514 141.679 221.324 141.733C221.03 141.814 220.726 141.853 220.421 141.851C219.325 142.012 218.214 142.03 217.114 141.905V141.905Z" fill="#263238"/>
<path d="M211.168 143.305C211.494 143.305 211.503 145.474 213.382 147.037C215.261 148.6 217.593 148.356 217.611 148.663C217.611 148.799 217.087 149.088 216.102 149.115C214.815 149.13 213.565 148.691 212.569 147.877C211.613 147.097 210.998 145.976 210.852 144.751C210.771 143.829 211.015 143.287 211.168 143.305Z" fill="#263238"/>
<path d="M228.914 122.976C228.553 123.427 227.162 122.976 225.49 122.976C223.818 122.976 222.391 123.283 222.066 122.804C221.921 122.569 222.147 122.108 222.77 121.674C223.603 121.155 224.571 120.893 225.552 120.924C226.533 120.954 227.483 121.275 228.282 121.846C228.878 122.235 229.068 122.75 228.914 122.976Z" fill="#263238"/>
<path d="M207.148 119.596C206.922 119.849 206.407 119.741 205.729 119.596C204.089 119.205 202.386 119.15 200.724 119.434C200.037 119.515 199.513 119.587 199.305 119.325C199.097 119.063 199.305 118.503 200.01 117.925C200.968 117.229 202.13 116.873 203.314 116.912C204.497 116.951 205.633 117.384 206.543 118.142C207.202 118.783 207.365 119.37 207.148 119.596Z" fill="#263238"/>
<path d="M232.8 112.061C226.468 113.781 219.752 113.439 213.627 111.085C206.805 108.501 199.08 107.688 197.544 109.16C196.008 110.633 196.333 117.356 190.099 119.958C190.099 119.958 191.833 132.671 186.701 132.725C181.569 132.779 182.753 112.702 182.753 112.702L194.58 105.365L207.88 101.453L220.602 100.17L232.8 102.61V112.061Z" fill="#263238"/>
<path d="M266.781 217.351C266.781 217.351 289.695 240.943 297.772 237.437C319.738 227.95 337.592 207.855 343.736 200.654C343.998 199.298 344.26 197.708 344.486 195.811C344.676 194.172 344.584 192.512 344.215 190.904C343.842 188.879 343.192 186.915 342.281 185.067C341.278 183.45 342.724 181.507 344.305 182.167C345.886 182.827 349.726 187.1 350.531 193.118C350.628 193.462 350.799 193.78 351.031 194.051C351.264 194.322 351.552 194.54 351.877 194.688C352.202 194.837 352.555 194.913 352.912 194.912C353.27 194.911 353.622 194.832 353.946 194.681C357.922 193.371 371.43 188.13 373.824 187.57C375.965 187.073 378.522 187.2 377.095 188.763C375.667 190.326 365.71 196.154 365.71 196.154C365.71 196.154 378.613 188.257 379.679 190.19C380.411 191.528 377.691 194.6 368.638 198.973C368.638 198.973 379.318 192.549 381.143 192.757C385.245 193.235 372.469 201.096 372.469 201.096C381.504 195.675 381.043 195.305 382.019 196.362C382.751 197.148 381.17 198.946 376.733 202.56C373.119 205.497 369.993 209.255 364.752 214.017C364.752 214.017 310.54 289.418 276.431 266.278C258.043 253.8 252.993 247.512 242.557 238.06" fill="#B78876"/>
<path d="M367.122 204.458C367.257 204.683 370.085 203.138 373.446 200.997C376.808 198.856 379.41 196.94 379.256 196.723C379.103 196.506 376.275 198.06 372.931 200.193C369.588 202.325 366.995 204.259 367.122 204.458Z" fill="#AA6550"/>
<path d="M364.672 201.25C364.798 201.476 367.916 199.994 371.62 197.934C375.325 195.874 378.225 194.021 378.099 193.787C377.972 193.552 374.864 195.042 371.15 197.103C367.437 199.163 364.518 201.015 364.672 201.25Z" fill="#AA6550"/>
<path d="M362.153 197.871C362.279 198.106 365.243 196.75 368.776 194.853C372.308 192.955 375.1 191.239 374.947 190.986C374.793 190.733 371.857 192.106 368.324 194.003C364.791 195.901 362.026 197.636 362.153 197.871Z" fill="#AA6550"/>
<path d="M131.123 236.082C131.123 236.082 119.576 266.875 110.775 266.902C86.831 266.974 62.4442 255.743 53.9328 251.605C53.1558 250.466 52.2703 249.111 51.3035 247.466C50.4767 246.041 49.8964 244.486 49.5868 242.867C49.1246 240.86 48.9362 238.799 49.0266 236.741C49.2976 234.862 47.2195 233.651 46.0087 234.934C44.798 236.217 43.0089 241.629 44.6895 247.466C44.738 247.82 44.7091 248.181 44.6048 248.522C44.5004 248.864 44.3231 249.179 44.0851 249.445C43.8471 249.711 43.554 249.923 43.2263 250.065C42.8985 250.207 42.5438 250.276 42.1867 250.267C38.0214 250.656 23.5465 251.261 21.116 251.713C18.9565 252.12 16.6615 253.258 18.5951 254.116C20.0046 254.74 26.4379 255.625 29.8533 256.059C25.706 255.589 16.9506 254.785 16.8061 256.457C16.7157 257.442 18.2517 258.508 22.0376 259.24C19.4535 259.068 17.1223 259.032 16.4989 259.402C12.8847 261.48 27.7842 263.559 27.7842 263.559C17.3572 262.194 17.6012 261.697 17.1313 263.053C16.7789 264.065 18.9384 265.086 24.4591 266.667C28.9768 267.914 33.3139 270.091 40.0272 272.359C40.0272 272.359 119.919 319.723 141.884 284.864C153.73 266.07 155.844 258.282 161.618 245.433L131.123 236.082Z" fill="#B78876"/>
<path d="M34.038 264.462C34.038 264.724 30.7942 264.462 26.8096 263.821C22.825 263.179 19.7258 262.501 19.78 262.239C19.8342 261.977 23.0508 262.239 27.0084 262.881C30.9659 263.522 34.0651 264.2 34.038 264.462Z" fill="#AA6550"/>
<path d="M34.9874 260.477C34.9874 260.739 31.5178 260.631 27.2982 260.233C23.0786 259.836 19.6723 259.33 19.6994 259.023C19.7265 258.716 23.16 258.878 27.3886 259.276C31.6172 259.673 35.0055 260.252 34.9874 260.477Z" fill="#AA6550"/>
<path d="M35.9426 256.411C35.9426 256.674 32.6627 256.628 28.66 256.294C24.6573 255.96 21.4316 255.49 21.4316 255.228C21.4316 254.966 24.7115 255.02 28.7142 255.345C32.7169 255.671 35.9607 256.149 35.9426 256.411Z" fill="#AA6550"/>
<path d="M293.814 237.509L256.019 195.332C245.493 184.986 239.873 181.896 225.226 180.161C222.832 179.881 220.925 179.7 219.561 179.529C208.585 182.998 196.807 182.998 185.831 179.529V179.529C180.618 179.745 176.299 181.336 171.872 182.239C157.903 184.95 147.855 195.088 145.063 204.475L113.557 266.016L140.166 288.379L164.472 249.797L165.953 290.864L164.444 321.584L257.736 321.855L253.498 249.816L278.608 270.254L293.814 237.509Z" fill="#DA4F30"/>
<path d="M164.898 223.947C164.992 224.399 165.031 224.86 165.015 225.32C165.015 226.224 165.079 227.471 165.106 229.052C165.106 232.196 165.169 236.552 165.106 241.358C165.043 246.165 165.024 250.52 164.952 253.665C164.952 255.246 164.871 256.52 164.835 257.396C164.846 257.855 164.801 258.313 164.699 258.761C164.6 258.313 164.557 257.855 164.573 257.396C164.573 256.493 164.509 255.237 164.482 253.665C164.437 250.511 164.419 246.165 164.482 241.349C164.546 236.533 164.564 232.196 164.636 229.043C164.636 227.471 164.717 226.197 164.762 225.311C164.746 224.853 164.792 224.394 164.898 223.947V223.947Z" fill="#263238"/>
<path d="M255.081 276.741C254.936 276.044 254.846 275.338 254.81 274.627C254.674 273.145 254.502 271.193 254.286 268.844C253.879 263.956 253.382 257.197 252.84 249.734C252.298 242.271 251.864 235.549 251.575 230.66C251.457 228.302 251.349 226.341 251.277 224.86C251.218 224.15 251.218 223.437 251.277 222.727C251.428 223.423 251.521 224.13 251.557 224.841C251.692 226.323 251.864 228.275 252.072 230.624C252.478 235.512 252.975 242.271 253.527 249.734C254.078 257.197 254.493 263.956 254.783 268.853C254.909 271.212 255.008 273.172 255.09 274.654C255.141 275.349 255.138 276.047 255.081 276.741V276.741Z" fill="#263238"/>
<g opacity="0.3">
<path d="M268.917 209.526C268.917 209.653 240.608 209.761 205.668 209.761C170.728 209.761 142.42 209.653 142.42 209.526C142.42 209.4 170.728 209.292 205.668 209.292C240.608 209.292 268.917 209.391 268.917 209.526Z" fill="#2B7E4C"/>
</g>
<g opacity="0.3">
<path d="M278.684 247.006C278.684 247.141 244.186 247.24 201.647 247.24C159.108 247.24 124.602 247.141 124.602 247.006C124.602 246.87 159.09 246.771 201.647 246.771C244.204 246.771 278.684 246.924 278.684 247.006Z" fill="#2B7E4C"/>
</g>
<g opacity="0.3">
<path d="M255.839 289.743C255.839 289.879 235.807 289.978 211.095 289.978C186.383 289.978 166.352 289.879 166.352 289.743C166.352 289.608 186.383 289.508 211.095 289.508C235.807 289.508 255.839 289.617 255.839 289.743Z" fill="#2B7E4C"/>
</g>
<g opacity="0.3">
<path d="M176.366 321.756C176.239 321.756 176.131 290.276 176.131 251.46C176.131 212.644 176.239 181.146 176.366 181.146C176.492 181.146 176.583 212.589 176.583 251.442C176.583 290.294 176.501 321.756 176.366 321.756Z" fill="#2B7E4C"/>
</g>
<g opacity="0.3">
<path d="M230.431 321.765C230.431 321.765 230.431 321.638 230.431 321.404C230.431 321.169 230.431 320.78 230.431 320.328C230.431 319.371 230.431 317.988 230.386 316.226C230.386 312.612 230.314 307.471 230.269 301.119C230.151 288.334 229.989 270.724 229.817 251.27C229.645 231.817 229.519 214.171 229.51 201.412C229.51 195.088 229.51 189.901 229.51 186.305C229.51 184.498 229.51 183.161 229.555 182.203C229.555 181.751 229.555 181.39 229.555 181.128C229.544 181.008 229.544 180.887 229.555 180.766C229.555 180.766 229.555 180.893 229.555 181.128C229.555 181.363 229.555 181.751 229.555 182.203C229.555 183.161 229.555 184.543 229.6 186.305C229.6 189.919 229.672 195.051 229.718 201.412C229.835 214.189 229.998 231.808 230.169 251.27C230.341 270.733 230.468 288.316 230.477 301.11C230.477 307.435 230.477 312.63 230.477 316.226C230.477 317.988 230.477 319.371 230.477 320.328C230.477 320.78 230.477 321.132 230.477 321.404C230.473 321.525 230.458 321.646 230.431 321.765V321.765Z" fill="#2B7E4C"/>
</g>
<g opacity="0.3">
<path d="M268.68 261.67C268.554 261.67 268.445 250.285 268.445 236.244C268.445 222.203 268.554 210.818 268.68 210.818C268.807 210.818 268.915 222.194 268.915 236.244C268.915 250.294 268.816 261.67 268.68 261.67Z" fill="#2B7E4C"/>
</g>
<g opacity="0.3">
<path d="M134.042 272.088C133.906 272.088 133.807 261.354 133.807 248.108C133.807 234.862 133.906 224.119 134.042 224.119C134.177 224.119 134.276 234.853 134.276 248.108C134.276 261.363 134.168 272.088 134.042 272.088Z" fill="#2B7E4C"/>
</g>
<path d="M182.346 180.766L187.496 169.942L204.365 181.833L221.009 170.647L226.863 180.152L210.184 190.995H199.034L182.346 182.022" fill="#DA4F30"/>
<path d="M204.365 181.869C204.264 181.913 204.157 181.943 204.048 181.959C203.737 181.998 203.433 182.08 203.145 182.203C202.104 182.627 201.224 183.37 200.633 184.326C199.718 185.756 198.941 187.269 198.311 188.844C197.913 189.748 197.516 190.651 197.01 191.618C196.513 192.62 195.857 193.536 195.067 194.329L194.904 194.482L194.742 194.311L193.784 193.317C190.441 189.811 187.595 186.477 185.652 184.001C184.658 182.763 183.845 181.751 183.357 181.037C183.061 180.685 182.8 180.304 182.58 179.899C182.914 180.209 183.217 180.551 183.484 180.92L185.887 183.793C187.929 186.206 190.811 189.504 194.136 192.991L195.094 193.985H194.769C195.529 193.23 196.158 192.354 196.63 191.392C197.127 190.489 197.534 189.54 197.94 188.682C198.604 187.098 199.424 185.584 200.389 184.164C201.035 183.181 201.988 182.441 203.1 182.059C203.391 181.959 203.695 181.904 204.003 181.896C204.247 181.815 204.365 181.815 204.365 181.869Z" fill="#263238"/>
<path d="M226.563 180.36C226.328 180.75 226.053 181.113 225.74 181.444C225.171 182.122 224.34 183.08 223.256 184.209C220.406 187.149 217.294 189.823 213.958 192.196C213.226 192.711 212.494 193.208 211.79 193.669L211.464 193.877V193.479C211.259 191.577 210.797 189.711 210.091 187.932C209.567 186.489 208.814 185.14 207.859 183.938C207.242 183.127 206.414 182.501 205.465 182.131C204.796 181.905 204.39 181.878 204.399 181.833C204.408 181.787 204.498 181.833 204.688 181.833C204.97 181.841 205.249 181.887 205.519 181.968C206.529 182.296 207.423 182.908 208.094 183.73C209.111 184.936 209.917 186.304 210.479 187.778C211.223 189.597 211.712 191.509 211.934 193.461L211.573 193.281C212.269 192.811 212.991 192.323 213.723 191.808C217.039 189.454 220.157 186.834 223.048 183.974C224.168 182.881 225.036 181.959 225.641 181.327C225.921 180.979 226.229 180.656 226.563 180.36Z" fill="#263238"/>
<path d="M210.78 321.765C210.78 321.765 210.78 321.639 210.78 321.404C210.78 321.169 210.78 320.798 210.78 320.346C210.78 319.398 210.78 318.033 210.726 316.29C210.726 312.739 210.626 307.643 210.545 301.354C210.364 288.749 209.958 271.338 209.081 252.12C208.205 232.901 206.994 215.526 206.027 202.958C205.521 196.687 205.124 191.609 204.834 188.067C204.699 186.332 204.591 184.977 204.509 184.028C204.509 183.576 204.455 183.233 204.446 182.971C204.432 182.851 204.432 182.73 204.446 182.61C204.446 182.61 204.446 182.727 204.5 182.962C204.554 183.197 204.563 183.576 204.618 184.019C204.717 184.968 204.853 186.323 205.024 188.058C205.377 191.564 205.837 196.642 206.371 202.93C207.428 215.49 208.675 232.874 209.56 252.102C210.446 271.329 210.789 288.74 210.888 301.354C210.942 307.679 210.942 312.766 210.888 316.29C210.888 318.033 210.888 319.398 210.888 320.346C210.888 320.798 210.888 321.142 210.888 321.404C210.864 321.527 210.828 321.648 210.78 321.765V321.765Z" fill="#263238"/>
<g opacity="0.2">
<path d="M203.969 181.869C206.02 183.034 206.779 185.628 206.788 187.977C206.797 190.326 206.237 192.675 206.435 195.024C206.434 195.641 206.575 196.25 206.848 196.803C207.121 197.357 207.518 197.839 208.008 198.214C209.435 199.118 211.251 198.268 212.715 197.464C215.859 195.738 219.04 193.976 221.615 191.464C222.847 190.196 223.804 188.686 224.426 187.03C225.048 185.374 225.322 183.608 225.229 181.842C220.892 186.495 216.519 189.305 211.775 192.973C211.435 190.497 210.626 188.108 209.39 185.935C208.161 183.802 206.417 181.598 203.969 181.869" fill="black"/>
</g>
<g opacity="0.2">
<path d="M188.471 187.218C190.07 190.353 191.751 193.543 194.506 195.774C195.726 196.741 197.515 197.473 198.789 196.57C199.81 195.838 199.982 194.419 200.063 193.163C200.28 189.983 201.22 186.323 201.437 183.134C198.916 185.98 197.533 190.995 194.877 194.437C192.166 192.729 190.603 189.811 188.651 187.272" fill="black"/>
</g>
<g opacity="0.2">
<path d="M270.548 263.188L283.135 239.777C279.412 240.148 276.909 243.662 275.003 246.879C273.096 250.096 270.756 253.665 267.061 254.306C264.495 254.749 261.929 253.601 259.688 252.264C257.447 250.927 255.278 249.346 252.73 248.785L270.548 263.188Z" fill="black"/>
</g>
<g opacity="0.2">
<path d="M159.983 256.863C159.983 256.863 151.219 266.088 145.31 267.444C142.338 268.098 139.262 268.115 136.284 267.492C133.306 266.869 130.494 265.62 128.034 263.83C127.657 263.499 127.208 263.261 126.724 263.134C126.479 263.084 126.224 263.129 126.011 263.26C125.798 263.39 125.642 263.597 125.576 263.839C125.586 264.059 125.646 264.274 125.753 264.466C125.86 264.659 126.009 264.825 126.191 264.95C132.214 270.558 138.491 275.895 145.021 280.961L159.983 256.863Z" fill="black"/>
</g>
<g opacity="0.2">
<path d="M201.255 193.976C197.93 220.535 195.759 247.201 194.741 273.976C194.587 278.16 194.479 282.47 195.969 286.382C197.704 290.9 201.391 294.424 205.005 297.731C206.532 299.14 208.619 300.658 210.48 299.782C211.191 299.382 211.795 298.818 212.242 298.137C214.501 295.228 216.615 292.083 217.456 288.487C220.076 277.229 209.45 266.088 211.845 254.776" fill="black"/>
</g>
<path d="M200.399 184.733L208.377 184.525L210.509 188.817L207.952 195.991H201.438L197.986 189.567L200.399 184.733Z" fill="#455A64"/>
<path d="M201.437 195.991L197.705 287.304L208.548 299.095L218.568 284.855L207.951 195.991H201.437Z" fill="#455A64"/>
<path d="M207.574 196.118C206.57 196.215 205.559 196.215 204.556 196.118C203.552 196.182 202.544 196.149 201.547 196.018C203.526 195.491 205.613 195.525 207.574 196.118V196.118Z" fill="#263238"/>
<path d="M209.289 186.07C209.027 186.582 208.685 187.048 208.277 187.453C207.367 188.489 206.362 189.439 205.277 190.29C204.2 191.146 203.048 191.902 201.834 192.549C201.349 192.859 200.814 193.085 200.253 193.217C200.19 193.091 202.503 191.898 204.988 189.919C207.473 187.941 209.18 185.971 209.289 186.07Z" fill="#263238"/>
<path d="M208.937 204.909C207.754 206.41 206.452 207.812 205.042 209.102C203.739 210.503 202.322 211.793 200.805 212.96C201.989 211.458 203.295 210.056 204.708 208.767C206.007 207.365 207.421 206.075 208.937 204.909V204.909Z" fill="#263238"/>
<path d="M209.487 211.487C208.15 213.141 206.691 214.694 205.123 216.131C203.67 217.686 202.103 219.13 200.434 220.45C201.772 218.794 203.231 217.239 204.798 215.797C206.252 214.246 207.819 212.806 209.487 211.487V211.487Z" fill="#2B7E4C"/>
<path d="M210.519 217.559C208.942 219.454 207.246 221.247 205.441 222.926C203.741 224.718 201.93 226.402 200.02 227.968C201.595 226.069 203.291 224.273 205.097 222.592C206.793 220.798 208.604 219.117 210.519 217.559V217.559Z" fill="#263238"/>
<path d="M211.231 223.956C209.496 226.004 207.646 227.953 205.692 229.793C203.844 231.734 201.886 233.568 199.828 235.286C201.554 233.236 203.401 231.29 205.358 229.459C207.207 227.512 209.168 225.674 211.231 223.956V223.956Z" fill="#2B7E4C"/>
<path d="M211.908 230.398C210.026 232.593 208.029 234.686 205.926 236.669C203.93 238.766 201.818 240.751 199.602 242.614C201.481 240.4 203.477 238.289 205.583 236.29C207.58 234.209 209.691 232.242 211.908 230.398Z" fill="#263238"/>
<path d="M212.724 236.696C212.823 236.786 209.868 239.867 206.146 243.581C202.423 247.295 199.315 250.222 199.225 250.132C201.301 247.726 203.5 245.428 205.811 243.247C209.534 239.533 212.624 236.606 212.724 236.696Z" fill="#2B7E4C"/>
<path d="M213.399 243.129C213.489 243.22 210.317 246.518 206.324 250.502C202.33 254.487 199.014 257.622 198.924 257.532C198.833 257.441 201.996 254.143 205.99 250.168C209.983 246.192 213.299 243.039 213.399 243.129Z" fill="#263238"/>
<path d="M214.195 249.454C214.285 249.545 210.897 253.068 206.632 257.306C202.367 261.544 198.834 264.914 198.744 264.824C198.654 264.733 202.033 261.209 206.307 256.972C210.58 252.734 214.095 249.364 214.195 249.454Z" fill="#2B7E4C"/>
<path d="M214.69 256.068C214.781 256.158 211.185 259.89 206.658 264.39C202.131 268.889 198.39 272.477 198.291 272.386C198.192 272.296 201.797 268.564 206.324 264.065C210.85 259.565 214.6 255.96 214.69 256.068Z" fill="#263238"/>
<path d="M215.567 262.285C215.657 262.375 211.862 266.305 207.092 271.058C202.321 275.811 198.363 279.597 198.273 279.506C198.183 279.416 201.978 275.485 206.757 270.724C211.537 265.962 215.477 262.212 215.567 262.285Z" fill="#2B7E4C"/>
<path d="M216.952 268.031C217.043 268.13 212.796 272.504 207.474 277.807C202.152 283.111 197.752 287.349 197.662 287.258C197.571 287.168 201.809 282.786 207.14 277.473C212.471 272.16 216.862 267.941 216.952 268.031Z" fill="#263238"/>
<path d="M201.101 290.999C201.011 290.909 204.598 287.15 209.125 282.605C213.652 278.06 217.383 274.473 217.483 274.546C217.582 274.618 213.977 278.395 209.459 282.94C204.941 287.484 201.192 291.09 201.101 290.999Z" fill="#2B7E4C"/>
<path d="M205.252 295.156C205.162 295.065 207.963 291.957 211.577 288.207C213.673 285.888 215.887 283.677 218.209 281.584C216.219 284.005 214.108 286.324 211.884 288.533C209.788 290.852 207.574 293.063 205.252 295.156Z" fill="#263238"/>
<path d="M208.132 198.792C207.098 200.144 205.942 201.4 204.68 202.542C203.527 203.798 202.26 204.945 200.895 205.966C201.93 204.613 203.085 203.355 204.346 202.208C205.5 200.955 206.768 199.812 208.132 198.792V198.792Z" fill="#2B7E4C"/>
<path d="M114.344 265.817C113.025 265.7 112.537 263.911 112.953 262.655C113.369 261.399 114.371 260.387 114.76 259.122C115.004 258.408 115.112 257.55 115.736 257.116C116.077 256.898 116.477 256.79 116.881 256.808C117.285 256.825 117.674 256.968 117.995 257.216C121.672 260.36 124.383 263.423 128.395 266.829C132.262 270.1 136.427 274.302 140.511 277.311C142.806 279.009 145.616 280.762 145.932 283.635C146.01 284.809 145.632 285.968 144.879 286.871C144.125 287.774 143.053 288.353 141.884 288.487C139.553 288.65 137.538 286.997 135.795 285.442C128.518 278.949 121.238 272.458 113.956 265.971" fill="#DA4F30"/>
<path d="M144.467 280.581C144.071 280.345 143.697 280.076 143.346 279.777C142.642 279.235 141.603 278.494 140.301 277.573C138.769 276.509 137.306 275.351 135.919 274.103L130.868 269.513C127.254 266.233 124.074 263.251 121.761 261.074L119.05 258.472C118.717 258.171 118.414 257.838 118.146 257.478C118.531 257.746 118.891 258.048 119.222 258.381L122.05 260.866C124.417 262.98 127.661 265.926 131.239 269.197C133.046 270.841 134.709 272.395 136.254 273.823C137.619 275.079 139.055 276.255 140.554 277.347C141.828 278.304 142.84 279.1 143.518 279.678C143.862 279.948 144.18 280.251 144.467 280.581Z" fill="#263238"/>
<path d="M142.066 282.687C141.653 282.502 141.26 282.278 140.891 282.018C140.159 281.566 139.084 280.879 137.828 280.012C135.262 278.277 131.783 275.774 128.097 272.784C124.41 269.793 121.203 266.983 118.953 264.86C117.823 263.802 116.92 262.926 116.323 262.302C115.99 262.002 115.688 261.669 115.42 261.309C115.789 261.583 116.136 261.885 116.459 262.212L119.17 264.652C121.483 266.712 124.708 269.504 128.386 272.458C132.063 275.413 135.506 277.943 138.018 279.741L140.99 281.864C141.371 282.108 141.731 282.383 142.066 282.687V282.687Z" fill="#263238"/>
<g opacity="0.3">
<path d="M125.982 264.751C125.138 265.92 124.171 266.995 123.099 267.959C122.134 269.033 121.056 269.999 119.883 270.841C121.69 268.597 123.735 266.555 125.982 264.751V264.751Z" fill="#2B7E4C"/>
</g>
<g opacity="0.3">
<path d="M140.142 277.437C139.219 278.649 138.175 279.763 137.025 280.762C135.98 281.871 134.826 282.873 133.582 283.753C134.501 282.538 135.546 281.424 136.699 280.428C137.742 279.316 138.895 278.314 140.142 277.437V277.437Z" fill="#2B7E4C"/>
</g>
<g opacity="0.5">
<path d="M194.045 175.047C193.153 176.858 192.123 178.598 190.964 180.251C189.939 181.99 188.779 183.646 187.494 185.203C188.391 183.394 189.42 181.654 190.575 179.998C191.596 178.257 192.757 176.601 194.045 175.047V175.047Z" fill="#2B7E4C"/>
</g>
<g opacity="0.5">
<path d="M220.854 185.537C219.817 183.828 218.911 182.043 218.143 180.197C217.236 178.414 216.472 176.562 215.857 174.658C217.811 178.134 219.484 181.76 220.863 185.501L220.854 185.537Z" fill="#2B7E4C"/>
</g>
<path d="M279.81 268.067C279.562 268.638 279.136 269.114 278.595 269.422C278.054 269.73 277.428 269.854 276.81 269.775C275.491 269.63 274.289 268.871 272.961 268.772C272.211 268.691 271.353 268.772 270.792 268.257C270.548 267.95 270.384 267.587 270.313 267.201C270.242 266.815 270.267 266.417 270.386 266.043C271.226 261.047 273.937 256.574 276.846 252.427C279.756 248.28 282.945 244.295 284.978 239.624C286.117 237.003 287.201 233.877 289.902 232.937C291.035 232.597 292.255 232.708 293.308 233.247C294.36 233.786 295.163 234.711 295.55 235.829C296.227 238.069 295.062 240.401 293.932 242.443L279.81 268.067Z" fill="#DA4F30"/>
<path d="M288.845 237.6C288.74 238.036 288.598 238.462 288.42 238.874C288.122 239.678 287.661 240.834 287.083 242.253C285.917 245.09 284.228 248.984 282.231 253.222C280.234 257.46 278.282 261.236 276.81 263.938C276.087 265.284 275.481 266.369 275.048 267.109C274.844 267.507 274.605 267.885 274.334 268.239C274.484 267.821 274.669 267.416 274.885 267.028L276.521 263.775C277.903 261.065 279.791 257.252 281.788 253.023C283.785 248.795 285.529 244.891 286.767 242.117C287.363 240.78 287.86 239.669 288.24 238.801C288.405 238.383 288.607 237.981 288.845 237.6V237.6Z" fill="#263238"/>
<path d="M287.329 232.594C287.137 233.021 286.908 233.429 286.642 233.814L284.682 237.048C283.028 239.759 280.796 243.572 278.465 247.891C276.134 252.21 274.164 256.113 272.764 258.978L271.119 262.384C270.936 262.81 270.718 263.221 270.469 263.613C270.587 263.165 270.748 262.729 270.948 262.312C271.291 261.48 271.806 260.297 272.466 258.842C273.785 255.933 275.718 251.957 278.049 247.665C280.381 243.373 282.676 239.596 284.374 236.904C285.278 235.558 285.956 234.482 286.462 233.751C286.71 233.336 287.001 232.949 287.329 232.594V232.594Z" fill="#263238"/>
<g opacity="0.5">
<path d="M282.953 261.652C281.247 261.421 279.591 260.905 278.056 260.125C276.452 259.496 274.962 258.608 273.646 257.496C273.719 257.378 275.679 258.562 278.246 259.7C280.812 260.839 282.989 261.525 282.953 261.652Z" fill="#2B7E4C"/>
</g>
<g opacity="0.5">
<path d="M294.045 242.985C292.389 242.19 290.79 241.284 289.256 240.274C287.638 239.39 286.081 238.4 284.594 237.31C286.312 237.997 287.956 238.857 289.5 239.877C291.118 240.754 292.64 241.796 294.045 242.985V242.985Z" fill="#2B7E4C"/>
</g>
<path d="M372.795 151.419L370.988 154.708L367.699 156.515L370.988 158.313L372.795 161.602L374.593 158.313L377.891 156.515L374.593 154.708L372.795 151.419Z" fill="#455A64"/>
<path d="M349.079 60.3507L347.967 62.3747L345.943 63.477L347.967 64.5883L349.079 66.6123L350.19 64.5883L352.205 63.477L350.19 62.3747L349.079 60.3507Z" fill="#455A64"/>
<path d="M202.169 2.89413L201.057 4.92712L199.033 6.02945L201.057 7.13177L202.169 9.16476L203.271 7.13177L205.295 6.02945L203.271 4.92712L202.169 2.89413Z" fill="#455A64"/>
<path d="M139.078 55.0197L138.084 56.8178L136.295 57.8026L138.084 58.7875L139.078 60.5856L140.063 58.7875L141.852 57.8026L140.063 56.8178L139.078 55.0197Z" fill="#455A64"/>
<path d="M258.254 141.697L257.269 143.504L255.471 144.489L257.269 145.474L258.254 147.272L259.248 145.474L261.037 144.489L259.248 143.504L258.254 141.697Z" fill="#455A64"/>
<path d="M84.9353 158.675L83.9504 160.473L82.1523 161.458L83.9504 162.442L84.9353 164.241L85.9201 162.442L87.7182 161.458L85.9201 160.473L84.9353 158.675Z" fill="#455A64"/>
<path d="M44.1504 5.79445C44.1504 5.79445 49.5717 2.92117 55.6435 7.2582C59.3842 9.96884 67.3264 14.089 69.775 11.5681L72.7838 1.85498C68.8314 1.02305 65.1091 -0.66389 61.878 -3.08742C57.0802 -6.88232 47.5206 -6.70161 47.5206 -6.70161L44.1504 5.79445Z" fill="#DA4F30"/>
<g opacity="0.4">
<path d="M61.0973 -1.85856C61.705 -1.51278 62.231 -1.03996 62.6394 -0.472351C63.0478 0.0952579 63.3289 0.744285 63.4635 1.43044C63.5982 2.1166 63.5832 2.82373 63.4197 3.50358C63.2561 4.18342 62.9478 4.81999 62.5158 5.36982C60.8804 7.30341 57.0945 6.79742 55.17 5.15296C54.7105 4.76398 54.3322 4.28824 54.0567 3.75294C53.7812 3.21764 53.6139 2.63328 53.5643 2.03328C53.5148 1.43328 53.5841 0.829405 53.7681 0.256184C53.9521 -0.317036 54.2474 -0.848361 54.6369 -1.3074C56.2723 -3.25907 58.9107 -3.13256 61.0973 -1.85856Z" fill="white"/>
</g>
<path d="M60.9983 0.0750007C60.9983 0.138249 60.7634 0.0749963 60.4652 -0.0424649C60.0718 -0.218368 59.6595 -0.348723 59.2364 -0.430991C58.9797 -0.480504 58.716 -0.480504 58.4593 -0.430991C58.219 -0.38003 58.0046 -0.245574 57.854 -0.0514954C57.7918 0.0487957 57.7531 0.161781 57.7406 0.27909C57.7281 0.3964 57.7421 0.515026 57.7817 0.626165C57.854 0.824946 58.0889 1.00565 58.4684 1.1954C58.6491 1.28575 58.8569 1.37611 59.0738 1.49357C59.3182 1.61569 59.5386 1.78098 59.7243 1.98149C59.8269 2.09347 59.9149 2.21793 59.9863 2.35194C60.06 2.49314 60.1089 2.64596 60.1309 2.80371C60.1861 3.11068 60.1418 3.42724 60.0044 3.70726C59.8897 3.9562 59.7122 4.17105 59.4894 4.33071C59.287 4.47308 59.0556 4.56875 58.8117 4.61081C58.4269 4.67341 58.0326 4.63925 57.6642 4.51142C57.387 4.41797 57.1252 4.284 56.8872 4.11385C56.7138 3.99847 56.5505 3.86848 56.3993 3.72533C56.1553 3.48137 56.0469 3.31873 56.0921 3.25548C56.1372 3.19224 56.3179 3.25549 56.6251 3.36391C57.0174 3.54493 57.43 3.67839 57.854 3.76147C58.1041 3.8152 58.3628 3.8152 58.613 3.76147C58.7187 3.73449 58.8164 3.68272 58.8981 3.61044C58.9798 3.53816 59.0431 3.44746 59.0828 3.34584C59.1139 3.24888 59.1139 3.14462 59.0828 3.04767C59.0879 3.00566 59.0879 2.96318 59.0828 2.92117C59.0523 2.87175 59.0159 2.82624 58.9744 2.78564C58.6787 2.56107 58.3534 2.37861 58.0076 2.24351C57.7672 2.13158 57.5424 1.98883 57.3389 1.81885C57.2275 1.71938 57.1247 1.61056 57.0317 1.49357C56.9384 1.36709 56.8652 1.22688 56.8149 1.07794C56.6963 0.796064 56.6547 0.487721 56.6943 0.184484C56.734 -0.118753 56.8536 -0.405995 57.0408 -0.64784C57.1955 -0.840543 57.387 -1.00051 57.6042 -1.11841C57.8214 -1.23631 58.0599 -1.30978 58.3057 -1.33454C58.6833 -1.37708 59.0656 -1.33699 59.4261 -1.21707C59.9045 -1.05415 60.34 -0.785459 60.7001 -0.430991C60.926 -0.150891 61.0435 0.0207879 60.9983 0.0750007Z" fill="#DA4F30"/>
<path d="M59.1842 -2.02118C59.0653 -0.778069 58.7607 0.440196 58.2806 1.59301C57.9822 2.80058 57.5072 3.95752 56.8711 5.02649C57.0016 3.7854 57.3057 2.56878 57.7746 1.4123C58.0781 0.206365 58.5528 -0.949869 59.1842 -2.02118V-2.02118Z" fill="#DA4F30"/>
<path d="M59.9146 -1.55136C59.8309 -0.422875 59.5654 0.684678 59.1285 1.72851C58.5502 3.53561 57.9629 4.88189 57.8184 4.82768C57.9138 3.70303 58.182 2.59981 58.6135 1.55684C58.8798 0.458408 59.319 -0.590739 59.9146 -1.55136V-1.55136Z" fill="#DA4F30"/>
<g opacity="0.5">
<path d="M71.5608 2.47848L68.7869 11.2971H68.6965C64.3505 12.2006 58.8388 8.40575 55.1976 5.87582C54.5651 5.44211 53.9687 5.03551 53.4537 4.7012C52.2799 3.99697 50.9474 3.60042 49.5796 3.54829C48.2118 3.49617 46.8529 3.79016 45.629 4.40303L45.3398 4.28557L48.177 -5.28299H48.2764C50.8838 -5.63312 53.5355 -5.4372 56.0632 -4.70768C58.5908 -3.97816 60.9392 -2.73099 62.959 -1.04536C65.6697 1.33097 71.3259 2.39715 71.3801 2.40619L71.5608 2.47848ZM68.5339 11.017L71.1452 2.72244C70.1332 2.52366 65.2902 1.45747 62.7512 -0.765257C60.7807 -2.41058 58.4913 -3.63073 56.0268 -4.34909C53.5623 -5.06746 50.9759 -5.26852 48.43 -4.93965L45.7735 3.99644C46.0481 3.86687 46.332 3.75813 46.6229 3.67116C47.7826 3.31345 49.0041 3.20101 50.2097 3.34101C51.4152 3.48101 52.5785 3.87038 53.6254 4.48435L55.3783 5.65897C58.9473 8.10758 64.3414 11.7941 68.5339 11.017Z" fill="white"/>
</g>
<path d="M383.909 83.9695C383.909 83.9695 383.846 94.5049 372.47 100.125C365.423 103.604 352.773 112.296 354.643 117.961L366.859 130.294C366.859 130.294 373.338 122.09 383.069 117.825C392.638 113.642 399.993 99.0587 399.993 99.0587L383.909 83.9695Z" fill="#DA4F30"/>
<g opacity="0.4">
<path d="M381.831 115.666C380.826 116.301 379.697 116.712 378.52 116.873C377.342 117.034 376.144 116.939 375.006 116.597C373.869 116.254 372.818 115.671 371.925 114.887C371.032 114.103 370.318 113.136 369.832 112.052C368.232 108.031 372.027 102.754 376.039 101.155C377.964 100.388 380.114 100.414 382.019 101.229C383.924 102.043 385.429 103.58 386.204 105.501C387.812 109.513 385.508 113.389 381.831 115.666Z" fill="white"/>
</g>
<path d="M378.977 113.967C378.923 113.841 379.158 113.606 379.583 113.253C380.166 112.803 380.696 112.287 381.164 111.717C381.433 111.357 381.632 110.949 381.751 110.516C381.869 110.114 381.833 109.682 381.652 109.305C381.554 109.128 381.415 108.977 381.247 108.864C381.079 108.75 380.886 108.679 380.685 108.654C380.168 108.671 379.674 108.873 379.294 109.224C379.005 109.431 378.706 109.675 378.39 109.901C378.006 110.166 377.582 110.367 377.134 110.498C376.881 110.564 376.619 110.594 376.357 110.588C376.085 110.59 375.816 110.541 375.562 110.443C375.078 110.269 374.656 109.954 374.351 109.54C374.089 109.182 373.916 108.766 373.846 108.328C373.777 107.889 373.814 107.44 373.954 107.019C374.168 106.389 374.534 105.821 375.02 105.365C375.388 105.024 375.801 104.735 376.249 104.507C376.564 104.339 376.893 104.2 377.234 104.091C377.785 103.911 378.137 103.884 378.137 103.992C378.137 104.1 377.975 104.362 377.55 104.724C376.966 105.173 376.432 105.685 375.96 106.251C375.694 106.598 375.506 106.999 375.408 107.426C375.363 107.608 375.364 107.799 375.41 107.982C375.455 108.165 375.545 108.333 375.67 108.474C375.783 108.602 375.931 108.696 376.095 108.745C376.173 108.759 376.252 108.759 376.33 108.745C376.425 108.742 376.519 108.727 376.61 108.7C377.191 108.436 377.733 108.093 378.218 107.679C378.578 107.406 378.969 107.178 379.384 107.001C379.624 106.913 379.872 106.85 380.125 106.811C380.391 106.766 380.663 106.766 380.929 106.811C381.418 106.883 381.88 107.076 382.275 107.373C382.669 107.67 382.983 108.06 383.188 108.51C383.351 108.899 383.436 109.317 383.436 109.739C383.436 110.161 383.351 110.578 383.188 110.967C382.949 111.572 382.582 112.117 382.113 112.567C381.48 113.152 380.728 113.593 379.908 113.859C379.393 114.103 379.05 114.103 378.977 113.967Z" fill="#DA4F30"/>
<path d="M383.612 112.91C383.432 113.091 381.326 111.193 378.914 108.672C376.501 106.152 374.685 103.974 374.866 103.793C375.047 103.613 377.161 105.51 379.582 108.031C382.004 110.552 383.802 112.729 383.612 112.91Z" fill="#DA4F30"/>
<path d="M382.374 113.66C382.194 113.841 380.26 112.133 378.073 109.847C375.887 107.561 374.251 105.564 374.459 105.384C374.667 105.203 376.574 106.92 378.76 109.206C380.947 111.492 382.591 113.488 382.374 113.66Z" fill="#DA4F30"/>
<g opacity="0.5">
<path d="M366.904 127.954L355.836 116.696L355.89 116.542C358.041 109.314 368.151 104.01 374.865 100.513C376.012 99.917 377.105 99.3478 378.027 98.8328C384.198 95.3993 385.021 87.8727 384.749 87.2854L385.174 86.933L397.309 98.887L397.255 99.0496C395.695 103.264 393.275 107.106 390.148 110.333C387.021 113.559 383.256 116.099 379.093 117.789C373.329 119.994 367.194 127.638 367.13 127.728L366.904 127.954ZM356.459 116.542L366.868 127.123C367.98 125.768 373.482 119.325 378.867 117.274C382.929 115.624 386.606 113.152 389.666 110.012C392.726 106.873 395.103 103.134 396.649 99.0316L385.301 87.8998C385.271 88.413 385.205 88.9233 385.102 89.4268C384.777 91.0442 383.295 96.5197 378.253 99.3659C377.349 99.8809 376.238 100.459 375.081 101.055C368.531 104.435 358.655 109.585 356.459 116.542Z" fill="white"/>
</g>
<path d="M389.692 -4.61432C389.692 -4.61432 382.997 -3.1325 377.784 -9.53866C374.567 -13.5143 367.257 -20.2818 363.896 -18.285L357.824 -8.77968C361.82 -6.72893 365.32 -3.83029 368.079 -0.286331C372.118 5.13495 382.428 7.74621 382.428 7.74621L389.692 -4.61432Z" fill="#DA4F30"/>
<g opacity="0.4">
<path d="M369.272 -1.36158C368.73 -1.91088 368.311 -2.56963 368.044 -3.29378C367.777 -4.01793 367.667 -4.79077 367.723 -5.56062C367.779 -6.33046 367.998 -7.07956 368.366 -7.75781C368.735 -8.43606 369.244 -9.02782 369.859 -9.4935C372.182 -11.0928 376.076 -9.43929 377.675 -7.1262C378.44 -6.0104 378.73 -4.63673 378.483 -3.30685C378.236 -1.97697 377.471 -0.799622 376.356 -0.0333593C374.043 1.54785 371.251 0.6443 369.272 -1.36158Z" fill="white"/>
</g>
<g opacity="0.5">
<path d="M359.316 -9.05974L364.873 -17.7157H364.973C369.888 -17.3905 374.695 -11.7342 377.884 -7.99356C378.426 -7.35204 378.951 -6.74666 379.402 -6.18646C380.455 -5.0888 381.769 -4.2748 383.22 -3.81991C384.672 -3.36501 386.215 -3.28395 387.706 -3.58425L387.986 -3.3674L382.149 6.06564H382.041C379.14 5.68329 376.351 4.69988 373.853 3.17827C371.354 1.65667 369.201 -0.369635 367.53 -2.77105C365.298 -6.10514 359.56 -8.89711 359.497 -8.92422L359.316 -9.05974ZM365.054 -17.3362L359.84 -9.20431C360.861 -8.69833 365.741 -6.13225 367.828 -3.01501C369.455 -0.666616 371.552 1.31847 373.986 2.81466C376.42 4.31084 379.138 5.28555 381.968 5.67712L387.39 -3.12343C387.058 -3.06822 386.723 -3.03801 386.387 -3.03308C385.039 -2.98479 383.695 -3.21864 382.443 -3.71965C381.19 -4.22066 380.056 -4.97778 379.113 -5.94251C378.652 -6.45753 378.128 -7.07194 377.577 -7.7496C374.46 -11.418 369.779 -16.9116 365.054 -17.3362V-17.3362Z" fill="white"/>
</g>
<path d="M307.686 2.32492C307.686 2.32492 299.292 8.64975 287.908 3.10197C280.86 -0.36765 266.304 -5.11128 262.898 -0.168872L260.566 16.9985C260.566 16.9985 271.02 17.1341 280.327 22.2572C289.48 27.2899 305.518 24.2359 305.518 24.2359L307.686 2.32492Z" fill="#DA4F30"/>
<g opacity="0.4">
<path d="M281.292 19.9892C280.174 19.5788 279.157 18.9321 278.312 18.0933C277.466 17.2544 276.811 16.2431 276.392 15.1283C275.972 14.0135 275.798 12.8214 275.882 11.6332C275.965 10.445 276.303 9.28872 276.873 8.24312C279.078 4.52954 285.584 4.32173 289.297 6.52639C291.079 7.59135 292.365 9.31998 292.873 11.3326C293.382 13.3452 293.07 15.4773 292.008 17.2605C289.812 20.9831 285.331 21.5253 281.292 19.9892Z" fill="white"/>
</g>
<path d="M280.913 16.7094C280.967 16.5919 281.302 16.6281 281.817 16.7546C282.528 16.9434 283.259 17.0466 283.994 17.0618C284.444 17.063 284.89 16.9739 285.304 16.7998C285.696 16.6509 286.019 16.3609 286.208 15.9866C286.286 15.7998 286.32 15.5975 286.308 15.3953C286.295 15.1932 286.236 14.9967 286.136 14.821C285.801 14.4246 285.337 14.1591 284.825 14.071C284.491 13.9717 284.121 13.8723 283.723 13.7367C283.281 13.5898 282.864 13.3766 282.485 13.1042C282.28 12.9406 282.094 12.7525 281.934 12.544C281.77 12.326 281.645 12.0816 281.564 11.8212C281.42 11.3316 281.42 10.8109 281.564 10.3213C281.692 9.87162 281.931 9.46144 282.259 9.12863C282.559 8.83617 282.92 8.61397 283.317 8.47808C283.946 8.25969 284.62 8.20374 285.277 8.31544C285.772 8.39381 286.253 8.54292 286.705 8.75818C287.02 8.90766 287.322 9.08294 287.608 9.28224C288.087 9.61655 288.313 9.86051 288.259 9.97797C288.205 10.0954 287.87 10.0683 287.355 9.97797C286.644 9.7885 285.914 9.67939 285.178 9.65269C284.742 9.65112 284.31 9.74357 283.913 9.92375C283.741 10.0008 283.591 10.1183 283.474 10.2662C283.358 10.4141 283.279 10.5881 283.244 10.7731C283.194 10.9349 283.194 11.1083 283.244 11.27C283.271 11.3456 283.311 11.416 283.362 11.4779C283.428 11.5477 283.501 11.6112 283.579 11.6676C284.146 11.9718 284.755 12.191 285.386 12.3182C285.818 12.438 286.234 12.6109 286.624 12.8332C286.844 12.9686 287.05 13.126 287.238 13.303C287.428 13.4909 287.593 13.7036 287.726 13.9355C287.959 14.3719 288.081 14.8592 288.081 15.3541C288.081 15.849 287.959 16.3362 287.726 16.7726C287.521 17.1406 287.244 17.4636 286.912 17.7228C286.58 17.982 286.199 18.172 285.792 18.2816C285.169 18.4683 284.511 18.5115 283.868 18.4081C283.017 18.2644 282.209 17.9343 281.5 17.4413C281.067 17.0799 280.85 16.8178 280.913 16.7094Z" fill="#DA4F30"/>
<path d="M284.556 19.7273C284.303 19.7273 284.556 16.863 285.053 13.4024C285.55 9.94184 286.201 7.18602 286.454 7.2312C286.707 7.27638 286.454 10.0954 285.966 13.556C285.478 17.0166 284.818 19.7634 284.556 19.7273Z" fill="#DA4F30"/>
<path d="M283.2 19.2303C282.948 19.2303 283.128 16.619 283.598 13.4927C284.068 10.3665 284.673 7.85459 284.926 7.89074C285.179 7.92688 284.999 10.502 284.52 13.6283C284.041 16.7545 283.463 19.2303 283.2 19.2303Z" fill="#DA4F30"/>
<g opacity="0.5">
<path d="M262.42 15.6161L264.607 -0.0152306L264.76 -0.0784786C271.826 -2.78912 282.162 2.00872 289.011 5.18017C290.195 5.73133 291.306 6.24635 292.273 6.66198C298.752 9.46298 305.23 5.53255 305.528 4.96332L306.061 5.08078L303.983 22.0223L303.82 22.0765C299.529 23.4072 295.007 23.8286 290.544 23.3136C286.08 22.7987 281.773 21.3587 277.898 19.0858C272.63 15.8601 262.836 15.6523 262.736 15.6523L262.42 15.6161ZM265.131 0.382332L263.07 15.0831C264.832 15.1373 273.29 15.571 278.196 18.5888C281.978 20.8056 286.179 22.2157 290.533 22.7304C294.887 23.2451 299.3 22.8532 303.495 21.5796L305.438 5.78555C305.012 6.07815 304.565 6.33792 304.101 6.5626C302.628 7.28544 297.405 9.48106 292.074 7.17701C291.099 6.75235 289.978 6.27346 288.794 5.68616C282.099 2.60506 271.979 -2.08435 265.131 0.409438V0.382332Z" fill="white"/>
</g>
<path d="M298.958 119.452C298.958 119.452 290.609 117.645 288.052 107.706C286.471 101.534 281.727 90.0685 276.884 90.5383L265.057 98.1642C268.507 102.568 270.955 107.671 272.231 113.118C273.957 121.403 284.293 129.68 284.293 129.68L298.958 119.452Z" fill="#DA4F30"/>
<g opacity="0.4">
<path d="M274.166 112.494C273.831 111.59 273.695 110.623 273.767 109.661C273.838 108.699 274.116 107.763 274.582 106.918C275.047 106.073 275.689 105.338 276.464 104.763C277.239 104.188 278.129 103.786 279.072 103.586C282.524 102.989 286.084 106.883 286.68 110.335C286.825 111.157 286.806 112 286.624 112.814C286.442 113.629 286.101 114.4 285.619 115.082C285.138 115.764 284.527 116.344 283.82 116.788C283.114 117.233 282.326 117.533 281.503 117.672C278.033 118.268 275.35 115.792 274.166 112.494Z" fill="white"/>
</g>
<path d="M275.972 110.534C276.071 110.534 276.225 110.733 276.433 111.13C276.695 111.667 277.016 112.173 277.391 112.639C277.628 112.915 277.916 113.142 278.24 113.308C278.542 113.468 278.893 113.51 279.225 113.425C279.381 113.378 279.524 113.294 279.641 113.181C279.759 113.068 279.848 112.929 279.902 112.775C279.969 112.36 279.889 111.935 279.677 111.573C279.559 111.311 279.424 111.031 279.297 110.715C279.154 110.366 279.066 109.997 279.035 109.621C279.026 109.409 279.044 109.196 279.089 108.989C279.162 108.68 279.303 108.392 279.504 108.146C279.704 107.9 279.958 107.703 280.246 107.57C280.594 107.412 280.976 107.344 281.357 107.371C281.695 107.405 282.021 107.51 282.315 107.679C282.778 107.953 283.166 108.338 283.444 108.799C283.653 109.146 283.814 109.52 283.923 109.91C284.002 110.188 284.057 110.472 284.086 110.76C284.14 111.239 284.086 111.501 284.005 111.528C283.923 111.555 283.742 111.338 283.526 110.94C283.268 110.4 282.95 109.891 282.577 109.422C282.35 109.152 282.066 108.936 281.746 108.79C281.607 108.716 281.451 108.677 281.294 108.677C281.136 108.677 280.981 108.716 280.842 108.79C280.722 108.863 280.623 108.966 280.553 109.088C280.524 109.145 280.506 109.206 280.499 109.269C280.485 109.347 280.485 109.426 280.499 109.504C280.609 110.006 280.792 110.49 281.041 110.94C281.198 111.274 281.31 111.626 281.375 111.989C281.398 112.193 281.398 112.399 281.375 112.603C281.362 112.822 281.317 113.039 281.24 113.244C281.097 113.62 280.865 113.954 280.562 114.217C280.259 114.48 279.896 114.665 279.505 114.753C279.171 114.821 278.827 114.82 278.493 114.752C278.159 114.684 277.843 114.549 277.562 114.356C277.119 114.068 276.746 113.685 276.469 113.235C276.108 112.639 275.886 111.969 275.818 111.275C275.836 110.823 275.882 110.552 275.972 110.534Z" fill="#DA4F30"/>
<path d="M276.044 114.374C275.927 114.193 277.788 112.838 280.192 111.347C282.595 109.856 284.628 108.781 284.709 108.953C284.791 109.124 282.966 110.489 280.562 111.988C278.159 113.488 276.153 114.546 276.044 114.374Z" fill="#DA4F30"/>
<path d="M275.656 113.262C275.539 113.082 277.219 111.844 279.397 110.489C281.574 109.133 283.436 108.175 283.553 108.347C283.671 108.519 281.981 109.775 279.803 111.121C277.626 112.467 275.765 113.434 275.656 113.262Z" fill="#DA4F30"/>
<g opacity="0.5">
<path d="M266.936 98.5979L277.724 91.7038L277.841 91.767C283.263 94.6855 285.729 103.585 287.383 109.477C287.663 110.498 287.934 111.455 288.187 112.269C289.877 117.744 295.714 119.66 296.229 119.542L296.427 119.931L284.916 127.566L284.799 127.493C281.716 125.552 279.071 122.988 277.035 119.967C274.998 116.946 273.614 113.533 272.971 109.946C272.185 105.004 267.152 98.8509 267.098 98.7876L266.936 98.5979ZM277.778 92.2188L267.568 98.7424C268.472 99.8538 272.646 105.293 273.378 109.91C274.003 113.411 275.347 116.744 277.325 119.698C279.303 122.653 281.873 125.166 284.871 127.078L295.623 119.958C295.22 119.844 294.825 119.706 294.44 119.542C293.22 119.009 289.109 116.949 287.726 112.449C287.473 111.627 287.202 110.642 286.913 109.648C285.296 103.829 282.847 95.1282 277.706 92.2188H277.778Z" fill="white"/>
</g>
<path d="M219.762 53.7911C219.762 53.7911 213.121 55.047 208.179 48.5686C205.125 44.5658 198.122 37.6718 194.752 39.5331L188.49 48.7402C192.364 50.882 195.725 53.842 198.339 57.4143C202.152 62.9259 212.235 65.7631 212.235 65.7631L219.762 53.7911Z" fill="#DA4F30"/>
<g opacity="0.4">
<path d="M199.54 56.3842C199.017 55.8275 198.619 55.1648 198.375 54.441C198.13 53.7173 198.044 52.9493 198.122 52.1893C198.2 51.4292 198.44 50.6949 198.827 50.0359C199.213 49.3769 199.737 48.8087 200.362 48.3698C202.693 46.8699 206.488 48.6137 207.997 50.9449C208.717 52.0653 208.962 53.4256 208.679 54.7268C208.396 56.028 207.608 57.1636 206.488 57.8841C204.148 59.393 201.429 58.4172 199.54 56.3842Z" fill="white"/>
</g>
<path d="M200.263 54.3874C200.336 54.3331 200.516 54.4506 200.787 54.6765C201.142 54.9907 201.533 55.2607 201.953 55.4806C202.21 55.6073 202.489 55.6839 202.775 55.7065C203.044 55.7335 203.312 55.6558 203.525 55.4897C203.626 55.4075 203.706 55.3022 203.758 55.1827C203.81 55.0632 203.832 54.933 203.823 54.803C203.741 54.4827 203.553 54.1994 203.29 53.9988C203.119 53.8452 202.938 53.6826 202.748 53.4928C202.533 53.2818 202.353 53.0378 202.215 52.77C202.144 52.6176 202.092 52.4566 202.061 52.2911C202.034 52.1205 202.034 51.9467 202.061 51.7761C202.113 51.4664 202.247 51.1765 202.451 50.9377C202.655 50.6988 202.92 50.5201 203.218 50.4208C203.474 50.3377 203.746 50.313 204.013 50.3485C204.437 50.402 204.841 50.5603 205.188 50.8093C205.446 50.9993 205.678 51.2244 205.874 51.4779C206.021 51.6554 206.151 51.846 206.263 52.0472C206.444 52.3725 206.498 52.5803 206.435 52.6254C206.371 52.6706 206.191 52.5712 205.911 52.3453C205.551 52.0349 205.16 51.7624 204.745 51.5321C204.493 51.4124 204.22 51.3447 203.941 51.3334C203.821 51.3252 203.701 51.3474 203.592 51.398C203.483 51.4485 203.389 51.5257 203.317 51.6225C203.247 51.7103 203.206 51.8176 203.2 51.9297C203.191 51.9775 203.191 52.0265 203.2 52.0743C203.215 52.135 203.239 52.193 203.272 52.2459C203.504 52.5889 203.787 52.8938 204.112 53.1495C204.326 53.3451 204.514 53.5667 204.673 53.8091C204.765 53.9461 204.838 54.095 204.89 54.2518C204.949 54.4112 204.982 54.5789 204.989 54.7488C205.004 55.0661 204.939 55.3822 204.8 55.6679C204.661 55.9537 204.453 56.2 204.194 56.3842C203.971 56.539 203.719 56.6469 203.454 56.7013C203.188 56.7557 202.914 56.7554 202.649 56.7004C202.237 56.6306 201.848 56.4667 201.51 56.2216C201.064 55.8956 200.694 55.4763 200.426 54.9927C200.245 54.6404 200.2 54.4687 200.263 54.3874Z" fill="#DA4F30"/>
<path d="M201.501 57.1792C201.366 57.0889 202.297 55.5257 203.589 53.7006C204.881 51.8754 206.028 50.4568 206.164 50.5472C206.299 50.6375 205.36 52.2097 204.076 54.0349C202.793 55.86 201.628 57.2605 201.501 57.1792Z" fill="#DA4F30"/>
<path d="M200.868 56.4745C200.732 56.3841 201.573 54.9565 202.747 53.294C203.922 51.6314 204.97 50.3665 205.105 50.4568C205.241 50.5472 204.401 51.9748 203.235 53.6373C202.07 55.2998 200.976 56.5738 200.868 56.4745Z" fill="#DA4F30"/>
<g opacity="0.5">
<path d="M189.965 48.4962L195.693 40.1384H195.802C200.636 40.5992 205.199 46.3187 208.226 50.0775C208.75 50.728 209.238 51.3515 209.671 51.8845C210.679 53.0015 211.954 53.8449 213.375 54.3363C214.797 54.8276 216.321 54.9509 217.803 54.6946L218.074 54.9205L212.039 64.0373H211.93C209.084 63.5758 206.366 62.5249 203.949 60.9519C201.533 59.3788 199.472 57.3183 197.898 54.9024C195.802 51.5502 190.227 48.6227 190.173 48.5776L189.965 48.4962ZM195.865 40.5089L190.444 48.3607C191.438 48.9028 196.172 51.5683 198.133 54.6855C199.672 57.0456 201.682 59.0618 204.038 60.6074C206.394 62.153 209.044 63.1946 211.822 63.6668L217.46 55.1464C217.133 55.1915 216.804 55.2127 216.475 55.2096C215.143 55.2178 213.823 54.9471 212.602 54.4149C211.38 53.8827 210.283 53.1008 209.382 52.1195C208.948 51.6044 208.479 50.981 207.927 50.3124C204.982 46.6259 200.518 41.0329 195.865 40.5089V40.5089Z" fill="white"/>
</g>
<path d="M53.1839 176.529C53.1839 176.529 46.5428 177.785 41.6004 171.306C38.5464 167.304 31.5439 160.41 28.1737 162.271L21.9121 171.478C25.786 173.62 29.1468 176.58 31.7608 180.152C35.5737 185.664 45.6573 188.501 45.6573 188.501L53.1839 176.529Z" fill="#DA4F30"/>
<g opacity="0.4">
<path d="M32.9745 179.158C32.4498 178.602 32.0512 177.94 31.8055 177.216C31.5599 176.492 31.4732 175.723 31.5512 174.963C31.6292 174.202 31.8702 173.467 32.2577 172.808C32.6452 172.149 33.1701 171.582 33.7967 171.144C36.1279 169.644 39.9228 171.388 41.4227 173.719C42.1422 174.839 42.3874 176.2 42.1045 177.501C41.8215 178.802 41.0336 179.938 39.9137 180.658C37.5826 182.131 34.8539 181.155 32.9745 179.158Z" fill="white"/>
</g>
<path d="M33.694 177.125C33.7572 177.071 33.9379 177.188 34.209 177.414C34.5636 177.729 34.955 177.999 35.3746 178.218C35.6347 178.346 35.9169 178.423 36.2058 178.444C36.4742 178.469 36.7418 178.391 36.9558 178.228C37.0541 178.143 37.1314 178.038 37.1816 177.918C37.2318 177.799 37.2535 177.67 37.2449 177.541C37.1666 177.219 36.978 176.934 36.7118 176.737C36.5492 176.583 36.3595 176.42 36.1697 176.231C35.9543 176.031 35.7713 175.8 35.6276 175.544C35.5523 175.393 35.5005 175.232 35.474 175.065C35.4423 174.895 35.4423 174.72 35.474 174.55C35.514 174.214 35.6559 173.899 35.8806 173.647C36.0822 173.419 36.3412 173.251 36.6305 173.159C36.8834 173.074 37.1525 173.049 37.4166 173.086C37.8404 173.14 38.2441 173.298 38.5912 173.547C38.8546 173.735 39.089 173.96 39.2869 174.216C39.4312 174.393 39.5582 174.584 39.6664 174.785C39.8471 175.11 39.9104 175.318 39.8471 175.372C39.7839 175.427 39.5942 175.309 39.3141 175.083C38.9579 174.773 38.5703 174.5 38.1575 174.27C37.9049 174.152 37.6318 174.085 37.3534 174.071C37.2325 174.065 37.1121 174.089 37.0021 174.139C36.892 174.189 36.7956 174.265 36.7209 174.36C36.6549 174.45 36.6144 174.556 36.6034 174.668C36.5944 174.715 36.5944 174.764 36.6034 174.812C36.6181 174.873 36.6425 174.931 36.6757 174.984C36.9072 175.327 37.1907 175.632 37.516 175.887C37.7326 176.083 37.9238 176.304 38.0852 176.547C38.17 176.688 38.2426 176.836 38.3021 176.99C38.3582 177.15 38.3887 177.317 38.3924 177.487C38.4148 177.808 38.3552 178.13 38.2194 178.423C38.0835 178.715 37.8757 178.968 37.6154 179.158C37.1651 179.462 36.613 179.576 36.0794 179.474C35.6673 179.402 35.2776 179.235 34.9409 178.986C34.4716 178.657 34.0876 178.22 33.8205 177.712C33.6759 177.351 33.6217 177.17 33.694 177.125Z" fill="#DA4F30"/>
<path d="M34.9233 179.899C34.7877 179.809 35.7184 178.246 37.0105 176.42C38.3025 174.595 39.45 173.177 39.5856 173.267C39.7211 173.357 38.7904 174.93 37.4984 176.755C36.2063 178.58 35.0588 179.999 34.9233 179.899Z" fill="#DA4F30"/>
<path d="M34.2996 179.212C34.1641 179.122 34.9954 177.695 36.17 176.032C37.3446 174.369 38.4017 173.105 38.5282 173.195C38.6547 173.285 37.8325 174.713 36.6579 176.375C35.4833 178.038 34.4261 179.312 34.2996 179.212Z" fill="#DA4F30"/>
<g opacity="0.5">
<path d="M23.3848 171.234L29.1223 162.894H29.2217C34.0557 163.355 38.6276 169.074 41.6455 172.833C42.1695 173.493 42.6574 174.107 43.1002 174.64C44.1071 175.759 45.3813 176.603 46.8036 177.095C48.2259 177.586 49.7496 177.708 51.2321 177.45L51.5032 177.676L45.4765 186.793H45.359C42.5042 186.333 39.7775 185.28 37.3544 183.702C34.9313 182.124 32.8658 180.056 31.2908 177.631C29.1946 174.279 23.6197 171.351 23.5655 171.306L23.3848 171.234ZM29.303 163.247L23.8817 171.098C24.8756 171.641 29.6012 174.306 31.5619 177.423C33.103 179.783 35.1168 181.799 37.476 183.341C39.8352 184.884 42.4886 185.921 45.2687 186.386L50.8978 177.866C50.5715 177.911 50.2423 177.933 49.9129 177.929C48.5878 177.936 47.2758 177.666 46.0607 177.137C44.8457 176.608 43.7543 175.832 42.8562 174.857C42.4135 174.342 41.9527 173.719 41.4015 173.05C38.4108 169.364 33.9382 163.798 29.303 163.247Z" fill="white"/>
</g>
<path d="M150.57 91.3695C150.57 91.3695 148.103 99.4111 138.11 101.101C131.92 102.14 120.265 105.853 120.364 110.651L126.869 122.894C131.479 119.869 136.693 117.886 142.148 117.084C150.434 116.082 159.406 106.612 159.406 106.612L150.57 91.3695Z" fill="#DA4F30"/>
<g opacity="0.4">
<path d="M141.696 115.142C140.78 115.397 139.82 115.452 138.881 115.303C137.943 115.154 137.047 114.804 136.255 114.278C135.464 113.751 134.795 113.06 134.295 112.252C133.795 111.444 133.474 110.537 133.356 109.594C133.049 106.152 137.169 102.98 140.584 102.682C142.238 102.539 143.88 103.058 145.151 104.126C146.421 105.193 147.216 106.721 147.361 108.374C147.668 111.817 145.03 114.247 141.696 115.142Z" fill="white"/>
</g>
<path d="M139.914 113.199C139.914 113.091 140.131 112.964 140.547 112.793C141.095 112.584 141.617 112.311 142.101 111.979C142.393 111.77 142.639 111.502 142.824 111.193C143.014 110.916 143.088 110.576 143.032 110.245C142.995 110.088 142.924 109.943 142.822 109.819C142.72 109.695 142.591 109.596 142.444 109.531C142.043 109.425 141.616 109.467 141.243 109.648C140.981 109.739 140.691 109.856 140.339 109.946C139.987 110.064 139.617 110.12 139.246 110.109C139.037 110.103 138.831 110.07 138.631 110.01C138.422 109.946 138.226 109.845 138.053 109.712C137.725 109.471 137.476 109.137 137.339 108.754C137.205 108.403 137.168 108.022 137.231 107.651C137.29 107.326 137.42 107.018 137.61 106.748C137.917 106.314 138.327 105.963 138.803 105.727C139.164 105.55 139.547 105.423 139.942 105.347C140.222 105.295 140.506 105.265 140.791 105.257C141.252 105.257 141.514 105.302 141.532 105.402C141.55 105.501 141.324 105.646 140.917 105.826C140.364 106.033 139.836 106.303 139.345 106.63C139.062 106.832 138.827 107.094 138.658 107.398C138.58 107.527 138.535 107.672 138.527 107.822C138.519 107.972 138.549 108.121 138.613 108.257C138.668 108.383 138.759 108.49 138.875 108.564C138.928 108.597 138.986 108.622 139.047 108.636C139.125 108.647 139.204 108.647 139.282 108.636C139.784 108.568 140.274 108.428 140.737 108.221C141.078 108.096 141.433 108.014 141.794 107.977C141.995 107.954 142.198 107.954 142.399 107.977C142.613 108.007 142.82 108.071 143.014 108.166C143.37 108.333 143.679 108.586 143.914 108.901C144.148 109.216 144.302 109.585 144.36 109.974C144.397 110.308 144.367 110.646 144.273 110.969C144.178 111.291 144.02 111.592 143.809 111.853C143.491 112.266 143.083 112.599 142.616 112.829C142.001 113.137 141.325 113.301 140.637 113.308C140.195 113.362 139.932 113.29 139.914 113.199Z" fill="#DA4F30"/>
<path d="M143.691 113.443C143.51 113.543 142.336 111.636 141.062 109.124C139.788 106.612 138.911 104.552 139.092 104.462C139.273 104.372 140.456 106.269 141.721 108.781C142.986 111.293 143.872 113.353 143.691 113.443Z" fill="#DA4F30"/>
<path d="M142.571 113.732C142.39 113.832 141.306 112.079 140.159 109.829C139.011 107.579 138.216 105.673 138.397 105.582C138.577 105.492 139.662 107.236 140.818 109.486C141.975 111.735 142.752 113.642 142.571 113.732Z" fill="#DA4F30"/>
<g opacity="0.5">
<path d="M127.448 121.123L121.566 109.955L121.639 109.847C124.955 104.796 133.909 103.079 139.827 101.941C140.848 101.742 141.806 101.561 142.628 101.381C148.14 100.17 150.507 94.6042 150.435 94.0892L150.841 93.9175L157.383 105.853L157.302 105.971C155.138 108.838 152.401 111.222 149.265 112.972C146.129 114.722 142.662 115.8 139.086 116.136C134.171 116.488 127.72 120.934 127.656 120.979L127.448 121.123ZM122.081 109.983L127.611 120.473C128.777 119.696 134.46 116.027 139.059 115.693C142.546 115.364 145.927 114.318 148.99 112.62C152.054 110.922 154.733 108.609 156.859 105.826L150.751 94.6765C150.609 95.0642 150.44 95.4416 150.245 95.8059C149.631 96.9624 147.263 100.821 142.727 101.814C141.896 101.995 140.92 102.176 139.908 102.375C134.117 103.495 125.352 105.167 122.081 109.983Z" fill="white"/>
</g>
<path d="M96.3829 68.6002C96.3829 68.6002 88.1154 75.1238 76.6223 69.7386C69.5114 66.4045 54.8739 61.932 51.5579 66.9286L49.543 84.1683C49.543 84.1683 59.997 84.1141 69.421 89.0655C78.6553 93.9266 94.639 90.5835 94.639 90.5835L96.3829 68.6002Z" fill="#DA4F30"/>
<g opacity="0.4">
<path d="M70.3163 86.7524C69.1926 86.3614 68.1661 85.7331 67.3067 84.9103C66.4472 84.0875 65.7748 83.0894 65.3351 81.9838C64.8955 80.8782 64.6988 79.6909 64.7585 78.5026C64.8182 77.3142 65.1328 76.1527 65.6811 75.0967C67.8316 71.3379 74.3281 71.0126 78.0778 73.154C78.9711 73.6633 79.7552 74.3436 80.3854 75.1561C81.0156 75.9686 81.4795 76.8973 81.7505 77.8892C82.0215 78.881 82.0944 79.9166 81.965 80.9366C81.8356 81.9567 81.5064 82.9412 80.9962 83.834C78.8548 87.5837 74.3913 88.2072 70.3163 86.7524Z" fill="white"/>
</g>
<path d="M69.8812 83.4725C69.9354 83.3551 70.2698 83.3912 70.7848 83.4725C71.5001 83.6507 72.2342 83.7417 72.9714 83.7436C73.42 83.7353 73.8625 83.637 74.2725 83.4545C74.6682 83.302 74.9912 83.0049 75.176 82.6232C75.2514 82.4366 75.2826 82.235 75.2669 82.0343C75.2512 81.8336 75.1892 81.6393 75.0857 81.4667C74.7452 81.0758 74.2783 80.8168 73.7665 80.7348C73.4231 80.6354 73.0527 80.5541 72.6551 80.4185C72.2101 80.2839 71.7893 80.0796 71.4082 79.8132C71.1998 79.6529 71.0117 79.4678 70.848 79.262C70.6834 79.045 70.5524 78.8043 70.4595 78.5482C70.3006 78.0633 70.2818 77.5434 70.4053 77.0483C70.5193 76.6201 70.7348 76.2257 71.0337 75.8985C71.3325 75.5714 71.7059 75.3211 72.122 75.1689C72.7489 74.9407 73.4228 74.8724 74.0827 74.9702C74.5789 75.0445 75.0624 75.1875 75.5194 75.3948C75.8324 75.5414 76.1343 75.7106 76.4229 75.9008C76.9108 76.2261 77.1367 76.47 77.0825 76.5785C77.0283 76.6869 76.703 76.6779 76.179 76.5785C75.4624 76.4063 74.7292 76.3123 73.9924 76.2984C73.557 76.3049 73.1283 76.4066 72.7364 76.5965C72.5667 76.674 72.4186 76.7919 72.3052 76.94C72.1917 77.0881 72.1164 77.2618 72.0859 77.4459C72.0377 77.6111 72.0377 77.7866 72.0859 77.9519C72.1226 78.0235 72.1681 78.0903 72.2214 78.1507C72.2819 78.2229 72.3518 78.2867 72.4292 78.3404C72.9994 78.63 73.6078 78.8369 74.2363 78.9548C74.6699 79.0714 75.0883 79.2382 75.4832 79.4517C75.7045 79.5829 75.9132 79.7341 76.1067 79.9035C76.302 80.0893 76.4694 80.3023 76.6036 80.536C76.8511 80.9635 76.9881 81.446 77.0023 81.9398C77.0165 82.4335 76.9074 82.9231 76.6849 83.3641C76.4871 83.7374 76.2164 84.0672 75.889 84.3341C75.5615 84.601 75.1839 84.7996 74.7785 84.9182C74.1587 85.1079 73.505 85.1603 72.8629 85.0718C72.0108 84.9508 71.1961 84.6422 70.4776 84.1683C70.0439 83.843 69.827 83.581 69.8812 83.4725Z" fill="#DA4F30"/>
<path d="M73.5781 86.4271C73.3161 86.4271 73.4878 83.5628 73.9486 80.1023C74.4094 76.6417 74.9877 73.8678 75.2407 73.9039C75.4936 73.9401 75.331 76.7682 74.8702 80.2287C74.4094 83.6893 73.8402 86.4632 73.5781 86.4271Z" fill="#DA4F30"/>
<path d="M72.2215 85.9211C71.9685 85.9211 72.095 83.3189 72.5197 80.1836C72.9443 77.0483 73.4864 74.5274 73.7394 74.5545C73.9924 74.5816 73.8569 77.1657 73.4413 80.301C73.0256 83.4363 72.4745 85.9572 72.2215 85.9211Z" fill="#DA4F30"/>
<g opacity="0.5">
<path d="M51.4043 82.7496L53.3017 67.1182L53.4463 67.064C60.4578 64.2179 70.8938 68.8711 77.8421 71.8709C79.0257 72.404 80.1552 72.8919 81.131 73.2985C87.6546 76.0091 94.0608 71.9341 94.3499 71.3468L94.883 71.4643L93.0759 88.4058L92.9133 88.46C88.6471 89.8705 84.1337 90.3764 79.6611 89.9455C75.1885 89.5145 70.8547 88.1562 66.9363 85.9572C61.6234 82.8219 51.8199 82.7948 51.7205 82.7948L51.4043 82.7496ZM53.8077 67.4706L52.0006 82.1985C53.7535 82.1985 62.2198 82.5057 67.1802 85.4332C71.007 87.5798 75.2363 88.9118 79.6025 89.3456C83.9688 89.7794 88.3775 89.3057 92.5519 87.954L94.2053 72.1329C93.7832 72.4309 93.3392 72.6967 92.8771 72.928C91.4224 73.687 86.2361 75.964 80.8599 73.7593C79.8841 73.3618 78.7547 72.8558 77.562 72.3317C70.8035 69.35 60.6024 64.8413 53.8077 67.4706V67.4706Z" fill="white"/>
</g>
<path d="M162.696 -42.1477C162.696 -42.1477 163.852 -32.9315 154.564 -26.7151C148.799 -22.857 138.752 -13.8486 141.011 -9.05982L153.091 0.309961C156.361 -4.81946 160.709 -9.17592 165.831 -12.4572C173.719 -17.2098 178.481 -30.8082 178.481 -30.8082L162.696 -42.1477Z" fill="#DA4F30"/>
<path d="M368.839 290.9H321.258V301.191H368.839V290.9Z" fill="#263238"/>
<path d="M340.15 290.9L340.936 301.191H347.65L348.002 290.9H340.15Z" fill="#E0E0E0"/>
<path d="M357.3 290.9H309.719V301.191H357.3V290.9Z" fill="#455A64"/>
<path d="M357.148 292.508C357.148 292.644 346.567 292.743 333.511 292.743C320.455 292.743 309.865 292.644 309.865 292.508C309.865 292.373 320.446 292.273 333.511 292.273C346.576 292.273 357.148 292.382 357.148 292.508Z" fill="#263238"/>
<path d="M357.128 294.866C357.128 294.993 346.548 295.101 333.492 295.101C320.435 295.101 309.846 294.993 309.846 294.866C309.846 294.74 320.435 294.632 333.492 294.632C346.548 294.632 357.128 294.74 357.128 294.866Z" fill="#263238"/>
<path d="M357.128 297.225C357.128 297.351 346.548 297.46 333.492 297.46C320.435 297.46 309.846 297.351 309.846 297.225C309.846 297.098 320.435 296.99 333.492 296.99C346.548 296.99 357.128 297.089 357.128 297.225Z" fill="#263238"/>
<path d="M357.128 299.574C357.128 299.71 346.548 299.809 333.492 299.809C320.435 299.809 309.846 299.71 309.846 299.574C309.846 299.438 320.435 299.339 333.492 299.339C346.548 299.339 357.128 299.448 357.128 299.574Z" fill="#263238"/>
<path d="M328.605 290.9L329.392 301.191H336.114L336.457 290.9H328.605Z" fill="#E0E0E0"/>
<path d="M374.614 280.717H327.033V291.008H374.614V280.717Z" fill="#263238"/>
<path d="M345.926 280.717L346.712 291.008H353.425L353.778 280.717H345.926Z" fill="#E0E0E0"/>
<path d="M363.073 280.717H315.492V291.008H363.073V280.717Z" fill="#455A64"/>
<path d="M362.919 282.334C362.919 282.461 352.33 282.569 339.283 282.569C326.235 282.569 315.637 282.461 315.637 282.334C315.637 282.208 326.217 282.099 339.283 282.099C352.348 282.099 362.919 282.163 362.919 282.334Z" fill="#263238"/>
<path d="M362.904 284.684C362.904 284.819 352.323 284.918 339.267 284.918C326.211 284.918 315.621 284.819 315.621 284.684C315.621 284.548 326.211 284.449 339.267 284.449C352.323 284.449 362.904 284.557 362.904 284.684Z" fill="#263238"/>
<path d="M362.904 287.042C362.904 287.168 352.323 287.277 339.267 287.277C326.211 287.277 315.621 287.168 315.621 287.042C315.621 286.915 326.211 286.807 339.267 286.807C352.323 286.807 362.904 286.915 362.904 287.042Z" fill="#263238"/>
<path d="M362.904 289.391C362.904 289.517 352.323 289.626 339.267 289.626C326.211 289.626 315.621 289.517 315.621 289.391C315.621 289.265 326.211 289.156 339.267 289.156C352.323 289.156 362.904 289.265 362.904 289.391Z" fill="#263238"/>
<path d="M334.379 280.717L335.165 291.008H341.878L342.231 280.717H334.379Z" fill="#E0E0E0"/>
<path d="M371.387 311.374H323.807V321.666H371.387V311.374Z" fill="#263238"/>
<path d="M342.691 311.365L343.477 321.666H350.2L350.543 311.365H342.691Z" fill="#E0E0E0"/>
<path d="M359.839 311.365H312.258V321.657H359.839V311.365Z" fill="#455A64"/>
<path d="M359.685 312.983C359.685 313.118 349.104 313.218 336.048 313.218C322.992 313.218 312.402 313.118 312.402 312.983C312.402 312.847 322.992 312.748 336.048 312.748C349.104 312.748 359.685 312.883 359.685 312.983Z" fill="#263238"/>
<path d="M359.679 315.341C359.679 315.467 349.09 315.576 336.033 315.576C322.977 315.576 312.396 315.467 312.396 315.341C312.396 315.214 322.977 315.106 336.033 315.106C349.09 315.106 359.679 315.205 359.679 315.341Z" fill="#263238"/>
<path d="M359.679 317.69C359.679 317.826 349.09 317.934 336.033 317.934C322.977 317.934 312.396 317.826 312.396 317.69C312.396 317.555 322.977 317.455 336.033 317.455C349.09 317.455 359.679 317.564 359.679 317.69Z" fill="#263238"/>
<path d="M359.679 320.048C359.679 320.184 349.09 320.283 336.033 320.283C322.977 320.283 312.396 320.184 312.396 320.048C312.396 319.913 322.977 319.813 336.033 319.813C349.09 319.813 359.679 319.922 359.679 320.048Z" fill="#263238"/>
<path d="M331.152 311.365L331.938 321.666H338.652L338.995 311.365H331.152Z" fill="#E0E0E0"/>
<path d="M377.161 301.191H329.58V311.483H377.161V301.191Z" fill="#263238"/>
<path d="M348.465 301.191L349.251 311.483H355.973L356.317 301.191H348.465Z" fill="#E0E0E0"/>
<path d="M365.614 301.191H318.033V311.483H365.614V301.191Z" fill="#455A64"/>
<path d="M365.425 302.8C365.425 302.935 354.845 303.044 341.788 303.044C328.732 303.044 318.143 302.935 318.143 302.8C318.143 302.664 328.732 302.565 341.788 302.565C354.845 302.565 365.425 302.673 365.425 302.8Z" fill="#263238"/>
<path d="M365.424 305.158C365.424 305.293 354.843 305.393 341.787 305.393C328.731 305.393 318.15 305.293 318.15 305.158C318.15 305.022 328.731 304.923 341.787 304.923C354.843 304.923 365.424 305.031 365.424 305.158Z" fill="#263238"/>
<path d="M365.424 307.516C365.424 307.643 354.843 307.751 341.787 307.751C328.731 307.751 318.15 307.643 318.15 307.516C318.15 307.39 328.731 307.281 341.787 307.281C354.843 307.281 365.424 307.381 365.424 307.516Z" fill="#263238"/>
<path d="M365.424 309.865C365.424 310.001 354.843 310.109 341.787 310.109C328.731 310.109 318.15 310.001 318.15 309.865C318.15 309.73 328.731 309.63 341.787 309.63C354.843 309.63 365.424 309.739 365.424 309.865Z" fill="#263238"/>
<path d="M336.918 301.191L337.704 311.483H344.426L344.77 301.191H336.918Z" fill="#E0E0E0"/>
<path d="M339.376 301.083H291.795V311.374H339.376V301.083Z" fill="#DA4F30"/>
<path opacity="0.2" d="M339.376 301.083H291.795V311.374H339.376V301.083Z" fill="black"/>
<path d="M310.688 301.083L311.474 311.374H318.187L318.539 301.083H310.688Z" fill="#E0E0E0"/>
<path d="M334.151 311.374H286.57V321.666H334.151V311.374Z" fill="#DA4F30"/>
<path opacity="0.2" d="M334.151 311.374H286.57V321.666H334.151V311.374Z" fill="black"/>
<path d="M305.465 311.365L306.242 321.666H312.964L313.308 311.365H305.465Z" fill="#E0E0E0"/>
<path d="M322.604 311.374H275.023V321.666H322.604V311.374Z" fill="#DA4F30"/>
<g opacity="0.2">
<path d="M322.456 312.983C322.456 313.118 311.867 313.218 298.811 313.218C285.754 313.218 275.174 313.118 275.174 312.983C275.174 312.847 285.754 312.748 298.811 312.748C311.867 312.748 322.456 312.883 322.456 312.983Z" fill="black"/>
</g>
<g opacity="0.2">
<path d="M322.441 315.341C322.441 315.467 311.851 315.576 298.804 315.576C285.757 315.576 275.158 315.467 275.158 315.341C275.158 315.214 285.739 315.106 298.804 315.106C311.869 315.106 322.441 315.205 322.441 315.341Z" fill="black"/>
</g>
<g opacity="0.2">
<path d="M322.441 317.69C322.441 317.826 311.851 317.934 298.804 317.934C285.757 317.934 275.158 317.826 275.158 317.69C275.158 317.554 285.739 317.455 298.804 317.455C311.869 317.455 322.441 317.564 322.441 317.69Z" fill="black"/>
</g>
<g opacity="0.2">
<path d="M322.441 320.048C322.441 320.184 311.851 320.283 298.804 320.283C285.757 320.283 275.158 320.184 275.158 320.048C275.158 319.913 285.739 319.813 298.804 319.813C311.869 319.813 322.441 319.922 322.441 320.048Z" fill="black"/>
</g>
<path d="M293.916 311.365L294.702 321.666H301.415L301.768 311.365H293.916Z" fill="#E0E0E0"/>
<path d="M329.473 301.083H281.893V311.374H329.473V301.083Z" fill="#DA4F30"/>
<g opacity="0.2">
<path d="M329.328 302.691C329.328 302.827 318.738 302.926 305.691 302.926C292.644 302.926 282.045 302.827 282.045 302.691C282.045 302.556 292.625 302.456 305.691 302.456C318.756 302.456 329.328 302.565 329.328 302.691Z" fill="black"/>
</g>
<g opacity="0.2">
<path d="M329.285 305.049C329.285 305.176 318.704 305.284 305.648 305.284C292.592 305.284 282.002 305.176 282.002 305.049C282.002 304.923 292.582 304.815 305.648 304.815C318.713 304.815 329.285 304.914 329.285 305.049Z" fill="black"/>
</g>
<g opacity="0.2">
<path d="M329.285 307.408C329.285 307.534 318.704 307.642 305.648 307.642C292.592 307.642 282.002 307.534 282.002 307.408C282.002 307.281 292.582 307.173 305.648 307.173C318.713 307.173 329.285 307.272 329.285 307.408Z" fill="black"/>
</g>
<g opacity="0.2">
<path d="M329.285 309.757C329.285 309.892 318.704 309.992 305.648 309.992C292.592 309.992 282.002 309.892 282.002 309.757C282.002 309.621 292.582 309.522 305.648 309.522C318.713 309.522 329.285 309.63 329.285 309.757Z" fill="black"/>
</g>
<path d="M300.785 301.083L301.571 311.374H308.285L308.637 301.083H300.785Z" fill="#E0E0E0"/>
<path d="M114.11 311.374H66.5293V321.666H114.11V311.374Z" fill="#263238"/>
<path d="M85.4121 311.365L86.1982 321.666H92.9206L93.2639 311.365H85.4121Z" fill="#E0E0E0"/>
<path d="M102.563 311.365H54.9824V321.657H102.563V311.365Z" fill="#455A64"/>
<path d="M102.408 312.983C102.408 313.118 91.8271 313.218 78.7708 313.218C65.7146 313.218 55.125 313.118 55.125 312.983C55.125 312.847 65.7146 312.748 78.7708 312.748C91.8271 312.748 102.408 312.883 102.408 312.983Z" fill="#263238"/>
<path d="M102.393 315.341C102.393 315.467 91.8122 315.576 78.7559 315.576C65.6997 315.576 55.1191 315.467 55.1191 315.341C55.1191 315.214 65.6997 315.106 78.7559 315.106C91.8122 315.106 102.393 315.205 102.393 315.341Z" fill="#263238"/>
<path d="M102.393 317.69C102.393 317.826 91.8122 317.934 78.7559 317.934C65.6997 317.934 55.1191 317.826 55.1191 317.69C55.1191 317.555 65.6997 317.455 78.7559 317.455C91.8122 317.455 102.393 317.564 102.393 317.69Z" fill="#263238"/>
<path d="M102.393 320.048C102.393 320.184 91.8122 320.283 78.7559 320.283C65.6997 320.283 55.1191 320.184 55.1191 320.048C55.1191 319.913 65.6997 319.813 78.7559 319.813C91.8122 319.813 102.393 319.922 102.393 320.048Z" fill="#263238"/>
<path d="M73.8672 311.365L74.6533 321.666H81.3757L81.719 311.365H73.8672Z" fill="#F5F5F5"/>
<path d="M108.319 301.191H60.7383V311.483H108.319V301.191Z" fill="#263238"/>
<path d="M79.6328 301.191L80.4099 311.483H87.1323L87.4846 301.191H79.6328Z" fill="#E0E0E0"/>
<path d="M96.7722 301.191H49.1914V311.483H96.7722V301.191Z" fill="#455A64"/>
<path d="M96.6264 302.8C96.6264 302.935 86.0368 303.044 72.9805 303.044C59.9243 303.044 49.3438 302.935 49.3438 302.8C49.3438 302.664 59.9243 302.565 72.9805 302.565C86.0368 302.565 96.6264 302.673 96.6264 302.8Z" fill="#263238"/>
<path d="M96.6088 305.158C96.6088 305.293 86.0192 305.393 72.963 305.393C59.9067 305.393 49.3262 305.293 49.3262 305.158C49.3262 305.022 59.9067 304.923 72.963 304.923C86.0192 304.923 96.6088 305.031 96.6088 305.158Z" fill="#263238"/>
<path d="M96.6088 307.516C96.6088 307.643 86.0192 307.751 72.963 307.751C59.9067 307.751 49.3262 307.643 49.3262 307.516C49.3262 307.39 59.9067 307.281 72.963 307.281C86.0192 307.281 96.6088 307.381 96.6088 307.516Z" fill="#263238"/>
<path d="M96.6088 309.865C96.6088 310.001 86.0192 310.109 72.963 310.109C59.9067 310.109 49.3262 310.001 49.3262 309.865C49.3262 309.73 59.9067 309.63 72.963 309.63C86.0192 309.63 96.6088 309.739 96.6088 309.865Z" fill="#263238"/>
<path d="M68.0859 301.191L68.872 311.483H75.5854L75.9378 301.191H68.0859Z" fill="#F5F5F5"/>
</svg>
